G04 #@! TF.GenerationSoftware,KiCad,Pcbnew,8.0.7*
G04 #@! TF.CreationDate,2025-01-05T11:59:37+01:00*
G04 #@! TF.ProjectId,CPU_X-3,4350555f-582d-4332-9e6b-696361645f70,2*
G04 #@! TF.SameCoordinates,Original*
G04 #@! TF.FileFunction,Copper,L1,Top*
G04 #@! TF.FilePolarity,Positive*
%FSLAX46Y46*%
G04 Gerber Fmt 4.6, Leading zero omitted, Abs format (unit mm)*
G04 Created by KiCad (PCBNEW 8.0.7) date 2025-01-05 11:59:37*
%MOMM*%
%LPD*%
G01*
G04 APERTURE LIST*
G04 #@! TA.AperFunction,ComponentPad*
%ADD10C,2.000000*%
G04 #@! TD*
G04 #@! TA.AperFunction,ComponentPad*
%ADD11R,1.700000X1.700000*%
G04 #@! TD*
G04 #@! TA.AperFunction,ComponentPad*
%ADD12O,1.700000X1.700000*%
G04 #@! TD*
G04 #@! TA.AperFunction,ComponentPad*
%ADD13C,1.600000*%
G04 #@! TD*
G04 #@! TA.AperFunction,ComponentPad*
%ADD14O,1.600000X1.600000*%
G04 #@! TD*
G04 #@! TA.AperFunction,ComponentPad*
%ADD15R,1.600000X1.600000*%
G04 #@! TD*
G04 #@! TA.AperFunction,ComponentPad*
%ADD16C,2.400000*%
G04 #@! TD*
G04 #@! TA.AperFunction,ComponentPad*
%ADD17R,2.400000X1.600000*%
G04 #@! TD*
G04 #@! TA.AperFunction,ComponentPad*
%ADD18O,2.400000X1.600000*%
G04 #@! TD*
G04 #@! TA.AperFunction,ComponentPad*
%ADD19C,1.500000*%
G04 #@! TD*
G04 #@! TA.AperFunction,ComponentPad*
%ADD20R,1.600000X2.400000*%
G04 #@! TD*
G04 #@! TA.AperFunction,ComponentPad*
%ADD21O,1.600000X2.400000*%
G04 #@! TD*
G04 #@! TA.AperFunction,ComponentPad*
%ADD22R,2.500000X2.500000*%
G04 #@! TD*
G04 #@! TA.AperFunction,ComponentPad*
%ADD23C,2.500000*%
G04 #@! TD*
G04 #@! TA.AperFunction,ComponentPad*
%ADD24R,2.400000X2.400000*%
G04 #@! TD*
G04 #@! TA.AperFunction,ComponentPad*
%ADD25O,2.400000X2.400000*%
G04 #@! TD*
G04 #@! TA.AperFunction,ComponentPad*
%ADD26R,2.250000X2.250000*%
G04 #@! TD*
G04 #@! TA.AperFunction,ComponentPad*
%ADD27C,2.250000*%
G04 #@! TD*
G04 #@! TA.AperFunction,ViaPad*
%ADD28C,0.800000*%
G04 #@! TD*
G04 #@! TA.AperFunction,Conductor*
%ADD29C,0.500000*%
G04 #@! TD*
G04 #@! TA.AperFunction,Conductor*
%ADD30C,2.000000*%
G04 #@! TD*
G04 #@! TA.AperFunction,Conductor*
%ADD31C,0.250000*%
G04 #@! TD*
G04 #@! TA.AperFunction,Conductor*
%ADD32C,3.000000*%
G04 #@! TD*
G04 #@! TA.AperFunction,Conductor*
%ADD33C,1.000000*%
G04 #@! TD*
G04 #@! TA.AperFunction,Conductor*
%ADD34C,4.000000*%
G04 #@! TD*
G04 APERTURE END LIST*
D10*
X247730000Y-99060000D03*
X252730000Y-99060000D03*
D11*
X237490000Y-128270000D03*
D12*
X237490000Y-130810000D03*
X237490000Y-133350000D03*
X237490000Y-135890000D03*
X237490000Y-138430000D03*
X237490000Y-140970000D03*
D10*
X141050000Y-99060000D03*
X146050000Y-99060000D03*
D11*
X91440000Y-158750000D03*
D12*
X91440000Y-161290000D03*
X91440000Y-163830000D03*
X91440000Y-166370000D03*
X91440000Y-168910000D03*
X91440000Y-171450000D03*
X91440000Y-173990000D03*
X91440000Y-176530000D03*
X91440000Y-179070000D03*
X91440000Y-181610000D03*
X91440000Y-184150000D03*
X91440000Y-186690000D03*
D10*
X50800000Y-60960000D03*
X50800000Y-55960000D03*
D13*
X33020000Y-74930000D03*
D14*
X43180000Y-74930000D03*
D13*
X82550000Y-164572000D03*
X82550000Y-162072000D03*
D10*
X191810000Y-99060000D03*
X196810000Y-99060000D03*
D11*
X249174000Y-109220000D03*
D12*
X249174000Y-111760000D03*
X249174000Y-114300000D03*
D15*
X64770000Y-168910000D03*
D14*
X64770000Y-171450000D03*
X64770000Y-173990000D03*
X64770000Y-176530000D03*
X64770000Y-179070000D03*
X64770000Y-181610000D03*
X64770000Y-184150000D03*
X64770000Y-186690000D03*
X64770000Y-189230000D03*
X64770000Y-191770000D03*
X64770000Y-194310000D03*
X64770000Y-196850000D03*
X64770000Y-199390000D03*
X64770000Y-201930000D03*
X80010000Y-201930000D03*
X80010000Y-199390000D03*
X80010000Y-196850000D03*
X80010000Y-194310000D03*
X80010000Y-191770000D03*
X80010000Y-189230000D03*
X80010000Y-186690000D03*
X80010000Y-184150000D03*
X80010000Y-181610000D03*
X80010000Y-179070000D03*
X80010000Y-176530000D03*
X80010000Y-173990000D03*
X80010000Y-171450000D03*
X80010000Y-168910000D03*
D13*
X88900000Y-45720000D03*
D14*
X78740000Y-45720000D03*
D13*
X54610000Y-38100000D03*
X54610000Y-40600000D03*
D16*
X41910000Y-215900000D03*
D11*
X210820000Y-179070000D03*
D12*
X210820000Y-181610000D03*
X210820000Y-184150000D03*
X210820000Y-186690000D03*
X210820000Y-189230000D03*
X210820000Y-191770000D03*
X210820000Y-194310000D03*
X210820000Y-196850000D03*
X210820000Y-199390000D03*
X210820000Y-201930000D03*
X210820000Y-204470000D03*
X210820000Y-207010000D03*
D17*
X224790000Y-158750000D03*
D18*
X224790000Y-161290000D03*
X224790000Y-163830000D03*
X224790000Y-166370000D03*
X224790000Y-168910000D03*
X224790000Y-171450000D03*
X224790000Y-173990000D03*
X224790000Y-176530000D03*
X224790000Y-179070000D03*
X224790000Y-181610000D03*
X224790000Y-184150000D03*
X224790000Y-186690000D03*
X224790000Y-189230000D03*
X224790000Y-191770000D03*
X224790000Y-194310000D03*
X224790000Y-196850000D03*
X224790000Y-199390000D03*
X224790000Y-201930000D03*
X224790000Y-204470000D03*
X224790000Y-207010000D03*
X240030000Y-207010000D03*
X240030000Y-204470000D03*
X240030000Y-201930000D03*
X240030000Y-199390000D03*
X240030000Y-196850000D03*
X240030000Y-194310000D03*
X240030000Y-191770000D03*
X240030000Y-189230000D03*
X240030000Y-186690000D03*
X240030000Y-184150000D03*
X240030000Y-181610000D03*
X240030000Y-179070000D03*
X240030000Y-176530000D03*
X240030000Y-173990000D03*
X240030000Y-171450000D03*
X240030000Y-168910000D03*
X240030000Y-166370000D03*
X240030000Y-163830000D03*
X240030000Y-161290000D03*
X240030000Y-158750000D03*
D10*
X90170000Y-99060000D03*
X95170000Y-99060000D03*
D19*
X62312500Y-38100000D03*
X67312500Y-38100000D03*
D13*
X62230000Y-162072000D03*
X62230000Y-164572000D03*
D19*
X69850000Y-161798000D03*
X74850000Y-161798000D03*
D20*
X69850000Y-129794000D03*
D21*
X72390000Y-129794000D03*
X74930000Y-129794000D03*
X77470000Y-129794000D03*
X80010000Y-129794000D03*
X82550000Y-129794000D03*
X85090000Y-129794000D03*
X85090000Y-122174000D03*
X82550000Y-122174000D03*
X80010000Y-122174000D03*
X77470000Y-122174000D03*
X74930000Y-122174000D03*
X72390000Y-122174000D03*
X69850000Y-122174000D03*
D10*
X229950000Y-212090000D03*
X234950000Y-212090000D03*
X181690000Y-148590000D03*
X186690000Y-148590000D03*
D20*
X96520000Y-129540000D03*
D21*
X99060000Y-129540000D03*
X101600000Y-129540000D03*
X104140000Y-129540000D03*
X106680000Y-129540000D03*
X109220000Y-129540000D03*
X111760000Y-129540000D03*
X114300000Y-129540000D03*
X116840000Y-129540000D03*
X119380000Y-129540000D03*
X121920000Y-129540000D03*
X124460000Y-129540000D03*
X124460000Y-121920000D03*
X121920000Y-121920000D03*
X119380000Y-121920000D03*
X116840000Y-121920000D03*
X114300000Y-121920000D03*
X111760000Y-121920000D03*
X109220000Y-121920000D03*
X106680000Y-121920000D03*
X104140000Y-121920000D03*
X101600000Y-121920000D03*
X99060000Y-121920000D03*
X96520000Y-121920000D03*
D17*
X201930000Y-91440000D03*
D18*
X201930000Y-88900000D03*
X201930000Y-86360000D03*
X201930000Y-83820000D03*
X201930000Y-81280000D03*
X201930000Y-78740000D03*
X201930000Y-76200000D03*
X201930000Y-73660000D03*
X201930000Y-71120000D03*
X201930000Y-68580000D03*
X201930000Y-66040000D03*
X201930000Y-63500000D03*
X201930000Y-60960000D03*
X201930000Y-58420000D03*
X186690000Y-58420000D03*
X186690000Y-60960000D03*
X186690000Y-63500000D03*
X186690000Y-66040000D03*
X186690000Y-68580000D03*
X186690000Y-71120000D03*
X186690000Y-73660000D03*
X186690000Y-76200000D03*
X186690000Y-78740000D03*
X186690000Y-81280000D03*
X186690000Y-83820000D03*
X186690000Y-86360000D03*
X186690000Y-88900000D03*
X186690000Y-91440000D03*
D11*
X237490000Y-109220000D03*
D12*
X237490000Y-111760000D03*
X237490000Y-114300000D03*
X237490000Y-116840000D03*
X237490000Y-119380000D03*
X237490000Y-121920000D03*
D10*
X120476000Y-212090000D03*
X125476000Y-212090000D03*
X173926956Y-212090000D03*
X178926956Y-212090000D03*
D11*
X50800000Y-184150000D03*
D12*
X50800000Y-186690000D03*
X50800000Y-189230000D03*
X50800000Y-191770000D03*
X50800000Y-194310000D03*
X50800000Y-196850000D03*
X50800000Y-199390000D03*
X50800000Y-201930000D03*
D17*
X176530000Y-113030000D03*
D18*
X176530000Y-115570000D03*
X176530000Y-118110000D03*
X176530000Y-120650000D03*
X176530000Y-123190000D03*
X176530000Y-125730000D03*
X176530000Y-128270000D03*
X176530000Y-130810000D03*
X176530000Y-133350000D03*
X176530000Y-135890000D03*
X176530000Y-138430000D03*
X176530000Y-140970000D03*
X191770000Y-140970000D03*
X191770000Y-138430000D03*
X191770000Y-135890000D03*
X191770000Y-133350000D03*
X191770000Y-130810000D03*
X191770000Y-128270000D03*
X191770000Y-125730000D03*
X191770000Y-123190000D03*
X191770000Y-120650000D03*
X191770000Y-118110000D03*
X191770000Y-115570000D03*
X191770000Y-113030000D03*
D13*
X237490000Y-101600000D03*
D14*
X237490000Y-91440000D03*
D10*
X151210000Y-148590000D03*
X156210000Y-148590000D03*
D11*
X43180000Y-184150000D03*
D12*
X43180000Y-186690000D03*
X43180000Y-189230000D03*
D20*
X40640000Y-129540000D03*
D21*
X43180000Y-129540000D03*
X45720000Y-129540000D03*
X48260000Y-129540000D03*
X50800000Y-129540000D03*
X53340000Y-129540000D03*
X55880000Y-129540000D03*
X58420000Y-129540000D03*
X58420000Y-121920000D03*
X55880000Y-121920000D03*
X53340000Y-121920000D03*
X50800000Y-121920000D03*
X48260000Y-121920000D03*
X45720000Y-121920000D03*
X43180000Y-121920000D03*
X40640000Y-121920000D03*
D17*
X146050000Y-110490000D03*
D18*
X146050000Y-113030000D03*
X146050000Y-115570000D03*
X146050000Y-118110000D03*
X146050000Y-120650000D03*
X146050000Y-123190000D03*
X146050000Y-125730000D03*
X146050000Y-128270000D03*
X146050000Y-130810000D03*
X146050000Y-133350000D03*
X146050000Y-135890000D03*
X146050000Y-138430000D03*
X146050000Y-140970000D03*
X146050000Y-143510000D03*
X161290000Y-143510000D03*
X161290000Y-140970000D03*
X161290000Y-138430000D03*
X161290000Y-135890000D03*
X161290000Y-133350000D03*
X161290000Y-130810000D03*
X161290000Y-128270000D03*
X161290000Y-125730000D03*
X161290000Y-123190000D03*
X161290000Y-120650000D03*
X161290000Y-118110000D03*
X161290000Y-115570000D03*
X161290000Y-113030000D03*
X161290000Y-110490000D03*
D11*
X104140000Y-145034000D03*
D12*
X106680000Y-145034000D03*
X109220000Y-145034000D03*
X111760000Y-145034000D03*
X114300000Y-145034000D03*
D17*
X125730000Y-91440000D03*
D18*
X125730000Y-88900000D03*
X125730000Y-86360000D03*
X125730000Y-83820000D03*
X125730000Y-81280000D03*
X125730000Y-78740000D03*
X125730000Y-76200000D03*
X125730000Y-73660000D03*
X125730000Y-71120000D03*
X125730000Y-68580000D03*
X125730000Y-66040000D03*
X125730000Y-63500000D03*
X125730000Y-60960000D03*
X125730000Y-58420000D03*
X110490000Y-58420000D03*
X110490000Y-60960000D03*
X110490000Y-63500000D03*
X110490000Y-66040000D03*
X110490000Y-68580000D03*
X110490000Y-71120000D03*
X110490000Y-73660000D03*
X110490000Y-76200000D03*
X110490000Y-78740000D03*
X110490000Y-81280000D03*
X110490000Y-83820000D03*
X110490000Y-86360000D03*
X110490000Y-88900000D03*
X110490000Y-91440000D03*
D17*
X227330000Y-91440000D03*
D18*
X227330000Y-88900000D03*
X227330000Y-86360000D03*
X227330000Y-83820000D03*
X227330000Y-81280000D03*
X227330000Y-78740000D03*
X227330000Y-76200000D03*
X227330000Y-73660000D03*
X227330000Y-71120000D03*
X227330000Y-68580000D03*
X227330000Y-66040000D03*
X227330000Y-63500000D03*
X227330000Y-60960000D03*
X227330000Y-58420000D03*
X212090000Y-58420000D03*
X212090000Y-60960000D03*
X212090000Y-63500000D03*
X212090000Y-66040000D03*
X212090000Y-68580000D03*
X212090000Y-71120000D03*
X212090000Y-73660000D03*
X212090000Y-76200000D03*
X212090000Y-78740000D03*
X212090000Y-81280000D03*
X212090000Y-83820000D03*
X212090000Y-86360000D03*
X212090000Y-88900000D03*
X212090000Y-91440000D03*
D10*
X166450000Y-99060000D03*
X171450000Y-99060000D03*
D17*
X198120000Y-113030000D03*
D18*
X198120000Y-115570000D03*
X198120000Y-118110000D03*
X198120000Y-120650000D03*
X198120000Y-123190000D03*
X198120000Y-125730000D03*
X198120000Y-128270000D03*
X198120000Y-130810000D03*
X198120000Y-133350000D03*
X198120000Y-135890000D03*
X198120000Y-138430000D03*
X198120000Y-140970000D03*
X213360000Y-140970000D03*
X213360000Y-138430000D03*
X213360000Y-135890000D03*
X213360000Y-133350000D03*
X213360000Y-130810000D03*
X213360000Y-128270000D03*
X213360000Y-125730000D03*
X213360000Y-123190000D03*
X213360000Y-120650000D03*
X213360000Y-118110000D03*
X213360000Y-115570000D03*
X213360000Y-113030000D03*
D17*
X115505825Y-158750000D03*
D18*
X115505825Y-161290000D03*
X115505825Y-163830000D03*
X115505825Y-166370000D03*
X115505825Y-168910000D03*
X115505825Y-171450000D03*
X115505825Y-173990000D03*
X115505825Y-176530000D03*
X115505825Y-179070000D03*
X115505825Y-181610000D03*
X115505825Y-184150000D03*
X115505825Y-186690000D03*
X115505825Y-189230000D03*
X115505825Y-191770000D03*
X115505825Y-194310000D03*
X115505825Y-196850000D03*
X115505825Y-199390000D03*
X115505825Y-201930000D03*
X115505825Y-204470000D03*
X115505825Y-207010000D03*
X130745825Y-207010000D03*
X130745825Y-204470000D03*
X130745825Y-201930000D03*
X130745825Y-199390000D03*
X130745825Y-196850000D03*
X130745825Y-194310000D03*
X130745825Y-191770000D03*
X130745825Y-189230000D03*
X130745825Y-186690000D03*
X130745825Y-184150000D03*
X130745825Y-181610000D03*
X130745825Y-179070000D03*
X130745825Y-176530000D03*
X130745825Y-173990000D03*
X130745825Y-171450000D03*
X130745825Y-168910000D03*
X130745825Y-166370000D03*
X130745825Y-163830000D03*
X130745825Y-161290000D03*
X130745825Y-158750000D03*
D22*
X248920000Y-40640000D03*
D23*
X248920000Y-45720000D03*
D17*
X257810000Y-91440000D03*
D18*
X257810000Y-88900000D03*
X257810000Y-86360000D03*
X257810000Y-83820000D03*
X257810000Y-81280000D03*
X257810000Y-78740000D03*
X257810000Y-76200000D03*
X257810000Y-73660000D03*
X257810000Y-71120000D03*
X257810000Y-68580000D03*
X257810000Y-66040000D03*
X257810000Y-63500000D03*
X257810000Y-60960000D03*
X257810000Y-58420000D03*
X242570000Y-58420000D03*
X242570000Y-60960000D03*
X242570000Y-63500000D03*
X242570000Y-66040000D03*
X242570000Y-68580000D03*
X242570000Y-71120000D03*
X242570000Y-73660000D03*
X242570000Y-76200000D03*
X242570000Y-78740000D03*
X242570000Y-81280000D03*
X242570000Y-83820000D03*
X242570000Y-86360000D03*
X242570000Y-88900000D03*
X242570000Y-91440000D03*
D13*
X33020000Y-57040000D03*
D14*
X43180000Y-57040000D03*
D10*
X203200000Y-148590000D03*
X208200000Y-148590000D03*
D11*
X144526000Y-158750000D03*
D12*
X144526000Y-161290000D03*
X144526000Y-163830000D03*
X144526000Y-166370000D03*
X144526000Y-168910000D03*
X144526000Y-171450000D03*
X144526000Y-173990000D03*
X144526000Y-176530000D03*
X144526000Y-179070000D03*
X144526000Y-181610000D03*
X144526000Y-184150000D03*
X144526000Y-186690000D03*
D17*
X151130000Y-91440000D03*
D18*
X151130000Y-88900000D03*
X151130000Y-86360000D03*
X151130000Y-83820000D03*
X151130000Y-81280000D03*
X151130000Y-78740000D03*
X151130000Y-76200000D03*
X151130000Y-73660000D03*
X151130000Y-71120000D03*
X151130000Y-68580000D03*
X151130000Y-66040000D03*
X151130000Y-63500000D03*
X151130000Y-60960000D03*
X151130000Y-58420000D03*
X135890000Y-58420000D03*
X135890000Y-60960000D03*
X135890000Y-63500000D03*
X135890000Y-66040000D03*
X135890000Y-68580000D03*
X135890000Y-71120000D03*
X135890000Y-73660000D03*
X135890000Y-76200000D03*
X135890000Y-78740000D03*
X135890000Y-81280000D03*
X135890000Y-83820000D03*
X135890000Y-86360000D03*
X135890000Y-88900000D03*
X135890000Y-91440000D03*
D17*
X176530000Y-91440000D03*
D18*
X176530000Y-88900000D03*
X176530000Y-86360000D03*
X176530000Y-83820000D03*
X176530000Y-81280000D03*
X176530000Y-78740000D03*
X176530000Y-76200000D03*
X176530000Y-73660000D03*
X176530000Y-71120000D03*
X176530000Y-68580000D03*
X176530000Y-66040000D03*
X176530000Y-63500000D03*
X176530000Y-60960000D03*
X176530000Y-58420000D03*
X161290000Y-58420000D03*
X161290000Y-60960000D03*
X161290000Y-63500000D03*
X161290000Y-66040000D03*
X161290000Y-68580000D03*
X161290000Y-71120000D03*
X161290000Y-73660000D03*
X161290000Y-76200000D03*
X161290000Y-78740000D03*
X161290000Y-81280000D03*
X161290000Y-83820000D03*
X161290000Y-86360000D03*
X161290000Y-88900000D03*
X161290000Y-91440000D03*
D17*
X100330000Y-91440000D03*
D18*
X100330000Y-88900000D03*
X100330000Y-86360000D03*
X100330000Y-83820000D03*
X100330000Y-81280000D03*
X100330000Y-78740000D03*
X100330000Y-76200000D03*
X100330000Y-73660000D03*
X100330000Y-71120000D03*
X100330000Y-68580000D03*
X100330000Y-66040000D03*
X100330000Y-63500000D03*
X100330000Y-60960000D03*
X100330000Y-58420000D03*
X85090000Y-58420000D03*
X85090000Y-60960000D03*
X85090000Y-63500000D03*
X85090000Y-66040000D03*
X85090000Y-68580000D03*
X85090000Y-71120000D03*
X85090000Y-73660000D03*
X85090000Y-76200000D03*
X85090000Y-78740000D03*
X85090000Y-81280000D03*
X85090000Y-83820000D03*
X85090000Y-86360000D03*
X85090000Y-88900000D03*
X85090000Y-91440000D03*
D10*
X217250000Y-99060000D03*
X222250000Y-99060000D03*
D11*
X200660000Y-158750000D03*
D12*
X200660000Y-161290000D03*
X200660000Y-163830000D03*
X200660000Y-166370000D03*
X200660000Y-168910000D03*
X200660000Y-171450000D03*
X200660000Y-173990000D03*
X200660000Y-176530000D03*
X200660000Y-179070000D03*
X200660000Y-181610000D03*
X200660000Y-184150000D03*
X200660000Y-186690000D03*
D10*
X115650000Y-99060000D03*
X120650000Y-99060000D03*
D11*
X250698000Y-166370000D03*
D12*
X250698000Y-168910000D03*
X250698000Y-171450000D03*
X250698000Y-173990000D03*
X250698000Y-176530000D03*
X250698000Y-179070000D03*
X250698000Y-181610000D03*
X250698000Y-184150000D03*
X250698000Y-186690000D03*
X250698000Y-189230000D03*
X250698000Y-191770000D03*
X250698000Y-194310000D03*
X250698000Y-196850000D03*
X250698000Y-199390000D03*
X250698000Y-201930000D03*
X250698000Y-204470000D03*
X250698000Y-207010000D03*
D16*
X31750000Y-219710000D03*
D13*
X33020000Y-69850000D03*
D14*
X43180000Y-69850000D03*
D24*
X43180000Y-50800000D03*
D25*
X43180000Y-32800000D03*
D11*
X249174000Y-128270000D03*
D12*
X249174000Y-130810000D03*
X249174000Y-133350000D03*
D13*
X33020000Y-64660000D03*
D14*
X43180000Y-64660000D03*
D11*
X124460000Y-113792000D03*
D12*
X121920000Y-113792000D03*
X119380000Y-113792000D03*
X116840000Y-113792000D03*
X114300000Y-113792000D03*
D11*
X101600000Y-179070000D03*
D12*
X101600000Y-181610000D03*
X101600000Y-184150000D03*
X101600000Y-186690000D03*
X101600000Y-189230000D03*
X101600000Y-191770000D03*
X101600000Y-194310000D03*
X101600000Y-196850000D03*
X101600000Y-199390000D03*
X101600000Y-201930000D03*
X101600000Y-204470000D03*
X101600000Y-207010000D03*
D13*
X74930000Y-40600000D03*
X74930000Y-38100000D03*
D26*
X35565000Y-32905000D03*
D27*
X35565000Y-39405000D03*
D17*
X168766956Y-158750000D03*
D18*
X168766956Y-161290000D03*
X168766956Y-163830000D03*
X168766956Y-166370000D03*
X168766956Y-168910000D03*
X168766956Y-171450000D03*
X168766956Y-173990000D03*
X168766956Y-176530000D03*
X168766956Y-179070000D03*
X168766956Y-181610000D03*
X168766956Y-184150000D03*
X168766956Y-186690000D03*
X168766956Y-189230000D03*
X168766956Y-191770000D03*
X168766956Y-194310000D03*
X168766956Y-196850000D03*
X168766956Y-199390000D03*
X168766956Y-201930000D03*
X168766956Y-204470000D03*
X168766956Y-207010000D03*
X184006956Y-207010000D03*
X184006956Y-204470000D03*
X184006956Y-201930000D03*
X184006956Y-199390000D03*
X184006956Y-196850000D03*
X184006956Y-194310000D03*
X184006956Y-191770000D03*
X184006956Y-189230000D03*
X184006956Y-186690000D03*
X184006956Y-184150000D03*
X184006956Y-181610000D03*
X184006956Y-179070000D03*
X184006956Y-176530000D03*
X184006956Y-173990000D03*
X184006956Y-171450000D03*
X184006956Y-168910000D03*
X184006956Y-166370000D03*
X184006956Y-163830000D03*
X184006956Y-161290000D03*
X184006956Y-158750000D03*
D11*
X154940000Y-179070000D03*
D12*
X154940000Y-181610000D03*
X154940000Y-184150000D03*
X154940000Y-186690000D03*
X154940000Y-189230000D03*
X154940000Y-191770000D03*
X154940000Y-194310000D03*
X154940000Y-196850000D03*
X154940000Y-199390000D03*
X154940000Y-201930000D03*
X154940000Y-204470000D03*
X154940000Y-207010000D03*
D10*
X74890000Y-209550000D03*
X69890000Y-209550000D03*
D17*
X57155000Y-45720000D03*
D18*
X57155000Y-48260000D03*
X57155000Y-50800000D03*
X57155000Y-53340000D03*
X57155000Y-55880000D03*
X57155000Y-58420000D03*
X57155000Y-60960000D03*
X57155000Y-63500000D03*
X57155000Y-66040000D03*
X57155000Y-68580000D03*
X57155000Y-71120000D03*
X57155000Y-73660000D03*
X57155000Y-76200000D03*
X57155000Y-78740000D03*
X57155000Y-81280000D03*
X57155000Y-83820000D03*
X57155000Y-86360000D03*
X57155000Y-88900000D03*
X57155000Y-91440000D03*
X57155000Y-93980000D03*
X72395000Y-93980000D03*
X72395000Y-91440000D03*
X72395000Y-88900000D03*
X72395000Y-86360000D03*
X72395000Y-83820000D03*
X72395000Y-81280000D03*
X72395000Y-78740000D03*
X72395000Y-76200000D03*
X72395000Y-73660000D03*
X72395000Y-71120000D03*
X72395000Y-68580000D03*
X72395000Y-66040000D03*
X72395000Y-63500000D03*
X72395000Y-60960000D03*
X72395000Y-58420000D03*
X72395000Y-55880000D03*
X72395000Y-53340000D03*
X72395000Y-50800000D03*
X72395000Y-48260000D03*
X72395000Y-45720000D03*
D13*
X232410000Y-101600000D03*
D14*
X232410000Y-91440000D03*
D28*
X267970000Y-153670000D03*
X154940000Y-153670000D03*
X168766956Y-153670000D03*
X266700000Y-219710000D03*
X267970000Y-54610000D03*
X200660000Y-153670000D03*
X257810000Y-96520000D03*
X186690000Y-153670000D03*
X69850000Y-219710000D03*
X267970000Y-151130000D03*
X115570000Y-153670000D03*
X58420000Y-153670000D03*
X267970000Y-53340000D03*
X267970000Y-218440000D03*
X234950000Y-219710000D03*
X267970000Y-95250000D03*
X267970000Y-109220000D03*
X91440000Y-153670000D03*
X156210000Y-153670000D03*
X125476000Y-219710000D03*
X178926956Y-219710000D03*
X124460000Y-153670000D03*
X267970000Y-55880000D03*
X210820000Y-153670000D03*
X85090000Y-153670000D03*
X267970000Y-96520000D03*
X208280000Y-153670000D03*
X144526000Y-153670000D03*
X267970000Y-219710000D03*
X267970000Y-97790000D03*
X250698000Y-219710000D03*
X224790000Y-153670000D03*
X267970000Y-128270000D03*
X101600000Y-153670000D03*
X267970000Y-152400000D03*
X50800000Y-50800000D03*
X152400000Y-175260000D03*
X83820000Y-175260000D03*
X91440000Y-215900000D03*
X264160000Y-151130000D03*
X40640000Y-101600000D03*
X69850000Y-101600000D03*
X41148000Y-41402000D03*
X262890000Y-215900000D03*
X264160000Y-149860000D03*
X96520000Y-101600000D03*
X264160000Y-148590000D03*
X101600000Y-215900000D03*
X40132000Y-42418000D03*
X154940000Y-215900000D03*
X264160000Y-101600000D03*
X264160000Y-214630000D03*
X264160000Y-215900000D03*
X200660000Y-215900000D03*
X144526000Y-215900000D03*
X264160000Y-100330000D03*
X264160000Y-102870000D03*
X210820000Y-215900000D03*
X80010000Y-215900000D03*
X152400000Y-167640000D03*
X36830000Y-151384000D03*
X121920000Y-151384000D03*
X38100000Y-103124000D03*
X171958000Y-103254400D03*
X41910000Y-97790000D03*
X44522500Y-95604500D03*
X47034800Y-92584800D03*
X166281200Y-110490000D03*
X220218000Y-177709000D03*
X205063300Y-116840000D03*
X119126000Y-195580000D03*
X220218000Y-182789000D03*
X124206000Y-190500000D03*
X78745300Y-59647350D03*
X126746000Y-187960000D03*
X220218000Y-185329000D03*
X197104000Y-195500400D03*
X120396000Y-177800000D03*
X121666000Y-193040000D03*
X76200000Y-59690000D03*
X180340000Y-121840500D03*
X125476000Y-182880000D03*
X173190300Y-129459000D03*
X122936000Y-180340000D03*
X195580000Y-193040000D03*
X85090000Y-172720000D03*
X165100000Y-205669200D03*
X152654000Y-134620000D03*
X165100000Y-200660000D03*
X86360000Y-172720000D03*
X150396000Y-129618000D03*
X82042000Y-96520000D03*
X57150000Y-96774000D03*
X82042000Y-94742000D03*
X61976000Y-124968000D03*
X82042000Y-98298000D03*
X232410000Y-86360000D03*
X237490000Y-88900000D03*
X77470000Y-88900000D03*
X208280000Y-88900000D03*
X220218000Y-208335800D03*
X78820000Y-109982000D03*
X158242000Y-104025900D03*
X102870000Y-111252000D03*
X240030000Y-103886000D03*
X131064000Y-108204000D03*
X186442000Y-102822600D03*
X207010000Y-71120000D03*
X207010000Y-104140000D03*
X53340000Y-147320000D03*
X88900000Y-147320000D03*
X88900000Y-198161000D03*
X54610000Y-145034000D03*
X134620000Y-135890000D03*
X136714825Y-203200000D03*
X137160000Y-134620000D03*
X139700000Y-209804000D03*
X198120000Y-209804000D03*
X198120000Y-203200000D03*
X195326000Y-145542000D03*
X110490000Y-156718000D03*
X110490000Y-160020000D03*
X106680000Y-179070000D03*
X162560000Y-156718000D03*
X160020000Y-179070000D03*
X162560000Y-160061000D03*
X216154000Y-160020000D03*
X216154000Y-156718000D03*
X213868000Y-179070000D03*
X173736000Y-107188000D03*
X178816000Y-108204000D03*
X218186000Y-130810000D03*
X223520000Y-130810000D03*
X218186000Y-124411500D03*
X223520000Y-133350000D03*
X132080000Y-137160000D03*
D29*
X176530000Y-104140000D02*
X171450000Y-99060000D01*
X82550000Y-124460000D02*
X85090000Y-127000000D01*
X125476000Y-219520175D02*
X125665825Y-219710000D01*
X146050000Y-110490000D02*
X146050000Y-99060000D01*
X224790000Y-158750000D02*
X224790000Y-153670000D01*
D30*
X267970000Y-219710000D02*
X266700000Y-219710000D01*
D29*
X250698000Y-207010000D02*
X250698000Y-219710000D01*
X85090000Y-129540000D02*
X85090000Y-153670000D01*
X69890000Y-219670000D02*
X69850000Y-219710000D01*
X186690000Y-148590000D02*
X186690000Y-153670000D01*
X210820000Y-179070000D02*
X210820000Y-153670000D01*
X82550000Y-121920000D02*
X82550000Y-124460000D01*
X156210000Y-148590000D02*
X156210000Y-153670000D01*
X234950000Y-212090000D02*
X234950000Y-219710000D01*
X124460000Y-129540000D02*
X124460000Y-153670000D01*
X58420000Y-129540000D02*
X58420000Y-153670000D01*
D30*
X267970000Y-53340000D02*
X267970000Y-96520000D01*
D29*
X198120000Y-100370000D02*
X196810000Y-99060000D01*
X168766956Y-158750000D02*
X168766956Y-153670000D01*
X125665825Y-212090000D02*
X125476000Y-212279825D01*
X115505825Y-158750000D02*
X115505825Y-153670000D01*
X101600000Y-179070000D02*
X101600000Y-153670000D01*
X200660000Y-158750000D02*
X200660000Y-153670000D01*
X257810000Y-91440000D02*
X257810000Y-96520000D01*
X198120000Y-113030000D02*
X198120000Y-100370000D01*
X91440000Y-158750000D02*
X91440000Y-153670000D01*
X125476000Y-212279825D02*
X125476000Y-219520175D01*
X69890000Y-209550000D02*
X69890000Y-219670000D01*
X85090000Y-127000000D02*
X85090000Y-129540000D01*
D30*
X267970000Y-153670000D02*
X267970000Y-218440000D01*
D29*
X178926956Y-212090000D02*
X178926956Y-219710000D01*
X154940000Y-179070000D02*
X154940000Y-153670000D01*
D30*
X267970000Y-128270000D02*
X267970000Y-153670000D01*
D29*
X176530000Y-113030000D02*
X176530000Y-104140000D01*
X208280000Y-148590000D02*
X208280000Y-153670000D01*
D30*
X267970000Y-96520000D02*
X267970000Y-128270000D01*
D31*
X35670000Y-32800000D02*
X35565000Y-32905000D01*
D29*
X144526000Y-158750000D02*
X144526000Y-153670000D01*
D31*
X52070000Y-49530000D02*
X64770000Y-49530000D01*
X152400000Y-175260000D02*
X151384000Y-174244000D01*
X50800000Y-50800000D02*
X52070000Y-49530000D01*
X58420000Y-176530000D02*
X35560000Y-153670000D01*
X76200000Y-175260000D02*
X83820000Y-175260000D01*
D29*
X38100000Y-50800000D02*
X43180000Y-50800000D01*
D31*
X141224000Y-133096000D02*
X146050000Y-128270000D01*
X151384000Y-174244000D02*
X151384000Y-157734000D01*
X64770000Y-176530000D02*
X74930000Y-176530000D01*
X35560000Y-53340000D02*
X38100000Y-50800000D01*
X35560000Y-153670000D02*
X35560000Y-53340000D01*
X64770000Y-49530000D02*
X68580000Y-53340000D01*
D29*
X35565000Y-48265000D02*
X38100000Y-50800000D01*
D31*
X74930000Y-176530000D02*
X76200000Y-175260000D01*
X68580000Y-53340000D02*
X72395000Y-53340000D01*
X64770000Y-176530000D02*
X58420000Y-176530000D01*
X141224000Y-147574000D02*
X141224000Y-133096000D01*
X151384000Y-157734000D02*
X141224000Y-147574000D01*
D29*
X35565000Y-39405000D02*
X35565000Y-48265000D01*
X176530000Y-140970000D02*
X179070000Y-140970000D01*
X117856000Y-207010000D02*
X120476000Y-209630000D01*
X33020000Y-74820000D02*
X33020000Y-74930000D01*
X80010000Y-209296000D02*
X80010000Y-215900000D01*
D30*
X264160000Y-151130000D02*
X264160000Y-166370000D01*
X49530000Y-33020000D02*
X86360000Y-33020000D01*
X264160000Y-50800000D02*
X264160000Y-151130000D01*
D29*
X113030000Y-91440000D02*
X110490000Y-91440000D01*
X210820000Y-207010000D02*
X210820000Y-215900000D01*
X69850000Y-121920000D02*
X69850000Y-101600000D01*
D32*
X248920000Y-49530000D02*
X262890000Y-49530000D01*
D29*
X245110000Y-91440000D02*
X247730000Y-94060000D01*
X115650000Y-94060000D02*
X113030000Y-91440000D01*
X138430000Y-91440000D02*
X135890000Y-91440000D01*
X229950000Y-209630000D02*
X229950000Y-212090000D01*
X146050000Y-143510000D02*
X148590000Y-143510000D01*
X173926956Y-209630000D02*
X173926956Y-212090000D01*
X212090000Y-91440000D02*
X214630000Y-91440000D01*
X198120000Y-140970000D02*
X200660000Y-140970000D01*
X151210000Y-146130000D02*
X151210000Y-148590000D01*
D33*
X41148000Y-41402000D02*
X49530000Y-33020000D01*
D29*
X115316000Y-207010000D02*
X117856000Y-207010000D01*
X148590000Y-143510000D02*
X151210000Y-146130000D01*
X186690000Y-91440000D02*
X189230000Y-91440000D01*
X96520000Y-121920000D02*
X96520000Y-101600000D01*
D32*
X92583000Y-49530000D02*
X246380000Y-49530000D01*
D34*
X248920000Y-45720000D02*
X248920000Y-49530000D01*
D29*
X200660000Y-140970000D02*
X203200000Y-143510000D01*
X250698000Y-166370000D02*
X264160000Y-166370000D01*
D32*
X88900000Y-45847000D02*
X92583000Y-49530000D01*
D30*
X262890000Y-49530000D02*
X264160000Y-50800000D01*
D29*
X141050000Y-99060000D02*
X141050000Y-94060000D01*
X179070000Y-140970000D02*
X181690000Y-143590000D01*
X191810000Y-94020000D02*
X191810000Y-99060000D01*
X141050000Y-94060000D02*
X138430000Y-91440000D01*
X189230000Y-91440000D02*
X191810000Y-94020000D01*
X247730000Y-94060000D02*
X247730000Y-99060000D01*
X166450000Y-99060000D02*
X166450000Y-94060000D01*
X227330000Y-207010000D02*
X229950000Y-209630000D01*
X40640000Y-121920000D02*
X40640000Y-101600000D01*
X200660000Y-186690000D02*
X200660000Y-215900000D01*
X166450000Y-94060000D02*
X163830000Y-91440000D01*
X214630000Y-91440000D02*
X217170000Y-93980000D01*
X74890000Y-209550000D02*
X79756000Y-209550000D01*
X144526000Y-186690000D02*
X144526000Y-215900000D01*
X171306956Y-207010000D02*
X173926956Y-209630000D01*
X217170000Y-98980000D02*
X217250000Y-99060000D01*
X168766956Y-207010000D02*
X171306956Y-207010000D01*
X181690000Y-143590000D02*
X181690000Y-148590000D01*
X217170000Y-93980000D02*
X217170000Y-98980000D01*
D30*
X264160000Y-215900000D02*
X262890000Y-215900000D01*
D29*
X80010000Y-201930000D02*
X80010000Y-209296000D01*
D33*
X40132000Y-42418000D02*
X41148000Y-41402000D01*
D29*
X154940000Y-207010000D02*
X154940000Y-215900000D01*
X242570000Y-91440000D02*
X245110000Y-91440000D01*
X79756000Y-209550000D02*
X80010000Y-209296000D01*
X163830000Y-91440000D02*
X161290000Y-91440000D01*
X115650000Y-99060000D02*
X115650000Y-94060000D01*
D32*
X88900000Y-35560000D02*
X88900000Y-45847000D01*
D29*
X91440000Y-186690000D02*
X91440000Y-215900000D01*
X101600000Y-207010000D02*
X101600000Y-215900000D01*
X203200000Y-143510000D02*
X203200000Y-148590000D01*
D30*
X86360000Y-33020000D02*
X88900000Y-35560000D01*
X264160000Y-166370000D02*
X264160000Y-214630000D01*
D29*
X120476000Y-209630000D02*
X120476000Y-212090000D01*
X224790000Y-207010000D02*
X227330000Y-207010000D01*
D31*
X72395000Y-55880000D02*
X73660000Y-55880000D01*
X74930000Y-57150000D02*
X74930000Y-62232500D01*
X74930000Y-62232500D02*
X73662500Y-63500000D01*
X73660000Y-55880000D02*
X74930000Y-57150000D01*
X73662500Y-63500000D02*
X72395000Y-63500000D01*
X45720000Y-63500000D02*
X44560000Y-64660000D01*
X57155000Y-48260000D02*
X48260000Y-48260000D01*
X44560000Y-64660000D02*
X43180000Y-64660000D01*
X48260000Y-48260000D02*
X45720000Y-50800000D01*
X45720000Y-50800000D02*
X45720000Y-63500000D01*
X50800000Y-53340000D02*
X53340000Y-50800000D01*
X130745825Y-163830000D02*
X130745825Y-166370000D01*
X36830000Y-72390000D02*
X36830000Y-82550000D01*
X142453400Y-132879900D02*
X144523300Y-130810000D01*
X44450000Y-69850000D02*
X48260000Y-66040000D01*
X144523300Y-130810000D02*
X146050000Y-130810000D01*
X39370000Y-69850000D02*
X36830000Y-72390000D01*
X121920000Y-151384000D02*
X121920000Y-162052000D01*
X123698000Y-163830000D02*
X130745825Y-163830000D01*
X36830000Y-82550000D02*
X36830000Y-151384000D01*
X48260000Y-53340000D02*
X50800000Y-53340000D01*
X48260000Y-66040000D02*
X48260000Y-53340000D01*
X142453400Y-147787400D02*
X142453400Y-132879900D01*
X53340000Y-50800000D02*
X57155000Y-50800000D01*
X184006956Y-163830000D02*
X184006956Y-166370000D01*
X152400000Y-167640000D02*
X152400000Y-157734000D01*
X43180000Y-69850000D02*
X39370000Y-69850000D01*
X152400000Y-157734000D02*
X142453400Y-147787400D01*
X121920000Y-162052000D02*
X123698000Y-163830000D01*
X43180000Y-69850000D02*
X44450000Y-69850000D01*
X240030000Y-163830000D02*
X240030000Y-166370000D01*
X53340000Y-53340000D02*
X53340000Y-68580000D01*
X74930000Y-175260000D02*
X76200000Y-173990000D01*
X57155000Y-53340000D02*
X53340000Y-53340000D01*
X174244000Y-128270000D02*
X176530000Y-128270000D01*
X76200000Y-173990000D02*
X80010000Y-173990000D01*
X46990000Y-74930000D02*
X43180000Y-74930000D01*
X38100000Y-153670000D02*
X59690000Y-175260000D01*
X171958000Y-103254400D02*
X171958000Y-125984000D01*
X171958000Y-125984000D02*
X174244000Y-128270000D01*
X40640000Y-74930000D02*
X46990000Y-74930000D01*
X38100000Y-77470000D02*
X40640000Y-74930000D01*
X53340000Y-68580000D02*
X46990000Y-74930000D01*
X38100000Y-103124000D02*
X38100000Y-77470000D01*
X59690000Y-175260000D02*
X74930000Y-175260000D01*
X38100000Y-103124000D02*
X38100000Y-153670000D01*
X41910000Y-97790000D02*
X41980700Y-97860700D01*
X41980700Y-97860700D02*
X41980700Y-126672600D01*
X40640000Y-128013300D02*
X40640000Y-129540000D01*
X41980700Y-126672600D02*
X40640000Y-128013300D01*
X43180000Y-128013300D02*
X44522500Y-126670800D01*
X44522500Y-126670800D02*
X44522500Y-95604500D01*
X43180000Y-129540000D02*
X43180000Y-128013300D01*
X45720000Y-128013300D02*
X47034800Y-126698500D01*
X47034800Y-126698500D02*
X47034800Y-92584800D01*
X45720000Y-129540000D02*
X45720000Y-128013300D01*
X166281200Y-115912800D02*
X164084000Y-118110000D01*
X218948000Y-144419708D02*
X216666000Y-142137708D01*
X205740000Y-116163300D02*
X205740000Y-67310000D01*
X166281200Y-110490000D02*
X166281200Y-115912800D01*
X204470000Y-66040000D02*
X201930000Y-66040000D01*
X205063300Y-116840000D02*
X205740000Y-116163300D01*
X119126000Y-177292000D02*
X119888000Y-176530000D01*
X214884000Y-118110000D02*
X213360000Y-118110000D01*
X216666000Y-119892000D02*
X214884000Y-118110000D01*
X164084000Y-118110000D02*
X161290000Y-118110000D01*
X216666000Y-142137708D02*
X216666000Y-119892000D01*
X220218000Y-177709000D02*
X218948000Y-176439000D01*
X218948000Y-176439000D02*
X218948000Y-144419708D01*
X205740000Y-67310000D02*
X204470000Y-66040000D01*
X119126000Y-195580000D02*
X119126000Y-177292000D01*
X119888000Y-176530000D02*
X130745825Y-176530000D01*
X124206000Y-182372000D02*
X124968000Y-181610000D01*
X75946000Y-72644000D02*
X74930000Y-73660000D01*
X74930000Y-73660000D02*
X72395000Y-73660000D01*
X218440000Y-144624472D02*
X216162000Y-142346472D01*
X75946000Y-62446650D02*
X75946000Y-72644000D01*
X218440000Y-181011000D02*
X218440000Y-144624472D01*
X158242000Y-123190000D02*
X154940000Y-119888000D01*
X216162000Y-124465300D02*
X214886700Y-123190000D01*
X154940000Y-62101650D02*
X153798350Y-60960000D01*
X214886700Y-123190000D02*
X213360000Y-123190000D01*
X220218000Y-182789000D02*
X218440000Y-181011000D01*
X216162000Y-142346472D02*
X216162000Y-124465300D01*
X161290000Y-123190000D02*
X158242000Y-123190000D01*
X154940000Y-119888000D02*
X154940000Y-62101650D01*
X124206000Y-190500000D02*
X124206000Y-182372000D01*
X153798350Y-60960000D02*
X151130000Y-60960000D01*
X78745300Y-59647350D02*
X75946000Y-62446650D01*
X124968000Y-181610000D02*
X130745825Y-181610000D01*
X205740000Y-58420000D02*
X204470000Y-57150000D01*
X220980000Y-57150000D02*
X219710000Y-58420000D01*
X213360000Y-125730000D02*
X210820000Y-125730000D01*
X143510000Y-58420000D02*
X135890000Y-58420000D01*
X74930000Y-76200000D02*
X72395000Y-76200000D01*
X242570000Y-58420000D02*
X231140000Y-58420000D01*
X126746000Y-187960000D02*
X126746000Y-185166000D01*
X220218000Y-185329000D02*
X217932000Y-183043000D01*
X76454000Y-74676000D02*
X74930000Y-76200000D01*
X204470000Y-57150000D02*
X195580000Y-57150000D01*
X179070000Y-57150000D02*
X170180000Y-57150000D01*
X215658000Y-142555236D02*
X215658000Y-126504000D01*
X215658000Y-126504000D02*
X214884000Y-125730000D01*
X76454000Y-64516000D02*
X76454000Y-74676000D01*
X154940000Y-58420000D02*
X153670000Y-57150000D01*
X209550000Y-124460000D02*
X209550000Y-59326000D01*
X209550000Y-59326000D02*
X210456000Y-58420000D01*
X82550000Y-58420000D02*
X76454000Y-64516000D01*
X168910000Y-58420000D02*
X161290000Y-58420000D01*
X180340000Y-58420000D02*
X179070000Y-57150000D01*
X217932000Y-144829236D02*
X215658000Y-142555236D01*
X93980000Y-57150000D02*
X92710000Y-58420000D01*
X219710000Y-58420000D02*
X212090000Y-58420000D01*
X129540000Y-58420000D02*
X128270000Y-57150000D01*
X210820000Y-125730000D02*
X209550000Y-124460000D01*
X153670000Y-57150000D02*
X144780000Y-57150000D01*
X110490000Y-58420000D02*
X104140000Y-58420000D01*
X104140000Y-58420000D02*
X102870000Y-57150000D01*
X186690000Y-58420000D02*
X180340000Y-58420000D01*
X170180000Y-57150000D02*
X168910000Y-58420000D01*
X126746000Y-185166000D02*
X127762000Y-184150000D01*
X217932000Y-183043000D02*
X217932000Y-144829236D01*
X118110000Y-58420000D02*
X110490000Y-58420000D01*
X127762000Y-184150000D02*
X130745825Y-184150000D01*
X212090000Y-58420000D02*
X205740000Y-58420000D01*
X102870000Y-57150000D02*
X93980000Y-57150000D01*
X135890000Y-58420000D02*
X129540000Y-58420000D01*
X229870000Y-57150000D02*
X220980000Y-57150000D01*
X194310000Y-58420000D02*
X186690000Y-58420000D01*
X144780000Y-57150000D02*
X143510000Y-58420000D01*
X231140000Y-58420000D02*
X229870000Y-57150000D01*
X214884000Y-125730000D02*
X213360000Y-125730000D01*
X128270000Y-57150000D02*
X119380000Y-57150000D01*
X92710000Y-58420000D02*
X85090000Y-58420000D01*
X161290000Y-58420000D02*
X154940000Y-58420000D01*
X119380000Y-57150000D02*
X118110000Y-58420000D01*
X85090000Y-58420000D02*
X82550000Y-58420000D01*
X195580000Y-57150000D02*
X194310000Y-58420000D01*
X194310000Y-189738000D02*
X194310000Y-72390000D01*
X83820000Y-68580000D02*
X82293300Y-68580000D01*
X82293300Y-68580000D02*
X78532000Y-72341300D01*
X190500000Y-68580000D02*
X186690000Y-68580000D01*
X73921700Y-86360000D02*
X72395000Y-86360000D01*
X194310000Y-72390000D02*
X190500000Y-68580000D01*
X120396000Y-177800000D02*
X120396000Y-193294000D01*
X194310000Y-135890000D02*
X191770000Y-135890000D01*
X78532000Y-72341300D02*
X78532000Y-81749700D01*
X197104000Y-192532000D02*
X194310000Y-189738000D01*
X120396000Y-193294000D02*
X121412000Y-194310000D01*
X78532000Y-81749700D02*
X73921700Y-86360000D01*
X197104000Y-195500400D02*
X197104000Y-192532000D01*
X121412000Y-194310000D02*
X130745825Y-194310000D01*
X187706000Y-179070000D02*
X184006956Y-179070000D01*
X190500000Y-147574000D02*
X190500000Y-176276000D01*
X180340000Y-124968000D02*
X186690000Y-131318000D01*
X75438000Y-70082000D02*
X75438000Y-60452000D01*
X74400000Y-71120000D02*
X75438000Y-70082000D01*
X180340000Y-64770000D02*
X179070000Y-63500000D01*
X121666000Y-179832000D02*
X122428000Y-179070000D01*
X121666000Y-193040000D02*
X121666000Y-179832000D01*
X186690000Y-143764000D02*
X190500000Y-147574000D01*
X180340000Y-121840500D02*
X180340000Y-64770000D01*
X122428000Y-179070000D02*
X130745825Y-179070000D01*
X72395000Y-71120000D02*
X74400000Y-71120000D01*
X75438000Y-60452000D02*
X76200000Y-59690000D01*
X179070000Y-63500000D02*
X176530000Y-63500000D01*
X180340000Y-121840500D02*
X180340000Y-124968000D01*
X190500000Y-176276000D02*
X187706000Y-179070000D01*
X186690000Y-131318000D02*
X186690000Y-143764000D01*
X156210000Y-64770000D02*
X156210000Y-119634000D01*
X161290000Y-63500000D02*
X157480000Y-63500000D01*
X125476000Y-182880000D02*
X125476000Y-188468000D01*
X72395000Y-81280000D02*
X74930000Y-81280000D01*
X164592000Y-129540000D02*
X163322000Y-130810000D01*
X158496000Y-121920000D02*
X163576000Y-121920000D01*
X187706000Y-132080000D02*
X187706000Y-143510000D01*
X82550000Y-63500000D02*
X85090000Y-63500000D01*
X191770000Y-130810000D02*
X188976000Y-130810000D01*
X163576000Y-121920000D02*
X164592000Y-122936000D01*
X163322000Y-130810000D02*
X161290000Y-130810000D01*
X187706000Y-189230000D02*
X185276956Y-189230000D01*
X191770000Y-185166000D02*
X187706000Y-189230000D01*
X156210000Y-119634000D02*
X158496000Y-121920000D01*
X74930000Y-81280000D02*
X77524000Y-78686000D01*
X125476000Y-188468000D02*
X126238000Y-189230000D01*
X187706000Y-143510000D02*
X191770000Y-147574000D01*
X188976000Y-130810000D02*
X187706000Y-132080000D01*
X77524000Y-68526000D02*
X82550000Y-63500000D01*
X77524000Y-78686000D02*
X77524000Y-68526000D01*
X157480000Y-63500000D02*
X156210000Y-64770000D01*
X126238000Y-189230000D02*
X130745825Y-189230000D01*
X191770000Y-147574000D02*
X191770000Y-185166000D01*
X164592000Y-122936000D02*
X164592000Y-129540000D01*
X172212000Y-178705044D02*
X174608956Y-181102000D01*
X85090000Y-60960000D02*
X82550000Y-60960000D01*
X182880000Y-60960000D02*
X181610000Y-62230000D01*
X74930000Y-78740000D02*
X72395000Y-78740000D01*
X174608956Y-181102000D02*
X180196956Y-186690000D01*
X77020000Y-76650000D02*
X74930000Y-78740000D01*
X181610000Y-119636700D02*
X190243300Y-128270000D01*
X186690000Y-60960000D02*
X182880000Y-60960000D01*
X82550000Y-60960000D02*
X77020000Y-66490000D01*
X180196956Y-186690000D02*
X184006956Y-186690000D01*
X181610000Y-62230000D02*
X181610000Y-119636700D01*
X190243300Y-128270000D02*
X191770000Y-128270000D01*
X172212000Y-130437300D02*
X172212000Y-178705044D01*
X77020000Y-66490000D02*
X77020000Y-76650000D01*
X173190300Y-129459000D02*
X172212000Y-130437300D01*
X123952000Y-191770000D02*
X130745825Y-191770000D01*
X122936000Y-180340000D02*
X122936000Y-190754000D01*
X74425850Y-83820000D02*
X78028000Y-80217850D01*
X78028000Y-70562000D02*
X82550000Y-66040000D01*
X72395000Y-83820000D02*
X74425850Y-83820000D01*
X193040000Y-190500000D02*
X195580000Y-193040000D01*
X184023000Y-66040000D02*
X182880000Y-67183000D01*
X188722000Y-134366000D02*
X189738000Y-133350000D01*
X193548000Y-111860900D02*
X193548000Y-132588000D01*
X188722000Y-143256000D02*
X193040000Y-147574000D01*
X189738000Y-133350000D02*
X191770000Y-133350000D01*
X122936000Y-190754000D02*
X123952000Y-191770000D01*
X193548000Y-132588000D02*
X192786000Y-133350000D01*
X186690000Y-66040000D02*
X184023000Y-66040000D01*
X188722000Y-139700000D02*
X188722000Y-143256000D01*
X82550000Y-66040000D02*
X85090000Y-66040000D01*
X193040000Y-147574000D02*
X193040000Y-190500000D01*
X192786000Y-133350000D02*
X191770000Y-133350000D01*
X188722000Y-139700000D02*
X188722000Y-134366000D01*
X182880000Y-101192900D02*
X193548000Y-111860900D01*
X182880000Y-67183000D02*
X182880000Y-101192900D01*
X78028000Y-80217850D02*
X78028000Y-70562000D01*
X68580000Y-199390000D02*
X64770000Y-199390000D01*
X149098000Y-132334000D02*
X148082000Y-133350000D01*
X148082000Y-133350000D02*
X146050000Y-133350000D01*
X85090000Y-172720000D02*
X85090000Y-195580000D01*
X180450956Y-168910000D02*
X176640956Y-165100000D01*
X184006956Y-168910000D02*
X180450956Y-168910000D01*
X174244000Y-162703044D02*
X174244000Y-139189300D01*
X175003300Y-138430000D02*
X176530000Y-138430000D01*
X69850000Y-198120000D02*
X68580000Y-199390000D01*
X174244000Y-139189300D02*
X175003300Y-138430000D01*
X85090000Y-195580000D02*
X82550000Y-198120000D01*
X147320000Y-94996000D02*
X149098000Y-96774000D01*
X149151600Y-68580000D02*
X147320000Y-70411600D01*
X151130000Y-68580000D02*
X149151600Y-68580000D01*
X176640956Y-165100000D02*
X174244000Y-162703044D01*
X147320000Y-70411600D02*
X147320000Y-94996000D01*
X149098000Y-96774000D02*
X149098000Y-132334000D01*
X82550000Y-198120000D02*
X69850000Y-198120000D01*
X198120000Y-135890000D02*
X200152000Y-135890000D01*
X204470000Y-107950000D02*
X204470000Y-73660000D01*
X163830000Y-204724000D02*
X163830000Y-153874764D01*
X152654000Y-134620000D02*
X148844000Y-138430000D01*
X204470000Y-73660000D02*
X201930000Y-73660000D01*
X202692000Y-109728000D02*
X204470000Y-107950000D01*
X158246000Y-148290764D02*
X158246000Y-144276000D01*
X202692000Y-133350000D02*
X202692000Y-109728000D01*
X152400000Y-138430000D02*
X146050000Y-138430000D01*
X163830000Y-153874764D02*
X158246000Y-148290764D01*
X200152000Y-135890000D02*
X202692000Y-133350000D01*
X158246000Y-144276000D02*
X152400000Y-138430000D01*
X164775200Y-205669200D02*
X163830000Y-204724000D01*
X148844000Y-138430000D02*
X146050000Y-138430000D01*
X165100000Y-205669200D02*
X164775200Y-205669200D01*
X153670000Y-135890000D02*
X153670000Y-76708000D01*
X165100000Y-154432000D02*
X158750000Y-148082000D01*
X158750000Y-148082000D02*
X158750000Y-141983300D01*
X161290000Y-140970000D02*
X159763300Y-140970000D01*
X159763300Y-140970000D02*
X158750000Y-140970000D01*
X158750000Y-140970000D02*
X153670000Y-135890000D01*
X158750000Y-141983300D02*
X159763300Y-140970000D01*
X153162000Y-76200000D02*
X151130000Y-76200000D01*
X165100000Y-200660000D02*
X165100000Y-154432000D01*
X153670000Y-76708000D02*
X153162000Y-76200000D01*
X69850000Y-200660000D02*
X68580000Y-201930000D01*
X180196956Y-171450000D02*
X175624956Y-166878000D01*
X149603300Y-71120000D02*
X151130000Y-71120000D01*
X147576700Y-135890000D02*
X148100300Y-135890000D01*
X148100300Y-135890000D02*
X150396000Y-133594300D01*
X150396000Y-95786000D02*
X148336000Y-93726000D01*
X173228000Y-132585300D02*
X175003300Y-130810000D01*
X82550000Y-200660000D02*
X69850000Y-200660000D01*
X184006956Y-171450000D02*
X180196956Y-171450000D01*
X148336000Y-93726000D02*
X148336000Y-72387300D01*
X150396000Y-133594300D02*
X150396000Y-129618000D01*
X86360000Y-172720000D02*
X86360000Y-196850000D01*
X68580000Y-201930000D02*
X64770000Y-201930000D01*
X175624956Y-166878000D02*
X173228000Y-164481044D01*
X86360000Y-196850000D02*
X82550000Y-200660000D01*
X146050000Y-135890000D02*
X147576700Y-135890000D01*
X175003300Y-130810000D02*
X176530000Y-130810000D01*
X148336000Y-72387300D02*
X149603300Y-71120000D01*
X173228000Y-164481044D02*
X173228000Y-132585300D01*
X150396000Y-129618000D02*
X150396000Y-95786000D01*
X87122000Y-78740000D02*
X88392000Y-80010000D01*
X106934000Y-113538000D02*
X104140000Y-116332000D01*
X88392000Y-80010000D02*
X88392000Y-93726000D01*
X104140000Y-116332000D02*
X104140000Y-121920000D01*
X106934000Y-80010000D02*
X106934000Y-113538000D01*
X85598000Y-96520000D02*
X82042000Y-96520000D01*
X110490000Y-78740000D02*
X108204000Y-78740000D01*
X108204000Y-78740000D02*
X106934000Y-80010000D01*
X88392000Y-93726000D02*
X85598000Y-96520000D01*
X85090000Y-78740000D02*
X87122000Y-78740000D01*
X86360000Y-83820000D02*
X87630000Y-85090000D01*
X55372000Y-83820000D02*
X57155000Y-83820000D01*
X87630000Y-85090000D02*
X87630000Y-93218000D01*
X85090000Y-83820000D02*
X86360000Y-83820000D01*
X53594000Y-96012000D02*
X53594000Y-85598000D01*
X86106000Y-94742000D02*
X82042000Y-94742000D01*
X57150000Y-96774000D02*
X54356000Y-96774000D01*
X87630000Y-93218000D02*
X86106000Y-94742000D01*
X53594000Y-85598000D02*
X55372000Y-83820000D01*
X54356000Y-96774000D02*
X53594000Y-96012000D01*
X123190000Y-101092000D02*
X123190000Y-91440000D01*
X110490000Y-107696000D02*
X114300000Y-103886000D01*
X110490000Y-114554000D02*
X110490000Y-107696000D01*
X106680000Y-118364000D02*
X110490000Y-114554000D01*
X123190000Y-91440000D02*
X125730000Y-88900000D01*
X106680000Y-121920000D02*
X106680000Y-118364000D01*
X120396000Y-103886000D02*
X123190000Y-101092000D01*
X114300000Y-103886000D02*
X120396000Y-103886000D01*
X61976000Y-118842200D02*
X62007900Y-118810300D01*
X107950000Y-82042000D02*
X108712000Y-81280000D01*
X105410000Y-117348000D02*
X107950000Y-114808000D01*
X62007900Y-118810300D02*
X62007900Y-89686200D01*
X62007900Y-89686200D02*
X58681700Y-86360000D01*
X58681700Y-86360000D02*
X57155000Y-86360000D01*
X105410000Y-123698000D02*
X105410000Y-117348000D01*
X99060000Y-124460000D02*
X104648000Y-124460000D01*
X61976000Y-124968000D02*
X61976000Y-118842200D01*
X104648000Y-124460000D02*
X105410000Y-123698000D01*
X108712000Y-81280000D02*
X110490000Y-81280000D01*
X99060000Y-121920000D02*
X99060000Y-124460000D01*
X107950000Y-114808000D02*
X107950000Y-82042000D01*
X87884000Y-73660000D02*
X89154000Y-74930000D01*
X89154000Y-74930000D02*
X89154000Y-94234000D01*
X105664000Y-112522000D02*
X101600000Y-116586000D01*
X105664000Y-74930000D02*
X105664000Y-112522000D01*
X110490000Y-73660000D02*
X106934000Y-73660000D01*
X85346700Y-73660000D02*
X85369300Y-73682600D01*
X89154000Y-94234000D02*
X85090000Y-98298000D01*
X106934000Y-73660000D02*
X105664000Y-74930000D01*
X85090000Y-73660000D02*
X87884000Y-73660000D01*
X85090000Y-98298000D02*
X82042000Y-98298000D01*
X101600000Y-116586000D02*
X101600000Y-121920000D01*
X232410000Y-86360000D02*
X232410000Y-91440000D01*
X237490000Y-88900000D02*
X237490000Y-91440000D01*
X78740000Y-149860000D02*
X78740000Y-125730000D01*
X78740000Y-125730000D02*
X77470000Y-124460000D01*
X72395000Y-66040000D02*
X70612000Y-66040000D01*
X217424000Y-205486000D02*
X217424000Y-145034000D01*
X87884000Y-159004000D02*
X78740000Y-149860000D01*
X69850000Y-86868000D02*
X70612000Y-87630000D01*
X208280000Y-88900000D02*
X208280000Y-139192000D01*
X217424000Y-145034000D02*
X213360000Y-140970000D01*
X70612000Y-87630000D02*
X76200000Y-87630000D01*
X87884000Y-167386000D02*
X87884000Y-159004000D01*
X69850000Y-66802000D02*
X69850000Y-86868000D01*
X220218000Y-208335800D02*
X220218000Y-208280000D01*
X76200000Y-87630000D02*
X77470000Y-88900000D01*
X208280000Y-139192000D02*
X210058000Y-140970000D01*
X77470000Y-88900000D02*
X77470000Y-121920000D01*
X86360000Y-168910000D02*
X87884000Y-167386000D01*
X210058000Y-140970000D02*
X213360000Y-140970000D01*
X220218000Y-208280000D02*
X217424000Y-205486000D01*
X77470000Y-124460000D02*
X77470000Y-122174000D01*
X70612000Y-66040000D02*
X69850000Y-66802000D01*
X80010000Y-168910000D02*
X86360000Y-168910000D01*
X78820000Y-109982000D02*
X79248000Y-109554000D01*
X81360000Y-71120000D02*
X85090000Y-71120000D01*
X79248000Y-109554000D02*
X79248000Y-73232000D01*
X79248000Y-73232000D02*
X81360000Y-71120000D01*
X159258000Y-71120000D02*
X161290000Y-71120000D01*
X158242000Y-72136000D02*
X159258000Y-71120000D01*
X158242000Y-104025900D02*
X158242000Y-72136000D01*
X102870000Y-111252000D02*
X104394000Y-109728000D01*
X107693300Y-71120000D02*
X110490000Y-71120000D01*
X104394000Y-74419300D02*
X107693300Y-71120000D01*
X104394000Y-109728000D02*
X104394000Y-74419300D01*
X240030000Y-72390000D02*
X241300000Y-71120000D01*
X241300000Y-71120000D02*
X242570000Y-71120000D01*
X240030000Y-103886000D02*
X240030000Y-72390000D01*
X131064000Y-108204000D02*
X131064000Y-74419300D01*
X134363300Y-71120000D02*
X135890000Y-71120000D01*
X131064000Y-74419300D02*
X134363300Y-71120000D01*
X186442000Y-102822600D02*
X184150000Y-100530600D01*
X184150000Y-72133300D02*
X185163300Y-71120000D01*
X185163300Y-71120000D02*
X186690000Y-71120000D01*
X184150000Y-100530600D02*
X184150000Y-72133300D01*
X207010000Y-71120000D02*
X207010000Y-104140000D01*
X72395000Y-60960000D02*
X70868300Y-60960000D01*
X72390000Y-101854000D02*
X72390000Y-121920000D01*
X179180956Y-196850000D02*
X184006956Y-196850000D01*
X88900000Y-147320000D02*
X88900000Y-198161000D01*
X171196000Y-188865044D02*
X173846956Y-191516000D01*
X70868300Y-60960000D02*
X67310000Y-64518300D01*
X53340000Y-147320000D02*
X53340000Y-129540000D01*
X161290000Y-138430000D02*
X164084000Y-138430000D01*
X80010000Y-171450000D02*
X88900000Y-171450000D01*
X67310000Y-96774000D02*
X72390000Y-101854000D01*
X171196000Y-145542000D02*
X171196000Y-188865044D01*
X67310000Y-64518300D02*
X67310000Y-96774000D01*
X173846956Y-191516000D02*
X179180956Y-196850000D01*
X164084000Y-138430000D02*
X171196000Y-145542000D01*
X54610000Y-145034000D02*
X54610000Y-167640000D01*
X60960000Y-173990000D02*
X64770000Y-173990000D01*
X104140000Y-145034000D02*
X104140000Y-129540000D01*
X54610000Y-167640000D02*
X60960000Y-173990000D01*
X109220000Y-145034000D02*
X109220000Y-129540000D01*
X111760000Y-145034000D02*
X111760000Y-129540000D01*
X114300000Y-145034000D02*
X114300000Y-129540000D01*
X106680000Y-145034000D02*
X106680000Y-129540000D01*
X121920000Y-113792000D02*
X121920000Y-121920000D01*
X116840000Y-113792000D02*
X116840000Y-121920000D01*
X124460000Y-113792000D02*
X124460000Y-121920000D01*
X119380000Y-113792000D02*
X119380000Y-121920000D01*
X114300000Y-113792000D02*
X114300000Y-121920000D01*
X81788000Y-76200000D02*
X85090000Y-76200000D01*
X81788000Y-76200000D02*
X80010000Y-77978000D01*
X80010000Y-77978000D02*
X80010000Y-121920000D01*
X136714825Y-154494825D02*
X136714825Y-203200000D01*
X134620000Y-152400000D02*
X136714825Y-154494825D01*
X134620000Y-135890000D02*
X134620000Y-152400000D01*
X198120000Y-209804000D02*
X198120000Y-203200000D01*
X137160000Y-152400000D02*
X137160000Y-134620000D01*
X139700000Y-209804000D02*
X139700000Y-154940000D01*
X139700000Y-154940000D02*
X137160000Y-152400000D01*
X195326000Y-145542000D02*
X195326000Y-133350000D01*
X195326000Y-133350000D02*
X198120000Y-133350000D01*
X110490000Y-156718000D02*
X109220000Y-157988000D01*
X95209000Y-182839000D02*
X93980000Y-181610000D01*
X107483000Y-182839000D02*
X95209000Y-182839000D01*
X109220000Y-157988000D02*
X109220000Y-181102000D01*
X93980000Y-181610000D02*
X91440000Y-181610000D01*
X109220000Y-181102000D02*
X107483000Y-182839000D01*
X108204000Y-185420000D02*
X95123000Y-185420000D01*
X95123000Y-185420000D02*
X93853000Y-184150000D01*
X110490000Y-183134000D02*
X108204000Y-185420000D01*
X93853000Y-184150000D02*
X91346700Y-184150000D01*
X110490000Y-160020000D02*
X110490000Y-183134000D01*
X105405000Y-180345000D02*
X95255000Y-180345000D01*
X95255000Y-180345000D02*
X93980000Y-179070000D01*
X93980000Y-179070000D02*
X91440000Y-179070000D01*
X106680000Y-179070000D02*
X105405000Y-180345000D01*
X161290000Y-181610000D02*
X160020000Y-182880000D01*
X161290000Y-157988000D02*
X161290000Y-181610000D01*
X160020000Y-182880000D02*
X148336000Y-182880000D01*
X148336000Y-182880000D02*
X147066000Y-181610000D01*
X147066000Y-181610000D02*
X144399000Y-181610000D01*
X162560000Y-156718000D02*
X161290000Y-157988000D01*
X148336000Y-180345000D02*
X148336000Y-180340000D01*
X148341000Y-180340000D02*
X148336000Y-180345000D01*
X147066000Y-179070000D02*
X144526000Y-179070000D01*
X153665000Y-180340000D02*
X148341000Y-180340000D01*
X160020000Y-179070000D02*
X158745000Y-180345000D01*
X158745000Y-180345000D02*
X153670000Y-180345000D01*
X153670000Y-180345000D02*
X153665000Y-180340000D01*
X148336000Y-180340000D02*
X147066000Y-179070000D01*
X162560000Y-183134000D02*
X160315000Y-185379000D01*
X147066000Y-184150000D02*
X144399000Y-184150000D01*
X160315000Y-185379000D02*
X148295000Y-185379000D01*
X162560000Y-160061000D02*
X162560000Y-183134000D01*
X148295000Y-185379000D02*
X147066000Y-184150000D01*
X204470000Y-185420000D02*
X203200000Y-184150000D01*
X216154000Y-182626000D02*
X213360000Y-185420000D01*
X216154000Y-160020000D02*
X216154000Y-182626000D01*
X203200000Y-184150000D02*
X200660000Y-184150000D01*
X213360000Y-185420000D02*
X204470000Y-185420000D01*
X216154000Y-156718000D02*
X215138000Y-157734000D01*
X203136500Y-181610000D02*
X200660000Y-181610000D01*
X215138000Y-157734000D02*
X215138000Y-181102000D01*
X204406500Y-182880000D02*
X203136500Y-181610000D01*
X215138000Y-181102000D02*
X213360000Y-182880000D01*
X213360000Y-182880000D02*
X204406500Y-182880000D01*
X212557000Y-180381000D02*
X204511000Y-180381000D01*
X213868000Y-179070000D02*
X212557000Y-180381000D01*
X204511000Y-180381000D02*
X203200000Y-179070000D01*
X203200000Y-179070000D02*
X200660000Y-179070000D01*
X176530000Y-120650000D02*
X176530000Y-118110000D01*
X198120000Y-120650000D02*
X198120000Y-118110000D01*
X173736000Y-124715350D02*
X174750650Y-125730000D01*
X174750650Y-125730000D02*
X176530000Y-125730000D01*
X173736000Y-107188000D02*
X173736000Y-124715350D01*
X178816000Y-108204000D02*
X178816000Y-122428000D01*
X178816000Y-122428000D02*
X178054000Y-123190000D01*
X178054000Y-123190000D02*
X176530000Y-123190000D01*
X218186000Y-130810000D02*
X223520000Y-130810000D01*
X218186000Y-126492000D02*
X218186000Y-124411500D01*
X217170000Y-132080000D02*
X217170000Y-127508000D01*
X218440000Y-133350000D02*
X217170000Y-132080000D01*
X223520000Y-133350000D02*
X218440000Y-133350000D01*
X217170000Y-127508000D02*
X218186000Y-126492000D01*
X134428825Y-154748825D02*
X134428825Y-201930000D01*
X132080000Y-152400000D02*
X134428825Y-154748825D01*
X132080000Y-137160000D02*
X132080000Y-152400000D01*
X134428825Y-201930000D02*
X130745825Y-201930000D01*
M02*
