M48
; DRILL file {KiCad 8.0.7} date 2025-01-05T12:01:49+0100
; FORMAT={-:-/ absolute / metric / decimal}
; #@! TF.CreationDate,2025-01-05T12:01:49+01:00
; #@! TF.GenerationSoftware,Kicad,Pcbnew,8.0.7
; #@! TF.FileFunction,Plated,1,2,PTH
FMAT,2
METRIC
; #@! TA.AperFunction,Plated,PTH,ViaDrill
T1C0.400
; #@! TA.AperFunction,Plated,PTH,ComponentDrill
T2C0.800
; #@! TA.AperFunction,Plated,PTH,ComponentDrill
T3C1.000
; #@! TA.AperFunction,Plated,PTH,ComponentDrill
T4C1.200
; #@! TA.AperFunction,Plated,PTH,ComponentDrill
T5C1.300
%
G90
G05
T1
X36.83Y-151.384
X38.1Y-103.124
X40.132Y-42.418
X40.64Y-101.6
X41.148Y-41.402
X41.91Y-97.79
X44.523Y-95.605
X47.035Y-92.585
X50.8Y-50.8
X53.34Y-147.32
X54.61Y-145.034
X57.15Y-96.774
X58.42Y-153.67
X61.976Y-124.968
X69.85Y-101.6
X69.85Y-219.71
X76.2Y-59.69
X77.47Y-88.9
X78.745Y-59.647
X78.82Y-109.982
X80.01Y-215.9
X82.042Y-94.742
X82.042Y-96.52
X82.042Y-98.298
X83.82Y-175.26
X85.09Y-153.67
X85.09Y-172.72
X86.36Y-172.72
X88.9Y-147.32
X88.9Y-198.161
X91.44Y-153.67
X91.44Y-215.9
X96.52Y-101.6
X101.6Y-153.67
X101.6Y-215.9
X102.87Y-111.252
X106.68Y-179.07
X110.49Y-156.718
X110.49Y-160.02
X115.57Y-153.67
X119.126Y-195.58
X120.396Y-177.8
X121.666Y-193.04
X121.92Y-151.384
X122.936Y-180.34
X124.206Y-190.5
X124.46Y-153.67
X125.476Y-182.88
X125.476Y-219.71
X126.746Y-187.96
X131.064Y-108.204
X132.08Y-137.16
X134.62Y-135.89
X136.715Y-203.2
X137.16Y-134.62
X139.7Y-209.804
X144.526Y-153.67
X144.526Y-215.9
X150.396Y-129.618
X152.4Y-167.64
X152.4Y-175.26
X152.654Y-134.62
X154.94Y-153.67
X154.94Y-215.9
X156.21Y-153.67
X158.242Y-104.026
X160.02Y-179.07
X162.56Y-156.718
X162.56Y-160.061
X165.1Y-200.66
X165.1Y-205.669
X166.281Y-110.49
X168.767Y-153.67
X171.958Y-103.254
X173.19Y-129.459
X173.736Y-107.188
X178.816Y-108.204
X178.927Y-219.71
X180.34Y-121.84
X186.442Y-102.823
X186.69Y-153.67
X195.326Y-145.542
X195.58Y-193.04
X197.104Y-195.5
X198.12Y-203.2
X198.12Y-209.804
X200.66Y-153.67
X200.66Y-215.9
X205.063Y-116.84
X207.01Y-71.12
X207.01Y-104.14
X208.28Y-88.9
X208.28Y-153.67
X210.82Y-153.67
X210.82Y-215.9
X213.868Y-179.07
X216.154Y-156.718
X216.154Y-160.02
X218.186Y-124.411
X218.186Y-130.81
X220.218Y-177.709
X220.218Y-182.789
X220.218Y-185.329
X220.218Y-208.336
X223.52Y-130.81
X223.52Y-133.35
X224.79Y-153.67
X232.41Y-86.36
X234.95Y-219.71
X237.49Y-88.9
X240.03Y-103.886
X250.698Y-219.71
X257.81Y-96.52
X262.89Y-215.9
X264.16Y-100.33
X264.16Y-101.6
X264.16Y-102.87
X264.16Y-148.59
X264.16Y-149.86
X264.16Y-151.13
X264.16Y-214.63
X264.16Y-215.9
X266.7Y-219.71
X267.97Y-53.34
X267.97Y-54.61
X267.97Y-55.88
X267.97Y-95.25
X267.97Y-96.52
X267.97Y-97.79
X267.97Y-109.22
X267.97Y-128.27
X267.97Y-151.13
X267.97Y-152.4
X267.97Y-153.67
X267.97Y-218.44
X267.97Y-219.71
T2
X33.02Y-57.04
X33.02Y-64.66
X33.02Y-69.85
X33.02Y-74.93
X40.64Y-121.92
X40.64Y-129.54
X43.18Y-57.04
X43.18Y-64.66
X43.18Y-69.85
X43.18Y-74.93
X43.18Y-121.92
X43.18Y-129.54
X45.72Y-121.92
X45.72Y-129.54
X48.26Y-121.92
X48.26Y-129.54
X50.8Y-121.92
X50.8Y-129.54
X53.34Y-121.92
X53.34Y-129.54
X54.61Y-38.1
X54.61Y-40.6
X55.88Y-121.92
X55.88Y-129.54
X57.155Y-45.72
X57.155Y-48.26
X57.155Y-50.8
X57.155Y-53.34
X57.155Y-55.88
X57.155Y-58.42
X57.155Y-60.96
X57.155Y-63.5
X57.155Y-66.04
X57.155Y-68.58
X57.155Y-71.12
X57.155Y-73.66
X57.155Y-76.2
X57.155Y-78.74
X57.155Y-81.28
X57.155Y-83.82
X57.155Y-86.36
X57.155Y-88.9
X57.155Y-91.44
X57.155Y-93.98
X58.42Y-121.92
X58.42Y-129.54
X62.23Y-162.072
X62.23Y-164.572
X62.312Y-38.1
X64.77Y-168.91
X64.77Y-171.45
X64.77Y-173.99
X64.77Y-176.53
X64.77Y-179.07
X64.77Y-181.61
X64.77Y-184.15
X64.77Y-186.69
X64.77Y-189.23
X64.77Y-191.77
X64.77Y-194.31
X64.77Y-196.85
X64.77Y-199.39
X64.77Y-201.93
X67.312Y-38.1
X69.85Y-122.174
X69.85Y-129.794
X69.85Y-161.798
X72.39Y-122.174
X72.39Y-129.794
X72.395Y-45.72
X72.395Y-48.26
X72.395Y-50.8
X72.395Y-53.34
X72.395Y-55.88
X72.395Y-58.42
X72.395Y-60.96
X72.395Y-63.5
X72.395Y-66.04
X72.395Y-68.58
X72.395Y-71.12
X72.395Y-73.66
X72.395Y-76.2
X72.395Y-78.74
X72.395Y-81.28
X72.395Y-83.82
X72.395Y-86.36
X72.395Y-88.9
X72.395Y-91.44
X72.395Y-93.98
X74.85Y-161.798
X74.93Y-38.1
X74.93Y-40.6
X74.93Y-122.174
X74.93Y-129.794
X77.47Y-122.174
X77.47Y-129.794
X78.74Y-45.72
X80.01Y-122.174
X80.01Y-129.794
X80.01Y-168.91
X80.01Y-171.45
X80.01Y-173.99
X80.01Y-176.53
X80.01Y-179.07
X80.01Y-181.61
X80.01Y-184.15
X80.01Y-186.69
X80.01Y-189.23
X80.01Y-191.77
X80.01Y-194.31
X80.01Y-196.85
X80.01Y-199.39
X80.01Y-201.93
X82.55Y-122.174
X82.55Y-129.794
X82.55Y-162.072
X82.55Y-164.572
X85.09Y-58.42
X85.09Y-60.96
X85.09Y-63.5
X85.09Y-66.04
X85.09Y-68.58
X85.09Y-71.12
X85.09Y-73.66
X85.09Y-76.2
X85.09Y-78.74
X85.09Y-81.28
X85.09Y-83.82
X85.09Y-86.36
X85.09Y-88.9
X85.09Y-91.44
X85.09Y-122.174
X85.09Y-129.794
X88.9Y-45.72
X96.52Y-121.92
X96.52Y-129.54
X99.06Y-121.92
X99.06Y-129.54
X100.33Y-58.42
X100.33Y-60.96
X100.33Y-63.5
X100.33Y-66.04
X100.33Y-68.58
X100.33Y-71.12
X100.33Y-73.66
X100.33Y-76.2
X100.33Y-78.74
X100.33Y-81.28
X100.33Y-83.82
X100.33Y-86.36
X100.33Y-88.9
X100.33Y-91.44
X101.6Y-121.92
X101.6Y-129.54
X104.14Y-121.92
X104.14Y-129.54
X106.68Y-121.92
X106.68Y-129.54
X109.22Y-121.92
X109.22Y-129.54
X110.49Y-58.42
X110.49Y-60.96
X110.49Y-63.5
X110.49Y-66.04
X110.49Y-68.58
X110.49Y-71.12
X110.49Y-73.66
X110.49Y-76.2
X110.49Y-78.74
X110.49Y-81.28
X110.49Y-83.82
X110.49Y-86.36
X110.49Y-88.9
X110.49Y-91.44
X111.76Y-121.92
X111.76Y-129.54
X114.3Y-121.92
X114.3Y-129.54
X115.506Y-158.75
X115.506Y-161.29
X115.506Y-163.83
X115.506Y-166.37
X115.506Y-168.91
X115.506Y-171.45
X115.506Y-173.99
X115.506Y-176.53
X115.506Y-179.07
X115.506Y-181.61
X115.506Y-184.15
X115.506Y-186.69
X115.506Y-189.23
X115.506Y-191.77
X115.506Y-194.31
X115.506Y-196.85
X115.506Y-199.39
X115.506Y-201.93
X115.506Y-204.47
X115.506Y-207.01
X116.84Y-121.92
X116.84Y-129.54
X119.38Y-121.92
X119.38Y-129.54
X121.92Y-121.92
X121.92Y-129.54
X124.46Y-121.92
X124.46Y-129.54
X125.73Y-58.42
X125.73Y-60.96
X125.73Y-63.5
X125.73Y-66.04
X125.73Y-68.58
X125.73Y-71.12
X125.73Y-73.66
X125.73Y-76.2
X125.73Y-78.74
X125.73Y-81.28
X125.73Y-83.82
X125.73Y-86.36
X125.73Y-88.9
X125.73Y-91.44
X130.746Y-158.75
X130.746Y-161.29
X130.746Y-163.83
X130.746Y-166.37
X130.746Y-168.91
X130.746Y-171.45
X130.746Y-173.99
X130.746Y-176.53
X130.746Y-179.07
X130.746Y-181.61
X130.746Y-184.15
X130.746Y-186.69
X130.746Y-189.23
X130.746Y-191.77
X130.746Y-194.31
X130.746Y-196.85
X130.746Y-199.39
X130.746Y-201.93
X130.746Y-204.47
X130.746Y-207.01
X135.89Y-58.42
X135.89Y-60.96
X135.89Y-63.5
X135.89Y-66.04
X135.89Y-68.58
X135.89Y-71.12
X135.89Y-73.66
X135.89Y-76.2
X135.89Y-78.74
X135.89Y-81.28
X135.89Y-83.82
X135.89Y-86.36
X135.89Y-88.9
X135.89Y-91.44
X146.05Y-110.49
X146.05Y-113.03
X146.05Y-115.57
X146.05Y-118.11
X146.05Y-120.65
X146.05Y-123.19
X146.05Y-125.73
X146.05Y-128.27
X146.05Y-130.81
X146.05Y-133.35
X146.05Y-135.89
X146.05Y-138.43
X146.05Y-140.97
X146.05Y-143.51
X151.13Y-58.42
X151.13Y-60.96
X151.13Y-63.5
X151.13Y-66.04
X151.13Y-68.58
X151.13Y-71.12
X151.13Y-73.66
X151.13Y-76.2
X151.13Y-78.74
X151.13Y-81.28
X151.13Y-83.82
X151.13Y-86.36
X151.13Y-88.9
X151.13Y-91.44
X161.29Y-58.42
X161.29Y-60.96
X161.29Y-63.5
X161.29Y-66.04
X161.29Y-68.58
X161.29Y-71.12
X161.29Y-73.66
X161.29Y-76.2
X161.29Y-78.74
X161.29Y-81.28
X161.29Y-83.82
X161.29Y-86.36
X161.29Y-88.9
X161.29Y-91.44
X161.29Y-110.49
X161.29Y-113.03
X161.29Y-115.57
X161.29Y-118.11
X161.29Y-120.65
X161.29Y-123.19
X161.29Y-125.73
X161.29Y-128.27
X161.29Y-130.81
X161.29Y-133.35
X161.29Y-135.89
X161.29Y-138.43
X161.29Y-140.97
X161.29Y-143.51
X168.767Y-158.75
X168.767Y-161.29
X168.767Y-163.83
X168.767Y-166.37
X168.767Y-168.91
X168.767Y-171.45
X168.767Y-173.99
X168.767Y-176.53
X168.767Y-179.07
X168.767Y-181.61
X168.767Y-184.15
X168.767Y-186.69
X168.767Y-189.23
X168.767Y-191.77
X168.767Y-194.31
X168.767Y-196.85
X168.767Y-199.39
X168.767Y-201.93
X168.767Y-204.47
X168.767Y-207.01
X176.53Y-58.42
X176.53Y-60.96
X176.53Y-63.5
X176.53Y-66.04
X176.53Y-68.58
X176.53Y-71.12
X176.53Y-73.66
X176.53Y-76.2
X176.53Y-78.74
X176.53Y-81.28
X176.53Y-83.82
X176.53Y-86.36
X176.53Y-88.9
X176.53Y-91.44
X176.53Y-113.03
X176.53Y-115.57
X176.53Y-118.11
X176.53Y-120.65
X176.53Y-123.19
X176.53Y-125.73
X176.53Y-128.27
X176.53Y-130.81
X176.53Y-133.35
X176.53Y-135.89
X176.53Y-138.43
X176.53Y-140.97
X184.007Y-158.75
X184.007Y-161.29
X184.007Y-163.83
X184.007Y-166.37
X184.007Y-168.91
X184.007Y-171.45
X184.007Y-173.99
X184.007Y-176.53
X184.007Y-179.07
X184.007Y-181.61
X184.007Y-184.15
X184.007Y-186.69
X184.007Y-189.23
X184.007Y-191.77
X184.007Y-194.31
X184.007Y-196.85
X184.007Y-199.39
X184.007Y-201.93
X184.007Y-204.47
X184.007Y-207.01
X186.69Y-58.42
X186.69Y-60.96
X186.69Y-63.5
X186.69Y-66.04
X186.69Y-68.58
X186.69Y-71.12
X186.69Y-73.66
X186.69Y-76.2
X186.69Y-78.74
X186.69Y-81.28
X186.69Y-83.82
X186.69Y-86.36
X186.69Y-88.9
X186.69Y-91.44
X191.77Y-113.03
X191.77Y-115.57
X191.77Y-118.11
X191.77Y-120.65
X191.77Y-123.19
X191.77Y-125.73
X191.77Y-128.27
X191.77Y-130.81
X191.77Y-133.35
X191.77Y-135.89
X191.77Y-138.43
X191.77Y-140.97
X198.12Y-113.03
X198.12Y-115.57
X198.12Y-118.11
X198.12Y-120.65
X198.12Y-123.19
X198.12Y-125.73
X198.12Y-128.27
X198.12Y-130.81
X198.12Y-133.35
X198.12Y-135.89
X198.12Y-138.43
X198.12Y-140.97
X201.93Y-58.42
X201.93Y-60.96
X201.93Y-63.5
X201.93Y-66.04
X201.93Y-68.58
X201.93Y-71.12
X201.93Y-73.66
X201.93Y-76.2
X201.93Y-78.74
X201.93Y-81.28
X201.93Y-83.82
X201.93Y-86.36
X201.93Y-88.9
X201.93Y-91.44
X212.09Y-58.42
X212.09Y-60.96
X212.09Y-63.5
X212.09Y-66.04
X212.09Y-68.58
X212.09Y-71.12
X212.09Y-73.66
X212.09Y-76.2
X212.09Y-78.74
X212.09Y-81.28
X212.09Y-83.82
X212.09Y-86.36
X212.09Y-88.9
X212.09Y-91.44
X213.36Y-113.03
X213.36Y-115.57
X213.36Y-118.11
X213.36Y-120.65
X213.36Y-123.19
X213.36Y-125.73
X213.36Y-128.27
X213.36Y-130.81
X213.36Y-133.35
X213.36Y-135.89
X213.36Y-138.43
X213.36Y-140.97
X224.79Y-158.75
X224.79Y-161.29
X224.79Y-163.83
X224.79Y-166.37
X224.79Y-168.91
X224.79Y-171.45
X224.79Y-173.99
X224.79Y-176.53
X224.79Y-179.07
X224.79Y-181.61
X224.79Y-184.15
X224.79Y-186.69
X224.79Y-189.23
X224.79Y-191.77
X224.79Y-194.31
X224.79Y-196.85
X224.79Y-199.39
X224.79Y-201.93
X224.79Y-204.47
X224.79Y-207.01
X227.33Y-58.42
X227.33Y-60.96
X227.33Y-63.5
X227.33Y-66.04
X227.33Y-68.58
X227.33Y-71.12
X227.33Y-73.66
X227.33Y-76.2
X227.33Y-78.74
X227.33Y-81.28
X227.33Y-83.82
X227.33Y-86.36
X227.33Y-88.9
X227.33Y-91.44
X232.41Y-91.44
X232.41Y-101.6
X237.49Y-91.44
X237.49Y-101.6
X240.03Y-158.75
X240.03Y-161.29
X240.03Y-163.83
X240.03Y-166.37
X240.03Y-168.91
X240.03Y-171.45
X240.03Y-173.99
X240.03Y-176.53
X240.03Y-179.07
X240.03Y-181.61
X240.03Y-184.15
X240.03Y-186.69
X240.03Y-189.23
X240.03Y-191.77
X240.03Y-194.31
X240.03Y-196.85
X240.03Y-199.39
X240.03Y-201.93
X240.03Y-204.47
X240.03Y-207.01
X242.57Y-58.42
X242.57Y-60.96
X242.57Y-63.5
X242.57Y-66.04
X242.57Y-68.58
X242.57Y-71.12
X242.57Y-73.66
X242.57Y-76.2
X242.57Y-78.74
X242.57Y-81.28
X242.57Y-83.82
X242.57Y-86.36
X242.57Y-88.9
X242.57Y-91.44
X257.81Y-58.42
X257.81Y-60.96
X257.81Y-63.5
X257.81Y-66.04
X257.81Y-68.58
X257.81Y-71.12
X257.81Y-73.66
X257.81Y-76.2
X257.81Y-78.74
X257.81Y-81.28
X257.81Y-83.82
X257.81Y-86.36
X257.81Y-88.9
X257.81Y-91.44
T3
X43.18Y-184.15
X43.18Y-186.69
X43.18Y-189.23
X50.8Y-55.96
X50.8Y-60.96
X50.8Y-184.15
X50.8Y-186.69
X50.8Y-189.23
X50.8Y-191.77
X50.8Y-194.31
X50.8Y-196.85
X50.8Y-199.39
X50.8Y-201.93
X69.89Y-209.55
X74.89Y-209.55
X90.17Y-99.06
X91.44Y-158.75
X91.44Y-161.29
X91.44Y-163.83
X91.44Y-166.37
X91.44Y-168.91
X91.44Y-171.45
X91.44Y-173.99
X91.44Y-176.53
X91.44Y-179.07
X91.44Y-181.61
X91.44Y-184.15
X91.44Y-186.69
X95.17Y-99.06
X101.6Y-179.07
X101.6Y-181.61
X101.6Y-184.15
X101.6Y-186.69
X101.6Y-189.23
X101.6Y-191.77
X101.6Y-194.31
X101.6Y-196.85
X101.6Y-199.39
X101.6Y-201.93
X101.6Y-204.47
X101.6Y-207.01
X104.14Y-145.034
X106.68Y-145.034
X109.22Y-145.034
X111.76Y-145.034
X114.3Y-113.792
X114.3Y-145.034
X115.65Y-99.06
X116.84Y-113.792
X119.38Y-113.792
X120.476Y-212.09
X120.65Y-99.06
X121.92Y-113.792
X124.46Y-113.792
X125.476Y-212.09
X141.05Y-99.06
X144.526Y-158.75
X144.526Y-161.29
X144.526Y-163.83
X144.526Y-166.37
X144.526Y-168.91
X144.526Y-171.45
X144.526Y-173.99
X144.526Y-176.53
X144.526Y-179.07
X144.526Y-181.61
X144.526Y-184.15
X144.526Y-186.69
X146.05Y-99.06
X151.21Y-148.59
X154.94Y-179.07
X154.94Y-181.61
X154.94Y-184.15
X154.94Y-186.69
X154.94Y-189.23
X154.94Y-191.77
X154.94Y-194.31
X154.94Y-196.85
X154.94Y-199.39
X154.94Y-201.93
X154.94Y-204.47
X154.94Y-207.01
X156.21Y-148.59
X166.45Y-99.06
X171.45Y-99.06
X173.927Y-212.09
X178.927Y-212.09
X181.69Y-148.59
X186.69Y-148.59
X191.81Y-99.06
X196.81Y-99.06
X200.66Y-158.75
X200.66Y-161.29
X200.66Y-163.83
X200.66Y-166.37
X200.66Y-168.91
X200.66Y-171.45
X200.66Y-173.99
X200.66Y-176.53
X200.66Y-179.07
X200.66Y-181.61
X200.66Y-184.15
X200.66Y-186.69
X203.2Y-148.59
X208.2Y-148.59
X210.82Y-179.07
X210.82Y-181.61
X210.82Y-184.15
X210.82Y-186.69
X210.82Y-189.23
X210.82Y-191.77
X210.82Y-194.31
X210.82Y-196.85
X210.82Y-199.39
X210.82Y-201.93
X210.82Y-204.47
X210.82Y-207.01
X217.25Y-99.06
X222.25Y-99.06
X229.95Y-212.09
X234.95Y-212.09
X237.49Y-109.22
X237.49Y-111.76
X237.49Y-114.3
X237.49Y-116.84
X237.49Y-119.38
X237.49Y-121.92
X237.49Y-128.27
X237.49Y-130.81
X237.49Y-133.35
X237.49Y-135.89
X237.49Y-138.43
X237.49Y-140.97
X247.73Y-99.06
X249.174Y-109.22
X249.174Y-111.76
X249.174Y-114.3
X249.174Y-128.27
X249.174Y-130.81
X249.174Y-133.35
X250.698Y-166.37
X250.698Y-168.91
X250.698Y-171.45
X250.698Y-173.99
X250.698Y-176.53
X250.698Y-179.07
X250.698Y-181.61
X250.698Y-184.15
X250.698Y-186.69
X250.698Y-189.23
X250.698Y-191.77
X250.698Y-194.31
X250.698Y-196.85
X250.698Y-199.39
X250.698Y-201.93
X250.698Y-204.47
X250.698Y-207.01
X252.73Y-99.06
T4
X31.75Y-219.71
X41.91Y-215.9
X43.18Y-32.8
X43.18Y-50.8
T5
X35.565Y-32.905
X35.565Y-39.405
X248.92Y-40.64
X248.92Y-45.72
M30
