G04 #@! TF.GenerationSoftware,KiCad,Pcbnew,8.0.7*
G04 #@! TF.CreationDate,2025-01-05T11:59:37+01:00*
G04 #@! TF.ProjectId,CPU_X-3,4350555f-582d-4332-9e6b-696361645f70,2*
G04 #@! TF.SameCoordinates,Original*
G04 #@! TF.FileFunction,Legend,Bot*
G04 #@! TF.FilePolarity,Positive*
%FSLAX46Y46*%
G04 Gerber Fmt 4.6, Leading zero omitted, Abs format (unit mm)*
G04 Created by KiCad (PCBNEW 8.0.7) date 2025-01-05 11:59:37*
%MOMM*%
%LPD*%
G01*
G04 APERTURE LIST*
G04 Aperture macros list*
%AMFreePoly0*
4,1,19,0.500000,-0.750000,0.000000,-0.750000,0.000000,-0.744911,-0.071157,-0.744911,-0.207708,-0.704816,-0.327430,-0.627875,-0.420627,-0.520320,-0.479746,-0.390866,-0.500000,-0.250000,-0.500000,0.250000,-0.479746,0.390866,-0.420627,0.520320,-0.327430,0.627875,-0.207708,0.704816,-0.071157,0.744911,0.000000,0.744911,0.000000,0.750000,0.500000,0.750000,0.500000,-0.750000,0.500000,-0.750000,
$1*%
%AMFreePoly1*
4,1,19,0.000000,0.744911,0.071157,0.744911,0.207708,0.704816,0.327430,0.627875,0.420627,0.520320,0.479746,0.390866,0.500000,0.250000,0.500000,-0.250000,0.479746,-0.390866,0.420627,-0.520320,0.327430,-0.627875,0.207708,-0.704816,0.071157,-0.744911,0.000000,-0.744911,0.000000,-0.750000,-0.500000,-0.750000,-0.500000,0.750000,0.000000,0.750000,0.000000,0.744911,0.000000,0.744911,
$1*%
G04 Aperture macros list end*
%ADD10C,0.150000*%
%ADD11C,0.120000*%
%ADD12C,2.000000*%
%ADD13R,1.700000X1.700000*%
%ADD14O,1.700000X1.700000*%
%ADD15C,1.600000*%
%ADD16O,1.600000X1.600000*%
%ADD17R,1.600000X1.600000*%
%ADD18C,2.400000*%
%ADD19R,2.400000X1.600000*%
%ADD20O,2.400000X1.600000*%
%ADD21C,1.500000*%
%ADD22R,1.600000X2.400000*%
%ADD23O,1.600000X2.400000*%
%ADD24R,2.500000X2.500000*%
%ADD25C,2.500000*%
%ADD26R,2.400000X2.400000*%
%ADD27O,2.400000X2.400000*%
%ADD28R,2.250000X2.250000*%
%ADD29C,2.250000*%
%ADD30R,1.000000X1.500000*%
%ADD31FreePoly0,270.000000*%
%ADD32FreePoly1,270.000000*%
%ADD33R,1.500000X1.500000*%
G04 APERTURE END LIST*
D10*
X234624381Y-138884819D02*
X234957714Y-138408628D01*
X235195809Y-138884819D02*
X235195809Y-137884819D01*
X235195809Y-137884819D02*
X234814857Y-137884819D01*
X234814857Y-137884819D02*
X234719619Y-137932438D01*
X234719619Y-137932438D02*
X234672000Y-137980057D01*
X234672000Y-137980057D02*
X234624381Y-138075295D01*
X234624381Y-138075295D02*
X234624381Y-138218152D01*
X234624381Y-138218152D02*
X234672000Y-138313390D01*
X234672000Y-138313390D02*
X234719619Y-138361009D01*
X234719619Y-138361009D02*
X234814857Y-138408628D01*
X234814857Y-138408628D02*
X235195809Y-138408628D01*
X234291047Y-138884819D02*
X233767238Y-138218152D01*
X234291047Y-138218152D02*
X233767238Y-138884819D01*
X233386285Y-138884819D02*
X233386285Y-137884819D01*
X233386285Y-137884819D02*
X233148190Y-137884819D01*
X233148190Y-137884819D02*
X233005333Y-137932438D01*
X233005333Y-137932438D02*
X232910095Y-138027676D01*
X232910095Y-138027676D02*
X232862476Y-138122914D01*
X232862476Y-138122914D02*
X232814857Y-138313390D01*
X232814857Y-138313390D02*
X232814857Y-138456247D01*
X232814857Y-138456247D02*
X232862476Y-138646723D01*
X232862476Y-138646723D02*
X232910095Y-138741961D01*
X232910095Y-138741961D02*
X233005333Y-138837200D01*
X233005333Y-138837200D02*
X233148190Y-138884819D01*
X233148190Y-138884819D02*
X233386285Y-138884819D01*
X232624381Y-138980057D02*
X231862476Y-138980057D01*
X231671999Y-137980057D02*
X231624380Y-137932438D01*
X231624380Y-137932438D02*
X231529142Y-137884819D01*
X231529142Y-137884819D02*
X231291047Y-137884819D01*
X231291047Y-137884819D02*
X231195809Y-137932438D01*
X231195809Y-137932438D02*
X231148190Y-137980057D01*
X231148190Y-137980057D02*
X231100571Y-138075295D01*
X231100571Y-138075295D02*
X231100571Y-138170533D01*
X231100571Y-138170533D02*
X231148190Y-138313390D01*
X231148190Y-138313390D02*
X231719618Y-138884819D01*
X231719618Y-138884819D02*
X231100571Y-138884819D01*
X235291047Y-141424819D02*
X235291047Y-140424819D01*
X235291047Y-140424819D02*
X235052952Y-140424819D01*
X235052952Y-140424819D02*
X234910095Y-140472438D01*
X234910095Y-140472438D02*
X234814857Y-140567676D01*
X234814857Y-140567676D02*
X234767238Y-140662914D01*
X234767238Y-140662914D02*
X234719619Y-140853390D01*
X234719619Y-140853390D02*
X234719619Y-140996247D01*
X234719619Y-140996247D02*
X234767238Y-141186723D01*
X234767238Y-141186723D02*
X234814857Y-141281961D01*
X234814857Y-141281961D02*
X234910095Y-141377200D01*
X234910095Y-141377200D02*
X235052952Y-141424819D01*
X235052952Y-141424819D02*
X235291047Y-141424819D01*
X233719619Y-141329580D02*
X233767238Y-141377200D01*
X233767238Y-141377200D02*
X233910095Y-141424819D01*
X233910095Y-141424819D02*
X234005333Y-141424819D01*
X234005333Y-141424819D02*
X234148190Y-141377200D01*
X234148190Y-141377200D02*
X234243428Y-141281961D01*
X234243428Y-141281961D02*
X234291047Y-141186723D01*
X234291047Y-141186723D02*
X234338666Y-140996247D01*
X234338666Y-140996247D02*
X234338666Y-140853390D01*
X234338666Y-140853390D02*
X234291047Y-140662914D01*
X234291047Y-140662914D02*
X234243428Y-140567676D01*
X234243428Y-140567676D02*
X234148190Y-140472438D01*
X234148190Y-140472438D02*
X234005333Y-140424819D01*
X234005333Y-140424819D02*
X233910095Y-140424819D01*
X233910095Y-140424819D02*
X233767238Y-140472438D01*
X233767238Y-140472438D02*
X233719619Y-140520057D01*
X233291047Y-141424819D02*
X233291047Y-140424819D01*
X233291047Y-140424819D02*
X233052952Y-140424819D01*
X233052952Y-140424819D02*
X232910095Y-140472438D01*
X232910095Y-140472438D02*
X232814857Y-140567676D01*
X232814857Y-140567676D02*
X232767238Y-140662914D01*
X232767238Y-140662914D02*
X232719619Y-140853390D01*
X232719619Y-140853390D02*
X232719619Y-140996247D01*
X232719619Y-140996247D02*
X232767238Y-141186723D01*
X232767238Y-141186723D02*
X232814857Y-141281961D01*
X232814857Y-141281961D02*
X232910095Y-141377200D01*
X232910095Y-141377200D02*
X233052952Y-141424819D01*
X233052952Y-141424819D02*
X233291047Y-141424819D01*
X235429143Y-140147200D02*
X232629143Y-140147200D01*
X232529143Y-141520057D02*
X231767238Y-141520057D01*
X231576761Y-140520057D02*
X231529142Y-140472438D01*
X231529142Y-140472438D02*
X231433904Y-140424819D01*
X231433904Y-140424819D02*
X231195809Y-140424819D01*
X231195809Y-140424819D02*
X231100571Y-140472438D01*
X231100571Y-140472438D02*
X231052952Y-140520057D01*
X231052952Y-140520057D02*
X231005333Y-140615295D01*
X231005333Y-140615295D02*
X231005333Y-140710533D01*
X231005333Y-140710533D02*
X231052952Y-140853390D01*
X231052952Y-140853390D02*
X231624380Y-141424819D01*
X231624380Y-141424819D02*
X231005333Y-141424819D01*
X62611618Y-191224819D02*
X62040190Y-191224819D01*
X62325904Y-192224819D02*
X62325904Y-191224819D01*
X61802094Y-192224819D02*
X61278285Y-191558152D01*
X61802094Y-191558152D02*
X61278285Y-192224819D01*
X60897332Y-192224819D02*
X60897332Y-191224819D01*
X60897332Y-191224819D02*
X60659237Y-191224819D01*
X60659237Y-191224819D02*
X60516380Y-191272438D01*
X60516380Y-191272438D02*
X60421142Y-191367676D01*
X60421142Y-191367676D02*
X60373523Y-191462914D01*
X60373523Y-191462914D02*
X60325904Y-191653390D01*
X60325904Y-191653390D02*
X60325904Y-191796247D01*
X60325904Y-191796247D02*
X60373523Y-191986723D01*
X60373523Y-191986723D02*
X60421142Y-192081961D01*
X60421142Y-192081961D02*
X60516380Y-192177200D01*
X60516380Y-192177200D02*
X60659237Y-192224819D01*
X60659237Y-192224819D02*
X60897332Y-192224819D01*
X60135428Y-192320057D02*
X59373523Y-192320057D01*
X59230665Y-191224819D02*
X58611618Y-191224819D01*
X58611618Y-191224819D02*
X58944951Y-191605771D01*
X58944951Y-191605771D02*
X58802094Y-191605771D01*
X58802094Y-191605771D02*
X58706856Y-191653390D01*
X58706856Y-191653390D02*
X58659237Y-191701009D01*
X58659237Y-191701009D02*
X58611618Y-191796247D01*
X58611618Y-191796247D02*
X58611618Y-192034342D01*
X58611618Y-192034342D02*
X58659237Y-192129580D01*
X58659237Y-192129580D02*
X58706856Y-192177200D01*
X58706856Y-192177200D02*
X58802094Y-192224819D01*
X58802094Y-192224819D02*
X59087808Y-192224819D01*
X59087808Y-192224819D02*
X59183046Y-192177200D01*
X59183046Y-192177200D02*
X59230665Y-192129580D01*
X235219618Y-130264819D02*
X234648190Y-130264819D01*
X234933904Y-131264819D02*
X234933904Y-130264819D01*
X234410094Y-131264819D02*
X233886285Y-130598152D01*
X234410094Y-130598152D02*
X233886285Y-131264819D01*
X233505332Y-131264819D02*
X233505332Y-130264819D01*
X233505332Y-130264819D02*
X233267237Y-130264819D01*
X233267237Y-130264819D02*
X233124380Y-130312438D01*
X233124380Y-130312438D02*
X233029142Y-130407676D01*
X233029142Y-130407676D02*
X232981523Y-130502914D01*
X232981523Y-130502914D02*
X232933904Y-130693390D01*
X232933904Y-130693390D02*
X232933904Y-130836247D01*
X232933904Y-130836247D02*
X232981523Y-131026723D01*
X232981523Y-131026723D02*
X233029142Y-131121961D01*
X233029142Y-131121961D02*
X233124380Y-131217200D01*
X233124380Y-131217200D02*
X233267237Y-131264819D01*
X233267237Y-131264819D02*
X233505332Y-131264819D01*
X232743428Y-131360057D02*
X231981523Y-131360057D01*
X231791046Y-130360057D02*
X231743427Y-130312438D01*
X231743427Y-130312438D02*
X231648189Y-130264819D01*
X231648189Y-130264819D02*
X231410094Y-130264819D01*
X231410094Y-130264819D02*
X231314856Y-130312438D01*
X231314856Y-130312438D02*
X231267237Y-130360057D01*
X231267237Y-130360057D02*
X231219618Y-130455295D01*
X231219618Y-130455295D02*
X231219618Y-130550533D01*
X231219618Y-130550533D02*
X231267237Y-130693390D01*
X231267237Y-130693390D02*
X231838665Y-131264819D01*
X231838665Y-131264819D02*
X231219618Y-131264819D01*
X235433047Y-122374819D02*
X235433047Y-121374819D01*
X235433047Y-121374819D02*
X235194952Y-121374819D01*
X235194952Y-121374819D02*
X235052095Y-121422438D01*
X235052095Y-121422438D02*
X234956857Y-121517676D01*
X234956857Y-121517676D02*
X234909238Y-121612914D01*
X234909238Y-121612914D02*
X234861619Y-121803390D01*
X234861619Y-121803390D02*
X234861619Y-121946247D01*
X234861619Y-121946247D02*
X234909238Y-122136723D01*
X234909238Y-122136723D02*
X234956857Y-122231961D01*
X234956857Y-122231961D02*
X235052095Y-122327200D01*
X235052095Y-122327200D02*
X235194952Y-122374819D01*
X235194952Y-122374819D02*
X235433047Y-122374819D01*
X233861619Y-122279580D02*
X233909238Y-122327200D01*
X233909238Y-122327200D02*
X234052095Y-122374819D01*
X234052095Y-122374819D02*
X234147333Y-122374819D01*
X234147333Y-122374819D02*
X234290190Y-122327200D01*
X234290190Y-122327200D02*
X234385428Y-122231961D01*
X234385428Y-122231961D02*
X234433047Y-122136723D01*
X234433047Y-122136723D02*
X234480666Y-121946247D01*
X234480666Y-121946247D02*
X234480666Y-121803390D01*
X234480666Y-121803390D02*
X234433047Y-121612914D01*
X234433047Y-121612914D02*
X234385428Y-121517676D01*
X234385428Y-121517676D02*
X234290190Y-121422438D01*
X234290190Y-121422438D02*
X234147333Y-121374819D01*
X234147333Y-121374819D02*
X234052095Y-121374819D01*
X234052095Y-121374819D02*
X233909238Y-121422438D01*
X233909238Y-121422438D02*
X233861619Y-121470057D01*
X233433047Y-122374819D02*
X233433047Y-121374819D01*
X233433047Y-121374819D02*
X233194952Y-121374819D01*
X233194952Y-121374819D02*
X233052095Y-121422438D01*
X233052095Y-121422438D02*
X232956857Y-121517676D01*
X232956857Y-121517676D02*
X232909238Y-121612914D01*
X232909238Y-121612914D02*
X232861619Y-121803390D01*
X232861619Y-121803390D02*
X232861619Y-121946247D01*
X232861619Y-121946247D02*
X232909238Y-122136723D01*
X232909238Y-122136723D02*
X232956857Y-122231961D01*
X232956857Y-122231961D02*
X233052095Y-122327200D01*
X233052095Y-122327200D02*
X233194952Y-122374819D01*
X233194952Y-122374819D02*
X233433047Y-122374819D01*
X235571143Y-121097200D02*
X232771143Y-121097200D01*
X232671143Y-122470057D02*
X231909238Y-122470057D01*
X231147333Y-122374819D02*
X231718761Y-122374819D01*
X231433047Y-122374819D02*
X231433047Y-121374819D01*
X231433047Y-121374819D02*
X231528285Y-121517676D01*
X231528285Y-121517676D02*
X231623523Y-121612914D01*
X231623523Y-121612914D02*
X231718761Y-121660533D01*
X61856762Y-189589580D02*
X61904381Y-189637200D01*
X61904381Y-189637200D02*
X62047238Y-189684819D01*
X62047238Y-189684819D02*
X62142476Y-189684819D01*
X62142476Y-189684819D02*
X62285333Y-189637200D01*
X62285333Y-189637200D02*
X62380571Y-189541961D01*
X62380571Y-189541961D02*
X62428190Y-189446723D01*
X62428190Y-189446723D02*
X62475809Y-189256247D01*
X62475809Y-189256247D02*
X62475809Y-189113390D01*
X62475809Y-189113390D02*
X62428190Y-188922914D01*
X62428190Y-188922914D02*
X62380571Y-188827676D01*
X62380571Y-188827676D02*
X62285333Y-188732438D01*
X62285333Y-188732438D02*
X62142476Y-188684819D01*
X62142476Y-188684819D02*
X62047238Y-188684819D01*
X62047238Y-188684819D02*
X61904381Y-188732438D01*
X61904381Y-188732438D02*
X61856762Y-188780057D01*
X61571047Y-188684819D02*
X60999619Y-188684819D01*
X61285333Y-189684819D02*
X61285333Y-188684819D01*
X60713904Y-189637200D02*
X60571047Y-189684819D01*
X60571047Y-189684819D02*
X60332952Y-189684819D01*
X60332952Y-189684819D02*
X60237714Y-189637200D01*
X60237714Y-189637200D02*
X60190095Y-189589580D01*
X60190095Y-189589580D02*
X60142476Y-189494342D01*
X60142476Y-189494342D02*
X60142476Y-189399104D01*
X60142476Y-189399104D02*
X60190095Y-189303866D01*
X60190095Y-189303866D02*
X60237714Y-189256247D01*
X60237714Y-189256247D02*
X60332952Y-189208628D01*
X60332952Y-189208628D02*
X60523428Y-189161009D01*
X60523428Y-189161009D02*
X60618666Y-189113390D01*
X60618666Y-189113390D02*
X60666285Y-189065771D01*
X60666285Y-189065771D02*
X60713904Y-188970533D01*
X60713904Y-188970533D02*
X60713904Y-188875295D01*
X60713904Y-188875295D02*
X60666285Y-188780057D01*
X60666285Y-188780057D02*
X60618666Y-188732438D01*
X60618666Y-188732438D02*
X60523428Y-188684819D01*
X60523428Y-188684819D02*
X60285333Y-188684819D01*
X60285333Y-188684819D02*
X60142476Y-188732438D01*
X62566286Y-188407200D02*
X60052000Y-188407200D01*
X59952000Y-189780057D02*
X59190095Y-189780057D01*
X59047237Y-188684819D02*
X58428190Y-188684819D01*
X58428190Y-188684819D02*
X58761523Y-189065771D01*
X58761523Y-189065771D02*
X58618666Y-189065771D01*
X58618666Y-189065771D02*
X58523428Y-189113390D01*
X58523428Y-189113390D02*
X58475809Y-189161009D01*
X58475809Y-189161009D02*
X58428190Y-189256247D01*
X58428190Y-189256247D02*
X58428190Y-189494342D01*
X58428190Y-189494342D02*
X58475809Y-189589580D01*
X58475809Y-189589580D02*
X58523428Y-189637200D01*
X58523428Y-189637200D02*
X58618666Y-189684819D01*
X58618666Y-189684819D02*
X58904380Y-189684819D01*
X58904380Y-189684819D02*
X58999618Y-189637200D01*
X58999618Y-189637200D02*
X59047237Y-189589580D01*
X62451999Y-194764819D02*
X62451999Y-193764819D01*
X62451999Y-193764819D02*
X62213904Y-193764819D01*
X62213904Y-193764819D02*
X62071047Y-193812438D01*
X62071047Y-193812438D02*
X61975809Y-193907676D01*
X61975809Y-193907676D02*
X61928190Y-194002914D01*
X61928190Y-194002914D02*
X61880571Y-194193390D01*
X61880571Y-194193390D02*
X61880571Y-194336247D01*
X61880571Y-194336247D02*
X61928190Y-194526723D01*
X61928190Y-194526723D02*
X61975809Y-194621961D01*
X61975809Y-194621961D02*
X62071047Y-194717200D01*
X62071047Y-194717200D02*
X62213904Y-194764819D01*
X62213904Y-194764819D02*
X62451999Y-194764819D01*
X61594856Y-193764819D02*
X61023428Y-193764819D01*
X61309142Y-194764819D02*
X61309142Y-193764819D01*
X60118666Y-194764819D02*
X60451999Y-194288628D01*
X60690094Y-194764819D02*
X60690094Y-193764819D01*
X60690094Y-193764819D02*
X60309142Y-193764819D01*
X60309142Y-193764819D02*
X60213904Y-193812438D01*
X60213904Y-193812438D02*
X60166285Y-193860057D01*
X60166285Y-193860057D02*
X60118666Y-193955295D01*
X60118666Y-193955295D02*
X60118666Y-194098152D01*
X60118666Y-194098152D02*
X60166285Y-194193390D01*
X60166285Y-194193390D02*
X60213904Y-194241009D01*
X60213904Y-194241009D02*
X60309142Y-194288628D01*
X60309142Y-194288628D02*
X60690094Y-194288628D01*
X62590095Y-193487200D02*
X60028190Y-193487200D01*
X59928190Y-194860057D02*
X59166285Y-194860057D01*
X58404380Y-194764819D02*
X58975808Y-194764819D01*
X58690094Y-194764819D02*
X58690094Y-193764819D01*
X58690094Y-193764819D02*
X58785332Y-193907676D01*
X58785332Y-193907676D02*
X58880570Y-194002914D01*
X58880570Y-194002914D02*
X58975808Y-194050533D01*
X235219618Y-111214819D02*
X234648190Y-111214819D01*
X234933904Y-112214819D02*
X234933904Y-111214819D01*
X234410094Y-112214819D02*
X233886285Y-111548152D01*
X234410094Y-111548152D02*
X233886285Y-112214819D01*
X233505332Y-112214819D02*
X233505332Y-111214819D01*
X233505332Y-111214819D02*
X233267237Y-111214819D01*
X233267237Y-111214819D02*
X233124380Y-111262438D01*
X233124380Y-111262438D02*
X233029142Y-111357676D01*
X233029142Y-111357676D02*
X232981523Y-111452914D01*
X232981523Y-111452914D02*
X232933904Y-111643390D01*
X232933904Y-111643390D02*
X232933904Y-111786247D01*
X232933904Y-111786247D02*
X232981523Y-111976723D01*
X232981523Y-111976723D02*
X233029142Y-112071961D01*
X233029142Y-112071961D02*
X233124380Y-112167200D01*
X233124380Y-112167200D02*
X233267237Y-112214819D01*
X233267237Y-112214819D02*
X233505332Y-112214819D01*
X232743428Y-112310057D02*
X231981523Y-112310057D01*
X231219618Y-112214819D02*
X231791046Y-112214819D01*
X231505332Y-112214819D02*
X231505332Y-111214819D01*
X231505332Y-111214819D02*
X231600570Y-111357676D01*
X231600570Y-111357676D02*
X231695808Y-111452914D01*
X231695808Y-111452914D02*
X231791046Y-111500533D01*
X67405238Y-56938057D02*
X67500476Y-56890438D01*
X67500476Y-56890438D02*
X67595714Y-56795200D01*
X67595714Y-56795200D02*
X67738571Y-56652342D01*
X67738571Y-56652342D02*
X67833809Y-56604723D01*
X67833809Y-56604723D02*
X67929047Y-56604723D01*
X67881428Y-56842819D02*
X67976666Y-56795200D01*
X67976666Y-56795200D02*
X68071904Y-56699961D01*
X68071904Y-56699961D02*
X68119523Y-56509485D01*
X68119523Y-56509485D02*
X68119523Y-56176152D01*
X68119523Y-56176152D02*
X68071904Y-55985676D01*
X68071904Y-55985676D02*
X67976666Y-55890438D01*
X67976666Y-55890438D02*
X67881428Y-55842819D01*
X67881428Y-55842819D02*
X67690952Y-55842819D01*
X67690952Y-55842819D02*
X67595714Y-55890438D01*
X67595714Y-55890438D02*
X67500476Y-55985676D01*
X67500476Y-55985676D02*
X67452857Y-56176152D01*
X67452857Y-56176152D02*
X67452857Y-56509485D01*
X67452857Y-56509485D02*
X67500476Y-56699961D01*
X67500476Y-56699961D02*
X67595714Y-56795200D01*
X67595714Y-56795200D02*
X67690952Y-56842819D01*
X67690952Y-56842819D02*
X67881428Y-56842819D01*
X66500476Y-56842819D02*
X67071904Y-56842819D01*
X66786190Y-56842819D02*
X66786190Y-55842819D01*
X66786190Y-55842819D02*
X66881428Y-55985676D01*
X66881428Y-55985676D02*
X66976666Y-56080914D01*
X66976666Y-56080914D02*
X67071904Y-56128533D01*
X63063333Y-58859009D02*
X62920476Y-58906628D01*
X62920476Y-58906628D02*
X62872857Y-58954247D01*
X62872857Y-58954247D02*
X62825238Y-59049485D01*
X62825238Y-59049485D02*
X62825238Y-59192342D01*
X62825238Y-59192342D02*
X62872857Y-59287580D01*
X62872857Y-59287580D02*
X62920476Y-59335200D01*
X62920476Y-59335200D02*
X63015714Y-59382819D01*
X63015714Y-59382819D02*
X63396666Y-59382819D01*
X63396666Y-59382819D02*
X63396666Y-58382819D01*
X63396666Y-58382819D02*
X63063333Y-58382819D01*
X63063333Y-58382819D02*
X62968095Y-58430438D01*
X62968095Y-58430438D02*
X62920476Y-58478057D01*
X62920476Y-58478057D02*
X62872857Y-58573295D01*
X62872857Y-58573295D02*
X62872857Y-58668533D01*
X62872857Y-58668533D02*
X62920476Y-58763771D01*
X62920476Y-58763771D02*
X62968095Y-58811390D01*
X62968095Y-58811390D02*
X63063333Y-58859009D01*
X63063333Y-58859009D02*
X63396666Y-58859009D01*
X62444285Y-59097104D02*
X61968095Y-59097104D01*
X62539523Y-59382819D02*
X62206190Y-58382819D01*
X62206190Y-58382819D02*
X61872857Y-59382819D01*
X61015714Y-59382819D02*
X61587142Y-59382819D01*
X61301428Y-59382819D02*
X61301428Y-58382819D01*
X61301428Y-58382819D02*
X61396666Y-58525676D01*
X61396666Y-58525676D02*
X61491904Y-58620914D01*
X61491904Y-58620914D02*
X61587142Y-58668533D01*
X234718762Y-117199580D02*
X234766381Y-117247200D01*
X234766381Y-117247200D02*
X234909238Y-117294819D01*
X234909238Y-117294819D02*
X235004476Y-117294819D01*
X235004476Y-117294819D02*
X235147333Y-117247200D01*
X235147333Y-117247200D02*
X235242571Y-117151961D01*
X235242571Y-117151961D02*
X235290190Y-117056723D01*
X235290190Y-117056723D02*
X235337809Y-116866247D01*
X235337809Y-116866247D02*
X235337809Y-116723390D01*
X235337809Y-116723390D02*
X235290190Y-116532914D01*
X235290190Y-116532914D02*
X235242571Y-116437676D01*
X235242571Y-116437676D02*
X235147333Y-116342438D01*
X235147333Y-116342438D02*
X235004476Y-116294819D01*
X235004476Y-116294819D02*
X234909238Y-116294819D01*
X234909238Y-116294819D02*
X234766381Y-116342438D01*
X234766381Y-116342438D02*
X234718762Y-116390057D01*
X234433047Y-116294819D02*
X233861619Y-116294819D01*
X234147333Y-117294819D02*
X234147333Y-116294819D01*
X233575904Y-117247200D02*
X233433047Y-117294819D01*
X233433047Y-117294819D02*
X233194952Y-117294819D01*
X233194952Y-117294819D02*
X233099714Y-117247200D01*
X233099714Y-117247200D02*
X233052095Y-117199580D01*
X233052095Y-117199580D02*
X233004476Y-117104342D01*
X233004476Y-117104342D02*
X233004476Y-117009104D01*
X233004476Y-117009104D02*
X233052095Y-116913866D01*
X233052095Y-116913866D02*
X233099714Y-116866247D01*
X233099714Y-116866247D02*
X233194952Y-116818628D01*
X233194952Y-116818628D02*
X233385428Y-116771009D01*
X233385428Y-116771009D02*
X233480666Y-116723390D01*
X233480666Y-116723390D02*
X233528285Y-116675771D01*
X233528285Y-116675771D02*
X233575904Y-116580533D01*
X233575904Y-116580533D02*
X233575904Y-116485295D01*
X233575904Y-116485295D02*
X233528285Y-116390057D01*
X233528285Y-116390057D02*
X233480666Y-116342438D01*
X233480666Y-116342438D02*
X233385428Y-116294819D01*
X233385428Y-116294819D02*
X233147333Y-116294819D01*
X233147333Y-116294819D02*
X233004476Y-116342438D01*
X235428286Y-116017200D02*
X232914000Y-116017200D01*
X232814000Y-117390057D02*
X232052095Y-117390057D01*
X231290190Y-117294819D02*
X231861618Y-117294819D01*
X231575904Y-117294819D02*
X231575904Y-116294819D01*
X231575904Y-116294819D02*
X231671142Y-116437676D01*
X231671142Y-116437676D02*
X231766380Y-116532914D01*
X231766380Y-116532914D02*
X231861618Y-116580533D01*
X61904381Y-199844819D02*
X62237714Y-199368628D01*
X62475809Y-199844819D02*
X62475809Y-198844819D01*
X62475809Y-198844819D02*
X62094857Y-198844819D01*
X62094857Y-198844819D02*
X61999619Y-198892438D01*
X61999619Y-198892438D02*
X61952000Y-198940057D01*
X61952000Y-198940057D02*
X61904381Y-199035295D01*
X61904381Y-199035295D02*
X61904381Y-199178152D01*
X61904381Y-199178152D02*
X61952000Y-199273390D01*
X61952000Y-199273390D02*
X61999619Y-199321009D01*
X61999619Y-199321009D02*
X62094857Y-199368628D01*
X62094857Y-199368628D02*
X62475809Y-199368628D01*
X61571047Y-199844819D02*
X61047238Y-199178152D01*
X61571047Y-199178152D02*
X61047238Y-199844819D01*
X60666285Y-199844819D02*
X60666285Y-198844819D01*
X60666285Y-198844819D02*
X60428190Y-198844819D01*
X60428190Y-198844819D02*
X60285333Y-198892438D01*
X60285333Y-198892438D02*
X60190095Y-198987676D01*
X60190095Y-198987676D02*
X60142476Y-199082914D01*
X60142476Y-199082914D02*
X60094857Y-199273390D01*
X60094857Y-199273390D02*
X60094857Y-199416247D01*
X60094857Y-199416247D02*
X60142476Y-199606723D01*
X60142476Y-199606723D02*
X60190095Y-199701961D01*
X60190095Y-199701961D02*
X60285333Y-199797200D01*
X60285333Y-199797200D02*
X60428190Y-199844819D01*
X60428190Y-199844819D02*
X60666285Y-199844819D01*
X59904381Y-199940057D02*
X59142476Y-199940057D01*
X58999618Y-198844819D02*
X58380571Y-198844819D01*
X58380571Y-198844819D02*
X58713904Y-199225771D01*
X58713904Y-199225771D02*
X58571047Y-199225771D01*
X58571047Y-199225771D02*
X58475809Y-199273390D01*
X58475809Y-199273390D02*
X58428190Y-199321009D01*
X58428190Y-199321009D02*
X58380571Y-199416247D01*
X58380571Y-199416247D02*
X58380571Y-199654342D01*
X58380571Y-199654342D02*
X58428190Y-199749580D01*
X58428190Y-199749580D02*
X58475809Y-199797200D01*
X58475809Y-199797200D02*
X58571047Y-199844819D01*
X58571047Y-199844819D02*
X58856761Y-199844819D01*
X58856761Y-199844819D02*
X58951999Y-199797200D01*
X58951999Y-199797200D02*
X58999618Y-199749580D01*
X61856762Y-187144819D02*
X62190095Y-186668628D01*
X62428190Y-187144819D02*
X62428190Y-186144819D01*
X62428190Y-186144819D02*
X62047238Y-186144819D01*
X62047238Y-186144819D02*
X61952000Y-186192438D01*
X61952000Y-186192438D02*
X61904381Y-186240057D01*
X61904381Y-186240057D02*
X61856762Y-186335295D01*
X61856762Y-186335295D02*
X61856762Y-186478152D01*
X61856762Y-186478152D02*
X61904381Y-186573390D01*
X61904381Y-186573390D02*
X61952000Y-186621009D01*
X61952000Y-186621009D02*
X62047238Y-186668628D01*
X62047238Y-186668628D02*
X62428190Y-186668628D01*
X61571047Y-186144819D02*
X60999619Y-186144819D01*
X61285333Y-187144819D02*
X61285333Y-186144819D01*
X60713904Y-187097200D02*
X60571047Y-187144819D01*
X60571047Y-187144819D02*
X60332952Y-187144819D01*
X60332952Y-187144819D02*
X60237714Y-187097200D01*
X60237714Y-187097200D02*
X60190095Y-187049580D01*
X60190095Y-187049580D02*
X60142476Y-186954342D01*
X60142476Y-186954342D02*
X60142476Y-186859104D01*
X60142476Y-186859104D02*
X60190095Y-186763866D01*
X60190095Y-186763866D02*
X60237714Y-186716247D01*
X60237714Y-186716247D02*
X60332952Y-186668628D01*
X60332952Y-186668628D02*
X60523428Y-186621009D01*
X60523428Y-186621009D02*
X60618666Y-186573390D01*
X60618666Y-186573390D02*
X60666285Y-186525771D01*
X60666285Y-186525771D02*
X60713904Y-186430533D01*
X60713904Y-186430533D02*
X60713904Y-186335295D01*
X60713904Y-186335295D02*
X60666285Y-186240057D01*
X60666285Y-186240057D02*
X60618666Y-186192438D01*
X60618666Y-186192438D02*
X60523428Y-186144819D01*
X60523428Y-186144819D02*
X60285333Y-186144819D01*
X60285333Y-186144819D02*
X60142476Y-186192438D01*
X62566286Y-185867200D02*
X60052000Y-185867200D01*
X59952000Y-187240057D02*
X59190095Y-187240057D01*
X59047237Y-186144819D02*
X58428190Y-186144819D01*
X58428190Y-186144819D02*
X58761523Y-186525771D01*
X58761523Y-186525771D02*
X58618666Y-186525771D01*
X58618666Y-186525771D02*
X58523428Y-186573390D01*
X58523428Y-186573390D02*
X58475809Y-186621009D01*
X58475809Y-186621009D02*
X58428190Y-186716247D01*
X58428190Y-186716247D02*
X58428190Y-186954342D01*
X58428190Y-186954342D02*
X58475809Y-187049580D01*
X58475809Y-187049580D02*
X58523428Y-187097200D01*
X58523428Y-187097200D02*
X58618666Y-187144819D01*
X58618666Y-187144819D02*
X58904380Y-187144819D01*
X58904380Y-187144819D02*
X58999618Y-187097200D01*
X58999618Y-187097200D02*
X59047237Y-187049580D01*
X63110952Y-51239009D02*
X62968095Y-51286628D01*
X62968095Y-51286628D02*
X62920476Y-51334247D01*
X62920476Y-51334247D02*
X62872857Y-51429485D01*
X62872857Y-51429485D02*
X62872857Y-51572342D01*
X62872857Y-51572342D02*
X62920476Y-51667580D01*
X62920476Y-51667580D02*
X62968095Y-51715200D01*
X62968095Y-51715200D02*
X63063333Y-51762819D01*
X63063333Y-51762819D02*
X63444285Y-51762819D01*
X63444285Y-51762819D02*
X63444285Y-50762819D01*
X63444285Y-50762819D02*
X63110952Y-50762819D01*
X63110952Y-50762819D02*
X63015714Y-50810438D01*
X63015714Y-50810438D02*
X62968095Y-50858057D01*
X62968095Y-50858057D02*
X62920476Y-50953295D01*
X62920476Y-50953295D02*
X62920476Y-51048533D01*
X62920476Y-51048533D02*
X62968095Y-51143771D01*
X62968095Y-51143771D02*
X63015714Y-51191390D01*
X63015714Y-51191390D02*
X63110952Y-51239009D01*
X63110952Y-51239009D02*
X63444285Y-51239009D01*
X62491904Y-51715200D02*
X62349047Y-51762819D01*
X62349047Y-51762819D02*
X62110952Y-51762819D01*
X62110952Y-51762819D02*
X62015714Y-51715200D01*
X62015714Y-51715200D02*
X61968095Y-51667580D01*
X61968095Y-51667580D02*
X61920476Y-51572342D01*
X61920476Y-51572342D02*
X61920476Y-51477104D01*
X61920476Y-51477104D02*
X61968095Y-51381866D01*
X61968095Y-51381866D02*
X62015714Y-51334247D01*
X62015714Y-51334247D02*
X62110952Y-51286628D01*
X62110952Y-51286628D02*
X62301428Y-51239009D01*
X62301428Y-51239009D02*
X62396666Y-51191390D01*
X62396666Y-51191390D02*
X62444285Y-51143771D01*
X62444285Y-51143771D02*
X62491904Y-51048533D01*
X62491904Y-51048533D02*
X62491904Y-50953295D01*
X62491904Y-50953295D02*
X62444285Y-50858057D01*
X62444285Y-50858057D02*
X62396666Y-50810438D01*
X62396666Y-50810438D02*
X62301428Y-50762819D01*
X62301428Y-50762819D02*
X62063333Y-50762819D01*
X62063333Y-50762819D02*
X61920476Y-50810438D01*
X60968095Y-51762819D02*
X61539523Y-51762819D01*
X61253809Y-51762819D02*
X61253809Y-50762819D01*
X61253809Y-50762819D02*
X61349047Y-50905676D01*
X61349047Y-50905676D02*
X61444285Y-51000914D01*
X61444285Y-51000914D02*
X61539523Y-51048533D01*
X234688762Y-114754819D02*
X235022095Y-114278628D01*
X235260190Y-114754819D02*
X235260190Y-113754819D01*
X235260190Y-113754819D02*
X234879238Y-113754819D01*
X234879238Y-113754819D02*
X234784000Y-113802438D01*
X234784000Y-113802438D02*
X234736381Y-113850057D01*
X234736381Y-113850057D02*
X234688762Y-113945295D01*
X234688762Y-113945295D02*
X234688762Y-114088152D01*
X234688762Y-114088152D02*
X234736381Y-114183390D01*
X234736381Y-114183390D02*
X234784000Y-114231009D01*
X234784000Y-114231009D02*
X234879238Y-114278628D01*
X234879238Y-114278628D02*
X235260190Y-114278628D01*
X234403047Y-113754819D02*
X233831619Y-113754819D01*
X234117333Y-114754819D02*
X234117333Y-113754819D01*
X233545904Y-114707200D02*
X233403047Y-114754819D01*
X233403047Y-114754819D02*
X233164952Y-114754819D01*
X233164952Y-114754819D02*
X233069714Y-114707200D01*
X233069714Y-114707200D02*
X233022095Y-114659580D01*
X233022095Y-114659580D02*
X232974476Y-114564342D01*
X232974476Y-114564342D02*
X232974476Y-114469104D01*
X232974476Y-114469104D02*
X233022095Y-114373866D01*
X233022095Y-114373866D02*
X233069714Y-114326247D01*
X233069714Y-114326247D02*
X233164952Y-114278628D01*
X233164952Y-114278628D02*
X233355428Y-114231009D01*
X233355428Y-114231009D02*
X233450666Y-114183390D01*
X233450666Y-114183390D02*
X233498285Y-114135771D01*
X233498285Y-114135771D02*
X233545904Y-114040533D01*
X233545904Y-114040533D02*
X233545904Y-113945295D01*
X233545904Y-113945295D02*
X233498285Y-113850057D01*
X233498285Y-113850057D02*
X233450666Y-113802438D01*
X233450666Y-113802438D02*
X233355428Y-113754819D01*
X233355428Y-113754819D02*
X233117333Y-113754819D01*
X233117333Y-113754819D02*
X232974476Y-113802438D01*
X235398286Y-113477200D02*
X232884000Y-113477200D01*
X232784000Y-114850057D02*
X232022095Y-114850057D01*
X231260190Y-114754819D02*
X231831618Y-114754819D01*
X231545904Y-114754819D02*
X231545904Y-113754819D01*
X231545904Y-113754819D02*
X231641142Y-113897676D01*
X231641142Y-113897676D02*
X231736380Y-113992914D01*
X231736380Y-113992914D02*
X231831618Y-114040533D01*
X62571047Y-202384819D02*
X62571047Y-201384819D01*
X62571047Y-201384819D02*
X62332952Y-201384819D01*
X62332952Y-201384819D02*
X62190095Y-201432438D01*
X62190095Y-201432438D02*
X62094857Y-201527676D01*
X62094857Y-201527676D02*
X62047238Y-201622914D01*
X62047238Y-201622914D02*
X61999619Y-201813390D01*
X61999619Y-201813390D02*
X61999619Y-201956247D01*
X61999619Y-201956247D02*
X62047238Y-202146723D01*
X62047238Y-202146723D02*
X62094857Y-202241961D01*
X62094857Y-202241961D02*
X62190095Y-202337200D01*
X62190095Y-202337200D02*
X62332952Y-202384819D01*
X62332952Y-202384819D02*
X62571047Y-202384819D01*
X60999619Y-202289580D02*
X61047238Y-202337200D01*
X61047238Y-202337200D02*
X61190095Y-202384819D01*
X61190095Y-202384819D02*
X61285333Y-202384819D01*
X61285333Y-202384819D02*
X61428190Y-202337200D01*
X61428190Y-202337200D02*
X61523428Y-202241961D01*
X61523428Y-202241961D02*
X61571047Y-202146723D01*
X61571047Y-202146723D02*
X61618666Y-201956247D01*
X61618666Y-201956247D02*
X61618666Y-201813390D01*
X61618666Y-201813390D02*
X61571047Y-201622914D01*
X61571047Y-201622914D02*
X61523428Y-201527676D01*
X61523428Y-201527676D02*
X61428190Y-201432438D01*
X61428190Y-201432438D02*
X61285333Y-201384819D01*
X61285333Y-201384819D02*
X61190095Y-201384819D01*
X61190095Y-201384819D02*
X61047238Y-201432438D01*
X61047238Y-201432438D02*
X60999619Y-201480057D01*
X60571047Y-202384819D02*
X60571047Y-201384819D01*
X60571047Y-201384819D02*
X60332952Y-201384819D01*
X60332952Y-201384819D02*
X60190095Y-201432438D01*
X60190095Y-201432438D02*
X60094857Y-201527676D01*
X60094857Y-201527676D02*
X60047238Y-201622914D01*
X60047238Y-201622914D02*
X59999619Y-201813390D01*
X59999619Y-201813390D02*
X59999619Y-201956247D01*
X59999619Y-201956247D02*
X60047238Y-202146723D01*
X60047238Y-202146723D02*
X60094857Y-202241961D01*
X60094857Y-202241961D02*
X60190095Y-202337200D01*
X60190095Y-202337200D02*
X60332952Y-202384819D01*
X60332952Y-202384819D02*
X60571047Y-202384819D01*
X62709143Y-201107200D02*
X59909143Y-201107200D01*
X59809143Y-202480057D02*
X59047238Y-202480057D01*
X58904380Y-201384819D02*
X58285333Y-201384819D01*
X58285333Y-201384819D02*
X58618666Y-201765771D01*
X58618666Y-201765771D02*
X58475809Y-201765771D01*
X58475809Y-201765771D02*
X58380571Y-201813390D01*
X58380571Y-201813390D02*
X58332952Y-201861009D01*
X58332952Y-201861009D02*
X58285333Y-201956247D01*
X58285333Y-201956247D02*
X58285333Y-202194342D01*
X58285333Y-202194342D02*
X58332952Y-202289580D01*
X58332952Y-202289580D02*
X58380571Y-202337200D01*
X58380571Y-202337200D02*
X58475809Y-202384819D01*
X58475809Y-202384819D02*
X58761523Y-202384819D01*
X58761523Y-202384819D02*
X58856761Y-202337200D01*
X58856761Y-202337200D02*
X58904380Y-202289580D01*
X234766381Y-119834819D02*
X235099714Y-119358628D01*
X235337809Y-119834819D02*
X235337809Y-118834819D01*
X235337809Y-118834819D02*
X234956857Y-118834819D01*
X234956857Y-118834819D02*
X234861619Y-118882438D01*
X234861619Y-118882438D02*
X234814000Y-118930057D01*
X234814000Y-118930057D02*
X234766381Y-119025295D01*
X234766381Y-119025295D02*
X234766381Y-119168152D01*
X234766381Y-119168152D02*
X234814000Y-119263390D01*
X234814000Y-119263390D02*
X234861619Y-119311009D01*
X234861619Y-119311009D02*
X234956857Y-119358628D01*
X234956857Y-119358628D02*
X235337809Y-119358628D01*
X234433047Y-119834819D02*
X233909238Y-119168152D01*
X234433047Y-119168152D02*
X233909238Y-119834819D01*
X233528285Y-119834819D02*
X233528285Y-118834819D01*
X233528285Y-118834819D02*
X233290190Y-118834819D01*
X233290190Y-118834819D02*
X233147333Y-118882438D01*
X233147333Y-118882438D02*
X233052095Y-118977676D01*
X233052095Y-118977676D02*
X233004476Y-119072914D01*
X233004476Y-119072914D02*
X232956857Y-119263390D01*
X232956857Y-119263390D02*
X232956857Y-119406247D01*
X232956857Y-119406247D02*
X233004476Y-119596723D01*
X233004476Y-119596723D02*
X233052095Y-119691961D01*
X233052095Y-119691961D02*
X233147333Y-119787200D01*
X233147333Y-119787200D02*
X233290190Y-119834819D01*
X233290190Y-119834819D02*
X233528285Y-119834819D01*
X232766381Y-119930057D02*
X232004476Y-119930057D01*
X231242571Y-119834819D02*
X231813999Y-119834819D01*
X231528285Y-119834819D02*
X231528285Y-118834819D01*
X231528285Y-118834819D02*
X231623523Y-118977676D01*
X231623523Y-118977676D02*
X231718761Y-119072914D01*
X231718761Y-119072914D02*
X231813999Y-119120533D01*
X234576762Y-133804819D02*
X234910095Y-133328628D01*
X235148190Y-133804819D02*
X235148190Y-132804819D01*
X235148190Y-132804819D02*
X234767238Y-132804819D01*
X234767238Y-132804819D02*
X234672000Y-132852438D01*
X234672000Y-132852438D02*
X234624381Y-132900057D01*
X234624381Y-132900057D02*
X234576762Y-132995295D01*
X234576762Y-132995295D02*
X234576762Y-133138152D01*
X234576762Y-133138152D02*
X234624381Y-133233390D01*
X234624381Y-133233390D02*
X234672000Y-133281009D01*
X234672000Y-133281009D02*
X234767238Y-133328628D01*
X234767238Y-133328628D02*
X235148190Y-133328628D01*
X234291047Y-132804819D02*
X233719619Y-132804819D01*
X234005333Y-133804819D02*
X234005333Y-132804819D01*
X233433904Y-133757200D02*
X233291047Y-133804819D01*
X233291047Y-133804819D02*
X233052952Y-133804819D01*
X233052952Y-133804819D02*
X232957714Y-133757200D01*
X232957714Y-133757200D02*
X232910095Y-133709580D01*
X232910095Y-133709580D02*
X232862476Y-133614342D01*
X232862476Y-133614342D02*
X232862476Y-133519104D01*
X232862476Y-133519104D02*
X232910095Y-133423866D01*
X232910095Y-133423866D02*
X232957714Y-133376247D01*
X232957714Y-133376247D02*
X233052952Y-133328628D01*
X233052952Y-133328628D02*
X233243428Y-133281009D01*
X233243428Y-133281009D02*
X233338666Y-133233390D01*
X233338666Y-133233390D02*
X233386285Y-133185771D01*
X233386285Y-133185771D02*
X233433904Y-133090533D01*
X233433904Y-133090533D02*
X233433904Y-132995295D01*
X233433904Y-132995295D02*
X233386285Y-132900057D01*
X233386285Y-132900057D02*
X233338666Y-132852438D01*
X233338666Y-132852438D02*
X233243428Y-132804819D01*
X233243428Y-132804819D02*
X233005333Y-132804819D01*
X233005333Y-132804819D02*
X232862476Y-132852438D01*
X235286286Y-132527200D02*
X232772000Y-132527200D01*
X232672000Y-133900057D02*
X231910095Y-133900057D01*
X231719618Y-132900057D02*
X231671999Y-132852438D01*
X231671999Y-132852438D02*
X231576761Y-132804819D01*
X231576761Y-132804819D02*
X231338666Y-132804819D01*
X231338666Y-132804819D02*
X231243428Y-132852438D01*
X231243428Y-132852438D02*
X231195809Y-132900057D01*
X231195809Y-132900057D02*
X231148190Y-132995295D01*
X231148190Y-132995295D02*
X231148190Y-133090533D01*
X231148190Y-133090533D02*
X231195809Y-133233390D01*
X231195809Y-133233390D02*
X231767237Y-133804819D01*
X231767237Y-133804819D02*
X231148190Y-133804819D01*
X234576762Y-136249580D02*
X234624381Y-136297200D01*
X234624381Y-136297200D02*
X234767238Y-136344819D01*
X234767238Y-136344819D02*
X234862476Y-136344819D01*
X234862476Y-136344819D02*
X235005333Y-136297200D01*
X235005333Y-136297200D02*
X235100571Y-136201961D01*
X235100571Y-136201961D02*
X235148190Y-136106723D01*
X235148190Y-136106723D02*
X235195809Y-135916247D01*
X235195809Y-135916247D02*
X235195809Y-135773390D01*
X235195809Y-135773390D02*
X235148190Y-135582914D01*
X235148190Y-135582914D02*
X235100571Y-135487676D01*
X235100571Y-135487676D02*
X235005333Y-135392438D01*
X235005333Y-135392438D02*
X234862476Y-135344819D01*
X234862476Y-135344819D02*
X234767238Y-135344819D01*
X234767238Y-135344819D02*
X234624381Y-135392438D01*
X234624381Y-135392438D02*
X234576762Y-135440057D01*
X234291047Y-135344819D02*
X233719619Y-135344819D01*
X234005333Y-136344819D02*
X234005333Y-135344819D01*
X233433904Y-136297200D02*
X233291047Y-136344819D01*
X233291047Y-136344819D02*
X233052952Y-136344819D01*
X233052952Y-136344819D02*
X232957714Y-136297200D01*
X232957714Y-136297200D02*
X232910095Y-136249580D01*
X232910095Y-136249580D02*
X232862476Y-136154342D01*
X232862476Y-136154342D02*
X232862476Y-136059104D01*
X232862476Y-136059104D02*
X232910095Y-135963866D01*
X232910095Y-135963866D02*
X232957714Y-135916247D01*
X232957714Y-135916247D02*
X233052952Y-135868628D01*
X233052952Y-135868628D02*
X233243428Y-135821009D01*
X233243428Y-135821009D02*
X233338666Y-135773390D01*
X233338666Y-135773390D02*
X233386285Y-135725771D01*
X233386285Y-135725771D02*
X233433904Y-135630533D01*
X233433904Y-135630533D02*
X233433904Y-135535295D01*
X233433904Y-135535295D02*
X233386285Y-135440057D01*
X233386285Y-135440057D02*
X233338666Y-135392438D01*
X233338666Y-135392438D02*
X233243428Y-135344819D01*
X233243428Y-135344819D02*
X233005333Y-135344819D01*
X233005333Y-135344819D02*
X232862476Y-135392438D01*
X235286286Y-135067200D02*
X232772000Y-135067200D01*
X232672000Y-136440057D02*
X231910095Y-136440057D01*
X231719618Y-135440057D02*
X231671999Y-135392438D01*
X231671999Y-135392438D02*
X231576761Y-135344819D01*
X231576761Y-135344819D02*
X231338666Y-135344819D01*
X231338666Y-135344819D02*
X231243428Y-135392438D01*
X231243428Y-135392438D02*
X231195809Y-135440057D01*
X231195809Y-135440057D02*
X231148190Y-135535295D01*
X231148190Y-135535295D02*
X231148190Y-135630533D01*
X231148190Y-135630533D02*
X231195809Y-135773390D01*
X231195809Y-135773390D02*
X231767237Y-136344819D01*
X231767237Y-136344819D02*
X231148190Y-136344819D01*
X62547237Y-197304819D02*
X62547237Y-196304819D01*
X62547237Y-196304819D02*
X62309142Y-196304819D01*
X62309142Y-196304819D02*
X62166285Y-196352438D01*
X62166285Y-196352438D02*
X62071047Y-196447676D01*
X62071047Y-196447676D02*
X62023428Y-196542914D01*
X62023428Y-196542914D02*
X61975809Y-196733390D01*
X61975809Y-196733390D02*
X61975809Y-196876247D01*
X61975809Y-196876247D02*
X62023428Y-197066723D01*
X62023428Y-197066723D02*
X62071047Y-197161961D01*
X62071047Y-197161961D02*
X62166285Y-197257200D01*
X62166285Y-197257200D02*
X62309142Y-197304819D01*
X62309142Y-197304819D02*
X62547237Y-197304819D01*
X61594856Y-197257200D02*
X61451999Y-197304819D01*
X61451999Y-197304819D02*
X61213904Y-197304819D01*
X61213904Y-197304819D02*
X61118666Y-197257200D01*
X61118666Y-197257200D02*
X61071047Y-197209580D01*
X61071047Y-197209580D02*
X61023428Y-197114342D01*
X61023428Y-197114342D02*
X61023428Y-197019104D01*
X61023428Y-197019104D02*
X61071047Y-196923866D01*
X61071047Y-196923866D02*
X61118666Y-196876247D01*
X61118666Y-196876247D02*
X61213904Y-196828628D01*
X61213904Y-196828628D02*
X61404380Y-196781009D01*
X61404380Y-196781009D02*
X61499618Y-196733390D01*
X61499618Y-196733390D02*
X61547237Y-196685771D01*
X61547237Y-196685771D02*
X61594856Y-196590533D01*
X61594856Y-196590533D02*
X61594856Y-196495295D01*
X61594856Y-196495295D02*
X61547237Y-196400057D01*
X61547237Y-196400057D02*
X61499618Y-196352438D01*
X61499618Y-196352438D02*
X61404380Y-196304819D01*
X61404380Y-196304819D02*
X61166285Y-196304819D01*
X61166285Y-196304819D02*
X61023428Y-196352438D01*
X60023428Y-197304819D02*
X60356761Y-196828628D01*
X60594856Y-197304819D02*
X60594856Y-196304819D01*
X60594856Y-196304819D02*
X60213904Y-196304819D01*
X60213904Y-196304819D02*
X60118666Y-196352438D01*
X60118666Y-196352438D02*
X60071047Y-196400057D01*
X60071047Y-196400057D02*
X60023428Y-196495295D01*
X60023428Y-196495295D02*
X60023428Y-196638152D01*
X60023428Y-196638152D02*
X60071047Y-196733390D01*
X60071047Y-196733390D02*
X60118666Y-196781009D01*
X60118666Y-196781009D02*
X60213904Y-196828628D01*
X60213904Y-196828628D02*
X60594856Y-196828628D01*
X62685333Y-196027200D02*
X59932952Y-196027200D01*
X59832952Y-197400057D02*
X59071047Y-197400057D01*
X58309142Y-197304819D02*
X58880570Y-197304819D01*
X58594856Y-197304819D02*
X58594856Y-196304819D01*
X58594856Y-196304819D02*
X58690094Y-196447676D01*
X58690094Y-196447676D02*
X58785332Y-196542914D01*
X58785332Y-196542914D02*
X58880570Y-196590533D01*
D11*
X227200000Y-137430000D02*
X230000000Y-137430000D01*
X227200000Y-139430000D02*
X227200000Y-137430000D01*
X230000000Y-137430000D02*
X230000000Y-139430000D01*
X230000000Y-139430000D02*
X227200000Y-139430000D01*
X227200000Y-139970000D02*
X230000000Y-139970000D01*
X227200000Y-141970000D02*
X227200000Y-139970000D01*
X230000000Y-139970000D02*
X230000000Y-141970000D01*
X230000000Y-141970000D02*
X227200000Y-141970000D01*
X54480000Y-190770000D02*
X57280000Y-190770000D01*
X54480000Y-192770000D02*
X54480000Y-190770000D01*
X57280000Y-190770000D02*
X57280000Y-192770000D01*
X57280000Y-192770000D02*
X54480000Y-192770000D01*
X227200000Y-129810000D02*
X230000000Y-129810000D01*
X227200000Y-131810000D02*
X227200000Y-129810000D01*
X230000000Y-129810000D02*
X230000000Y-131810000D01*
X230000000Y-131810000D02*
X227200000Y-131810000D01*
X227200000Y-120920000D02*
X230000000Y-120920000D01*
X227200000Y-122920000D02*
X227200000Y-120920000D01*
X230000000Y-120920000D02*
X230000000Y-122920000D01*
X230000000Y-122920000D02*
X227200000Y-122920000D01*
X54480000Y-188230000D02*
X57280000Y-188230000D01*
X54480000Y-190230000D02*
X54480000Y-188230000D01*
X57280000Y-188230000D02*
X57280000Y-190230000D01*
X57280000Y-190230000D02*
X54480000Y-190230000D01*
X54480000Y-193310000D02*
X57280000Y-193310000D01*
X54480000Y-195310000D02*
X54480000Y-193310000D01*
X57280000Y-193310000D02*
X57280000Y-195310000D01*
X57280000Y-195310000D02*
X54480000Y-195310000D01*
X167910000Y-119460000D02*
X167910000Y-118060000D01*
X168610000Y-117360000D02*
X169210000Y-117360000D01*
X169210000Y-120160000D02*
X168610000Y-120160000D01*
X169910000Y-118060000D02*
X169910000Y-119460000D01*
X167910000Y-118060000D02*
G75*
G02*
X168610000Y-117360000I699999J1D01*
G01*
X168610000Y-120160000D02*
G75*
G02*
X167910000Y-119460000I0J700000D01*
G01*
X169210000Y-117360000D02*
G75*
G02*
X169910000Y-118060000I1J-699999D01*
G01*
X169910000Y-119460000D02*
G75*
G02*
X169210000Y-120160000I-700000J0D01*
G01*
X227200000Y-110760000D02*
X230000000Y-110760000D01*
X227200000Y-112760000D02*
X227200000Y-110760000D01*
X230000000Y-110760000D02*
X230000000Y-112760000D01*
X230000000Y-112760000D02*
X227200000Y-112760000D01*
X66360000Y-57470000D02*
X68260000Y-57470000D01*
X66360000Y-59370000D02*
X66360000Y-57470000D01*
X68260000Y-57470000D02*
X68260000Y-59370000D01*
X68260000Y-59370000D02*
X66360000Y-59370000D01*
X61280000Y-60010000D02*
X63180000Y-60010000D01*
X61280000Y-61910000D02*
X61280000Y-60010000D01*
X63180000Y-60010000D02*
X63180000Y-61910000D01*
X63180000Y-61910000D02*
X61280000Y-61910000D01*
X227200000Y-115840000D02*
X230000000Y-115840000D01*
X227200000Y-117840000D02*
X227200000Y-115840000D01*
X230000000Y-115840000D02*
X230000000Y-117840000D01*
X230000000Y-117840000D02*
X227200000Y-117840000D01*
X54480000Y-198390000D02*
X57280000Y-198390000D01*
X54480000Y-200390000D02*
X54480000Y-198390000D01*
X57280000Y-198390000D02*
X57280000Y-200390000D01*
X57280000Y-200390000D02*
X54480000Y-200390000D01*
X54480000Y-185690000D02*
X57280000Y-185690000D01*
X54480000Y-187690000D02*
X54480000Y-185690000D01*
X57280000Y-185690000D02*
X57280000Y-187690000D01*
X57280000Y-187690000D02*
X54480000Y-187690000D01*
X61280000Y-52390000D02*
X63180000Y-52390000D01*
X61280000Y-54290000D02*
X61280000Y-52390000D01*
X63180000Y-52390000D02*
X63180000Y-54290000D01*
X63180000Y-54290000D02*
X61280000Y-54290000D01*
X227200000Y-113300000D02*
X230000000Y-113300000D01*
X227200000Y-115300000D02*
X227200000Y-113300000D01*
X230000000Y-113300000D02*
X230000000Y-115300000D01*
X230000000Y-115300000D02*
X227200000Y-115300000D01*
X54480000Y-200930000D02*
X57280000Y-200930000D01*
X54480000Y-202930000D02*
X54480000Y-200930000D01*
X57280000Y-200930000D02*
X57280000Y-202930000D01*
X57280000Y-202930000D02*
X54480000Y-202930000D01*
X227200000Y-118380000D02*
X230000000Y-118380000D01*
X227200000Y-120380000D02*
X227200000Y-118380000D01*
X230000000Y-118380000D02*
X230000000Y-120380000D01*
X230000000Y-120380000D02*
X227200000Y-120380000D01*
X227200000Y-132350000D02*
X230000000Y-132350000D01*
X227200000Y-134350000D02*
X227200000Y-132350000D01*
X230000000Y-132350000D02*
X230000000Y-134350000D01*
X230000000Y-134350000D02*
X227200000Y-134350000D01*
X167910000Y-114888000D02*
X167910000Y-113488000D01*
X168610000Y-112788000D02*
X169210000Y-112788000D01*
X169210000Y-115588000D02*
X168610000Y-115588000D01*
X169910000Y-113488000D02*
X169910000Y-114888000D01*
X167910000Y-113488000D02*
G75*
G02*
X168610000Y-112788000I699999J1D01*
G01*
X168610000Y-115588000D02*
G75*
G02*
X167910000Y-114888000I0J700000D01*
G01*
X169210000Y-112788000D02*
G75*
G02*
X169910000Y-113488000I1J-699999D01*
G01*
X169910000Y-114888000D02*
G75*
G02*
X169210000Y-115588000I-700000J0D01*
G01*
X227200000Y-134890000D02*
X230000000Y-134890000D01*
X227200000Y-136890000D02*
X227200000Y-134890000D01*
X230000000Y-134890000D02*
X230000000Y-136890000D01*
X230000000Y-136890000D02*
X227200000Y-136890000D01*
X54480000Y-195850000D02*
X57280000Y-195850000D01*
X54480000Y-197850000D02*
X54480000Y-195850000D01*
X57280000Y-195850000D02*
X57280000Y-197850000D01*
X57280000Y-197850000D02*
X54480000Y-197850000D01*
%LPC*%
D12*
X247730000Y-99060000D03*
X252730000Y-99060000D03*
D13*
X237490000Y-128270000D03*
D14*
X237490000Y-130810000D03*
X237490000Y-133350000D03*
X237490000Y-135890000D03*
X237490000Y-138430000D03*
X237490000Y-140970000D03*
D12*
X141050000Y-99060000D03*
X146050000Y-99060000D03*
D13*
X91440000Y-158750000D03*
D14*
X91440000Y-161290000D03*
X91440000Y-163830000D03*
X91440000Y-166370000D03*
X91440000Y-168910000D03*
X91440000Y-171450000D03*
X91440000Y-173990000D03*
X91440000Y-176530000D03*
X91440000Y-179070000D03*
X91440000Y-181610000D03*
X91440000Y-184150000D03*
X91440000Y-186690000D03*
D12*
X50800000Y-60960000D03*
X50800000Y-55960000D03*
D15*
X33020000Y-74930000D03*
D16*
X43180000Y-74930000D03*
D15*
X82550000Y-164572000D03*
X82550000Y-162072000D03*
D12*
X191810000Y-99060000D03*
X196810000Y-99060000D03*
D13*
X249174000Y-109220000D03*
D14*
X249174000Y-111760000D03*
X249174000Y-114300000D03*
D17*
X64770000Y-168910000D03*
D16*
X64770000Y-171450000D03*
X64770000Y-173990000D03*
X64770000Y-176530000D03*
X64770000Y-179070000D03*
X64770000Y-181610000D03*
X64770000Y-184150000D03*
X64770000Y-186690000D03*
X64770000Y-189230000D03*
X64770000Y-191770000D03*
X64770000Y-194310000D03*
X64770000Y-196850000D03*
X64770000Y-199390000D03*
X64770000Y-201930000D03*
X80010000Y-201930000D03*
X80010000Y-199390000D03*
X80010000Y-196850000D03*
X80010000Y-194310000D03*
X80010000Y-191770000D03*
X80010000Y-189230000D03*
X80010000Y-186690000D03*
X80010000Y-184150000D03*
X80010000Y-181610000D03*
X80010000Y-179070000D03*
X80010000Y-176530000D03*
X80010000Y-173990000D03*
X80010000Y-171450000D03*
X80010000Y-168910000D03*
D15*
X88900000Y-45720000D03*
D16*
X78740000Y-45720000D03*
D15*
X54610000Y-38100000D03*
X54610000Y-40600000D03*
D18*
X41910000Y-215900000D03*
D13*
X210820000Y-179070000D03*
D14*
X210820000Y-181610000D03*
X210820000Y-184150000D03*
X210820000Y-186690000D03*
X210820000Y-189230000D03*
X210820000Y-191770000D03*
X210820000Y-194310000D03*
X210820000Y-196850000D03*
X210820000Y-199390000D03*
X210820000Y-201930000D03*
X210820000Y-204470000D03*
X210820000Y-207010000D03*
D19*
X224790000Y-158750000D03*
D20*
X224790000Y-161290000D03*
X224790000Y-163830000D03*
X224790000Y-166370000D03*
X224790000Y-168910000D03*
X224790000Y-171450000D03*
X224790000Y-173990000D03*
X224790000Y-176530000D03*
X224790000Y-179070000D03*
X224790000Y-181610000D03*
X224790000Y-184150000D03*
X224790000Y-186690000D03*
X224790000Y-189230000D03*
X224790000Y-191770000D03*
X224790000Y-194310000D03*
X224790000Y-196850000D03*
X224790000Y-199390000D03*
X224790000Y-201930000D03*
X224790000Y-204470000D03*
X224790000Y-207010000D03*
X240030000Y-207010000D03*
X240030000Y-204470000D03*
X240030000Y-201930000D03*
X240030000Y-199390000D03*
X240030000Y-196850000D03*
X240030000Y-194310000D03*
X240030000Y-191770000D03*
X240030000Y-189230000D03*
X240030000Y-186690000D03*
X240030000Y-184150000D03*
X240030000Y-181610000D03*
X240030000Y-179070000D03*
X240030000Y-176530000D03*
X240030000Y-173990000D03*
X240030000Y-171450000D03*
X240030000Y-168910000D03*
X240030000Y-166370000D03*
X240030000Y-163830000D03*
X240030000Y-161290000D03*
X240030000Y-158750000D03*
D12*
X90170000Y-99060000D03*
X95170000Y-99060000D03*
D21*
X62312500Y-38100000D03*
X67312500Y-38100000D03*
D15*
X62230000Y-162072000D03*
X62230000Y-164572000D03*
D21*
X69850000Y-161798000D03*
X74850000Y-161798000D03*
D22*
X69850000Y-129794000D03*
D23*
X72390000Y-129794000D03*
X74930000Y-129794000D03*
X77470000Y-129794000D03*
X80010000Y-129794000D03*
X82550000Y-129794000D03*
X85090000Y-129794000D03*
X85090000Y-122174000D03*
X82550000Y-122174000D03*
X80010000Y-122174000D03*
X77470000Y-122174000D03*
X74930000Y-122174000D03*
X72390000Y-122174000D03*
X69850000Y-122174000D03*
D12*
X229950000Y-212090000D03*
X234950000Y-212090000D03*
X181690000Y-148590000D03*
X186690000Y-148590000D03*
D22*
X96520000Y-129540000D03*
D23*
X99060000Y-129540000D03*
X101600000Y-129540000D03*
X104140000Y-129540000D03*
X106680000Y-129540000D03*
X109220000Y-129540000D03*
X111760000Y-129540000D03*
X114300000Y-129540000D03*
X116840000Y-129540000D03*
X119380000Y-129540000D03*
X121920000Y-129540000D03*
X124460000Y-129540000D03*
X124460000Y-121920000D03*
X121920000Y-121920000D03*
X119380000Y-121920000D03*
X116840000Y-121920000D03*
X114300000Y-121920000D03*
X111760000Y-121920000D03*
X109220000Y-121920000D03*
X106680000Y-121920000D03*
X104140000Y-121920000D03*
X101600000Y-121920000D03*
X99060000Y-121920000D03*
X96520000Y-121920000D03*
D19*
X201930000Y-91440000D03*
D20*
X201930000Y-88900000D03*
X201930000Y-86360000D03*
X201930000Y-83820000D03*
X201930000Y-81280000D03*
X201930000Y-78740000D03*
X201930000Y-76200000D03*
X201930000Y-73660000D03*
X201930000Y-71120000D03*
X201930000Y-68580000D03*
X201930000Y-66040000D03*
X201930000Y-63500000D03*
X201930000Y-60960000D03*
X201930000Y-58420000D03*
X186690000Y-58420000D03*
X186690000Y-60960000D03*
X186690000Y-63500000D03*
X186690000Y-66040000D03*
X186690000Y-68580000D03*
X186690000Y-71120000D03*
X186690000Y-73660000D03*
X186690000Y-76200000D03*
X186690000Y-78740000D03*
X186690000Y-81280000D03*
X186690000Y-83820000D03*
X186690000Y-86360000D03*
X186690000Y-88900000D03*
X186690000Y-91440000D03*
D13*
X237490000Y-109220000D03*
D14*
X237490000Y-111760000D03*
X237490000Y-114300000D03*
X237490000Y-116840000D03*
X237490000Y-119380000D03*
X237490000Y-121920000D03*
D12*
X120476000Y-212090000D03*
X125476000Y-212090000D03*
X173926956Y-212090000D03*
X178926956Y-212090000D03*
D13*
X50800000Y-184150000D03*
D14*
X50800000Y-186690000D03*
X50800000Y-189230000D03*
X50800000Y-191770000D03*
X50800000Y-194310000D03*
X50800000Y-196850000D03*
X50800000Y-199390000D03*
X50800000Y-201930000D03*
D19*
X176530000Y-113030000D03*
D20*
X176530000Y-115570000D03*
X176530000Y-118110000D03*
X176530000Y-120650000D03*
X176530000Y-123190000D03*
X176530000Y-125730000D03*
X176530000Y-128270000D03*
X176530000Y-130810000D03*
X176530000Y-133350000D03*
X176530000Y-135890000D03*
X176530000Y-138430000D03*
X176530000Y-140970000D03*
X191770000Y-140970000D03*
X191770000Y-138430000D03*
X191770000Y-135890000D03*
X191770000Y-133350000D03*
X191770000Y-130810000D03*
X191770000Y-128270000D03*
X191770000Y-125730000D03*
X191770000Y-123190000D03*
X191770000Y-120650000D03*
X191770000Y-118110000D03*
X191770000Y-115570000D03*
X191770000Y-113030000D03*
D15*
X237490000Y-101600000D03*
D16*
X237490000Y-91440000D03*
D12*
X151210000Y-148590000D03*
X156210000Y-148590000D03*
D13*
X43180000Y-184150000D03*
D14*
X43180000Y-186690000D03*
X43180000Y-189230000D03*
D22*
X40640000Y-129540000D03*
D23*
X43180000Y-129540000D03*
X45720000Y-129540000D03*
X48260000Y-129540000D03*
X50800000Y-129540000D03*
X53340000Y-129540000D03*
X55880000Y-129540000D03*
X58420000Y-129540000D03*
X58420000Y-121920000D03*
X55880000Y-121920000D03*
X53340000Y-121920000D03*
X50800000Y-121920000D03*
X48260000Y-121920000D03*
X45720000Y-121920000D03*
X43180000Y-121920000D03*
X40640000Y-121920000D03*
D19*
X146050000Y-110490000D03*
D20*
X146050000Y-113030000D03*
X146050000Y-115570000D03*
X146050000Y-118110000D03*
X146050000Y-120650000D03*
X146050000Y-123190000D03*
X146050000Y-125730000D03*
X146050000Y-128270000D03*
X146050000Y-130810000D03*
X146050000Y-133350000D03*
X146050000Y-135890000D03*
X146050000Y-138430000D03*
X146050000Y-140970000D03*
X146050000Y-143510000D03*
X161290000Y-143510000D03*
X161290000Y-140970000D03*
X161290000Y-138430000D03*
X161290000Y-135890000D03*
X161290000Y-133350000D03*
X161290000Y-130810000D03*
X161290000Y-128270000D03*
X161290000Y-125730000D03*
X161290000Y-123190000D03*
X161290000Y-120650000D03*
X161290000Y-118110000D03*
X161290000Y-115570000D03*
X161290000Y-113030000D03*
X161290000Y-110490000D03*
D13*
X104140000Y-145034000D03*
D14*
X106680000Y-145034000D03*
X109220000Y-145034000D03*
X111760000Y-145034000D03*
X114300000Y-145034000D03*
D19*
X125730000Y-91440000D03*
D20*
X125730000Y-88900000D03*
X125730000Y-86360000D03*
X125730000Y-83820000D03*
X125730000Y-81280000D03*
X125730000Y-78740000D03*
X125730000Y-76200000D03*
X125730000Y-73660000D03*
X125730000Y-71120000D03*
X125730000Y-68580000D03*
X125730000Y-66040000D03*
X125730000Y-63500000D03*
X125730000Y-60960000D03*
X125730000Y-58420000D03*
X110490000Y-58420000D03*
X110490000Y-60960000D03*
X110490000Y-63500000D03*
X110490000Y-66040000D03*
X110490000Y-68580000D03*
X110490000Y-71120000D03*
X110490000Y-73660000D03*
X110490000Y-76200000D03*
X110490000Y-78740000D03*
X110490000Y-81280000D03*
X110490000Y-83820000D03*
X110490000Y-86360000D03*
X110490000Y-88900000D03*
X110490000Y-91440000D03*
D19*
X227330000Y-91440000D03*
D20*
X227330000Y-88900000D03*
X227330000Y-86360000D03*
X227330000Y-83820000D03*
X227330000Y-81280000D03*
X227330000Y-78740000D03*
X227330000Y-76200000D03*
X227330000Y-73660000D03*
X227330000Y-71120000D03*
X227330000Y-68580000D03*
X227330000Y-66040000D03*
X227330000Y-63500000D03*
X227330000Y-60960000D03*
X227330000Y-58420000D03*
X212090000Y-58420000D03*
X212090000Y-60960000D03*
X212090000Y-63500000D03*
X212090000Y-66040000D03*
X212090000Y-68580000D03*
X212090000Y-71120000D03*
X212090000Y-73660000D03*
X212090000Y-76200000D03*
X212090000Y-78740000D03*
X212090000Y-81280000D03*
X212090000Y-83820000D03*
X212090000Y-86360000D03*
X212090000Y-88900000D03*
X212090000Y-91440000D03*
D12*
X166450000Y-99060000D03*
X171450000Y-99060000D03*
D19*
X198120000Y-113030000D03*
D20*
X198120000Y-115570000D03*
X198120000Y-118110000D03*
X198120000Y-120650000D03*
X198120000Y-123190000D03*
X198120000Y-125730000D03*
X198120000Y-128270000D03*
X198120000Y-130810000D03*
X198120000Y-133350000D03*
X198120000Y-135890000D03*
X198120000Y-138430000D03*
X198120000Y-140970000D03*
X213360000Y-140970000D03*
X213360000Y-138430000D03*
X213360000Y-135890000D03*
X213360000Y-133350000D03*
X213360000Y-130810000D03*
X213360000Y-128270000D03*
X213360000Y-125730000D03*
X213360000Y-123190000D03*
X213360000Y-120650000D03*
X213360000Y-118110000D03*
X213360000Y-115570000D03*
X213360000Y-113030000D03*
D19*
X115505825Y-158750000D03*
D20*
X115505825Y-161290000D03*
X115505825Y-163830000D03*
X115505825Y-166370000D03*
X115505825Y-168910000D03*
X115505825Y-171450000D03*
X115505825Y-173990000D03*
X115505825Y-176530000D03*
X115505825Y-179070000D03*
X115505825Y-181610000D03*
X115505825Y-184150000D03*
X115505825Y-186690000D03*
X115505825Y-189230000D03*
X115505825Y-191770000D03*
X115505825Y-194310000D03*
X115505825Y-196850000D03*
X115505825Y-199390000D03*
X115505825Y-201930000D03*
X115505825Y-204470000D03*
X115505825Y-207010000D03*
X130745825Y-207010000D03*
X130745825Y-204470000D03*
X130745825Y-201930000D03*
X130745825Y-199390000D03*
X130745825Y-196850000D03*
X130745825Y-194310000D03*
X130745825Y-191770000D03*
X130745825Y-189230000D03*
X130745825Y-186690000D03*
X130745825Y-184150000D03*
X130745825Y-181610000D03*
X130745825Y-179070000D03*
X130745825Y-176530000D03*
X130745825Y-173990000D03*
X130745825Y-171450000D03*
X130745825Y-168910000D03*
X130745825Y-166370000D03*
X130745825Y-163830000D03*
X130745825Y-161290000D03*
X130745825Y-158750000D03*
D24*
X248920000Y-40640000D03*
D25*
X248920000Y-45720000D03*
D19*
X257810000Y-91440000D03*
D20*
X257810000Y-88900000D03*
X257810000Y-86360000D03*
X257810000Y-83820000D03*
X257810000Y-81280000D03*
X257810000Y-78740000D03*
X257810000Y-76200000D03*
X257810000Y-73660000D03*
X257810000Y-71120000D03*
X257810000Y-68580000D03*
X257810000Y-66040000D03*
X257810000Y-63500000D03*
X257810000Y-60960000D03*
X257810000Y-58420000D03*
X242570000Y-58420000D03*
X242570000Y-60960000D03*
X242570000Y-63500000D03*
X242570000Y-66040000D03*
X242570000Y-68580000D03*
X242570000Y-71120000D03*
X242570000Y-73660000D03*
X242570000Y-76200000D03*
X242570000Y-78740000D03*
X242570000Y-81280000D03*
X242570000Y-83820000D03*
X242570000Y-86360000D03*
X242570000Y-88900000D03*
X242570000Y-91440000D03*
D15*
X33020000Y-57040000D03*
D16*
X43180000Y-57040000D03*
D12*
X203200000Y-148590000D03*
X208200000Y-148590000D03*
D13*
X144526000Y-158750000D03*
D14*
X144526000Y-161290000D03*
X144526000Y-163830000D03*
X144526000Y-166370000D03*
X144526000Y-168910000D03*
X144526000Y-171450000D03*
X144526000Y-173990000D03*
X144526000Y-176530000D03*
X144526000Y-179070000D03*
X144526000Y-181610000D03*
X144526000Y-184150000D03*
X144526000Y-186690000D03*
D19*
X151130000Y-91440000D03*
D20*
X151130000Y-88900000D03*
X151130000Y-86360000D03*
X151130000Y-83820000D03*
X151130000Y-81280000D03*
X151130000Y-78740000D03*
X151130000Y-76200000D03*
X151130000Y-73660000D03*
X151130000Y-71120000D03*
X151130000Y-68580000D03*
X151130000Y-66040000D03*
X151130000Y-63500000D03*
X151130000Y-60960000D03*
X151130000Y-58420000D03*
X135890000Y-58420000D03*
X135890000Y-60960000D03*
X135890000Y-63500000D03*
X135890000Y-66040000D03*
X135890000Y-68580000D03*
X135890000Y-71120000D03*
X135890000Y-73660000D03*
X135890000Y-76200000D03*
X135890000Y-78740000D03*
X135890000Y-81280000D03*
X135890000Y-83820000D03*
X135890000Y-86360000D03*
X135890000Y-88900000D03*
X135890000Y-91440000D03*
D19*
X176530000Y-91440000D03*
D20*
X176530000Y-88900000D03*
X176530000Y-86360000D03*
X176530000Y-83820000D03*
X176530000Y-81280000D03*
X176530000Y-78740000D03*
X176530000Y-76200000D03*
X176530000Y-73660000D03*
X176530000Y-71120000D03*
X176530000Y-68580000D03*
X176530000Y-66040000D03*
X176530000Y-63500000D03*
X176530000Y-60960000D03*
X176530000Y-58420000D03*
X161290000Y-58420000D03*
X161290000Y-60960000D03*
X161290000Y-63500000D03*
X161290000Y-66040000D03*
X161290000Y-68580000D03*
X161290000Y-71120000D03*
X161290000Y-73660000D03*
X161290000Y-76200000D03*
X161290000Y-78740000D03*
X161290000Y-81280000D03*
X161290000Y-83820000D03*
X161290000Y-86360000D03*
X161290000Y-88900000D03*
X161290000Y-91440000D03*
D19*
X100330000Y-91440000D03*
D20*
X100330000Y-88900000D03*
X100330000Y-86360000D03*
X100330000Y-83820000D03*
X100330000Y-81280000D03*
X100330000Y-78740000D03*
X100330000Y-76200000D03*
X100330000Y-73660000D03*
X100330000Y-71120000D03*
X100330000Y-68580000D03*
X100330000Y-66040000D03*
X100330000Y-63500000D03*
X100330000Y-60960000D03*
X100330000Y-58420000D03*
X85090000Y-58420000D03*
X85090000Y-60960000D03*
X85090000Y-63500000D03*
X85090000Y-66040000D03*
X85090000Y-68580000D03*
X85090000Y-71120000D03*
X85090000Y-73660000D03*
X85090000Y-76200000D03*
X85090000Y-78740000D03*
X85090000Y-81280000D03*
X85090000Y-83820000D03*
X85090000Y-86360000D03*
X85090000Y-88900000D03*
X85090000Y-91440000D03*
D12*
X217250000Y-99060000D03*
X222250000Y-99060000D03*
D13*
X200660000Y-158750000D03*
D14*
X200660000Y-161290000D03*
X200660000Y-163830000D03*
X200660000Y-166370000D03*
X200660000Y-168910000D03*
X200660000Y-171450000D03*
X200660000Y-173990000D03*
X200660000Y-176530000D03*
X200660000Y-179070000D03*
X200660000Y-181610000D03*
X200660000Y-184150000D03*
X200660000Y-186690000D03*
D12*
X115650000Y-99060000D03*
X120650000Y-99060000D03*
D13*
X250698000Y-166370000D03*
D14*
X250698000Y-168910000D03*
X250698000Y-171450000D03*
X250698000Y-173990000D03*
X250698000Y-176530000D03*
X250698000Y-179070000D03*
X250698000Y-181610000D03*
X250698000Y-184150000D03*
X250698000Y-186690000D03*
X250698000Y-189230000D03*
X250698000Y-191770000D03*
X250698000Y-194310000D03*
X250698000Y-196850000D03*
X250698000Y-199390000D03*
X250698000Y-201930000D03*
X250698000Y-204470000D03*
X250698000Y-207010000D03*
D18*
X31750000Y-219710000D03*
D15*
X33020000Y-69850000D03*
D16*
X43180000Y-69850000D03*
D26*
X43180000Y-50800000D03*
D27*
X43180000Y-32800000D03*
D13*
X249174000Y-128270000D03*
D14*
X249174000Y-130810000D03*
X249174000Y-133350000D03*
D15*
X33020000Y-64660000D03*
D16*
X43180000Y-64660000D03*
D13*
X124460000Y-113792000D03*
D14*
X121920000Y-113792000D03*
X119380000Y-113792000D03*
X116840000Y-113792000D03*
X114300000Y-113792000D03*
D13*
X101600000Y-179070000D03*
D14*
X101600000Y-181610000D03*
X101600000Y-184150000D03*
X101600000Y-186690000D03*
X101600000Y-189230000D03*
X101600000Y-191770000D03*
X101600000Y-194310000D03*
X101600000Y-196850000D03*
X101600000Y-199390000D03*
X101600000Y-201930000D03*
X101600000Y-204470000D03*
X101600000Y-207010000D03*
D15*
X74930000Y-40600000D03*
X74930000Y-38100000D03*
D28*
X35565000Y-32905000D03*
D29*
X35565000Y-39405000D03*
D19*
X168766956Y-158750000D03*
D20*
X168766956Y-161290000D03*
X168766956Y-163830000D03*
X168766956Y-166370000D03*
X168766956Y-168910000D03*
X168766956Y-171450000D03*
X168766956Y-173990000D03*
X168766956Y-176530000D03*
X168766956Y-179070000D03*
X168766956Y-181610000D03*
X168766956Y-184150000D03*
X168766956Y-186690000D03*
X168766956Y-189230000D03*
X168766956Y-191770000D03*
X168766956Y-194310000D03*
X168766956Y-196850000D03*
X168766956Y-199390000D03*
X168766956Y-201930000D03*
X168766956Y-204470000D03*
X168766956Y-207010000D03*
X184006956Y-207010000D03*
X184006956Y-204470000D03*
X184006956Y-201930000D03*
X184006956Y-199390000D03*
X184006956Y-196850000D03*
X184006956Y-194310000D03*
X184006956Y-191770000D03*
X184006956Y-189230000D03*
X184006956Y-186690000D03*
X184006956Y-184150000D03*
X184006956Y-181610000D03*
X184006956Y-179070000D03*
X184006956Y-176530000D03*
X184006956Y-173990000D03*
X184006956Y-171450000D03*
X184006956Y-168910000D03*
X184006956Y-166370000D03*
X184006956Y-163830000D03*
X184006956Y-161290000D03*
X184006956Y-158750000D03*
D13*
X154940000Y-179070000D03*
D14*
X154940000Y-181610000D03*
X154940000Y-184150000D03*
X154940000Y-186690000D03*
X154940000Y-189230000D03*
X154940000Y-191770000D03*
X154940000Y-194310000D03*
X154940000Y-196850000D03*
X154940000Y-199390000D03*
X154940000Y-201930000D03*
X154940000Y-204470000D03*
X154940000Y-207010000D03*
D12*
X74890000Y-209550000D03*
X69890000Y-209550000D03*
D19*
X57155000Y-45720000D03*
D20*
X57155000Y-48260000D03*
X57155000Y-50800000D03*
X57155000Y-53340000D03*
X57155000Y-55880000D03*
X57155000Y-58420000D03*
X57155000Y-60960000D03*
X57155000Y-63500000D03*
X57155000Y-66040000D03*
X57155000Y-68580000D03*
X57155000Y-71120000D03*
X57155000Y-73660000D03*
X57155000Y-76200000D03*
X57155000Y-78740000D03*
X57155000Y-81280000D03*
X57155000Y-83820000D03*
X57155000Y-86360000D03*
X57155000Y-88900000D03*
X57155000Y-91440000D03*
X57155000Y-93980000D03*
X72395000Y-93980000D03*
X72395000Y-91440000D03*
X72395000Y-88900000D03*
X72395000Y-86360000D03*
X72395000Y-83820000D03*
X72395000Y-81280000D03*
X72395000Y-78740000D03*
X72395000Y-76200000D03*
X72395000Y-73660000D03*
X72395000Y-71120000D03*
X72395000Y-68580000D03*
X72395000Y-66040000D03*
X72395000Y-63500000D03*
X72395000Y-60960000D03*
X72395000Y-58420000D03*
X72395000Y-55880000D03*
X72395000Y-53340000D03*
X72395000Y-50800000D03*
X72395000Y-48260000D03*
X72395000Y-45720000D03*
D15*
X232410000Y-101600000D03*
D16*
X232410000Y-91440000D03*
D30*
X227950000Y-138430000D03*
X229250000Y-138430000D03*
X227950000Y-140970000D03*
X229250000Y-140970000D03*
X56530000Y-191770000D03*
X55230000Y-191770000D03*
X227950000Y-130810000D03*
X229250000Y-130810000D03*
X227950000Y-121920000D03*
X229250000Y-121920000D03*
X56530000Y-189230000D03*
X55230000Y-189230000D03*
X56530000Y-194310000D03*
X55230000Y-194310000D03*
D31*
X168910000Y-118110000D03*
D32*
X168910000Y-119410000D03*
D30*
X227950000Y-111760000D03*
X229250000Y-111760000D03*
D33*
X67310000Y-58420000D03*
X62230000Y-60960000D03*
D30*
X227950000Y-116840000D03*
X229250000Y-116840000D03*
X56530000Y-199390000D03*
X55230000Y-199390000D03*
X56530000Y-186690000D03*
X55230000Y-186690000D03*
D33*
X62230000Y-53340000D03*
D30*
X227950000Y-114300000D03*
X229250000Y-114300000D03*
X56530000Y-201930000D03*
X55230000Y-201930000D03*
X227950000Y-119380000D03*
X229250000Y-119380000D03*
X227950000Y-133350000D03*
X229250000Y-133350000D03*
D31*
X168910000Y-113538000D03*
D32*
X168910000Y-114838000D03*
D30*
X227950000Y-135890000D03*
X229250000Y-135890000D03*
X56530000Y-196850000D03*
X55230000Y-196850000D03*
%LPD*%
M02*
