G04 #@! TF.GenerationSoftware,KiCad,Pcbnew,8.0.7*
G04 #@! TF.CreationDate,2025-01-05T11:59:37+01:00*
G04 #@! TF.ProjectId,CPU_X-3,4350555f-582d-4332-9e6b-696361645f70,2*
G04 #@! TF.SameCoordinates,Original*
G04 #@! TF.FileFunction,Copper,L2,Bot*
G04 #@! TF.FilePolarity,Positive*
%FSLAX46Y46*%
G04 Gerber Fmt 4.6, Leading zero omitted, Abs format (unit mm)*
G04 Created by KiCad (PCBNEW 8.0.7) date 2025-01-05 11:59:37*
%MOMM*%
%LPD*%
G01*
G04 APERTURE LIST*
G04 Aperture macros list*
%AMFreePoly0*
4,1,19,0.500000,-0.750000,0.000000,-0.750000,0.000000,-0.744911,-0.071157,-0.744911,-0.207708,-0.704816,-0.327430,-0.627875,-0.420627,-0.520320,-0.479746,-0.390866,-0.500000,-0.250000,-0.500000,0.250000,-0.479746,0.390866,-0.420627,0.520320,-0.327430,0.627875,-0.207708,0.704816,-0.071157,0.744911,0.000000,0.744911,0.000000,0.750000,0.500000,0.750000,0.500000,-0.750000,0.500000,-0.750000,
$1*%
%AMFreePoly1*
4,1,19,0.000000,0.744911,0.071157,0.744911,0.207708,0.704816,0.327430,0.627875,0.420627,0.520320,0.479746,0.390866,0.500000,0.250000,0.500000,-0.250000,0.479746,-0.390866,0.420627,-0.520320,0.327430,-0.627875,0.207708,-0.704816,0.071157,-0.744911,0.000000,-0.744911,0.000000,-0.750000,-0.500000,-0.750000,-0.500000,0.750000,0.000000,0.750000,0.000000,0.744911,0.000000,0.744911,
$1*%
G04 Aperture macros list end*
G04 #@! TA.AperFunction,Conductor*
%ADD10C,0.300000*%
G04 #@! TD*
G04 #@! TA.AperFunction,Conductor*
%ADD11C,0.200000*%
G04 #@! TD*
G04 #@! TA.AperFunction,EtchedComponent*
%ADD12C,0.000000*%
G04 #@! TD*
G04 #@! TA.AperFunction,ComponentPad*
%ADD13C,2.000000*%
G04 #@! TD*
G04 #@! TA.AperFunction,ComponentPad*
%ADD14R,1.700000X1.700000*%
G04 #@! TD*
G04 #@! TA.AperFunction,ComponentPad*
%ADD15O,1.700000X1.700000*%
G04 #@! TD*
G04 #@! TA.AperFunction,ComponentPad*
%ADD16C,1.600000*%
G04 #@! TD*
G04 #@! TA.AperFunction,ComponentPad*
%ADD17O,1.600000X1.600000*%
G04 #@! TD*
G04 #@! TA.AperFunction,ComponentPad*
%ADD18R,1.600000X1.600000*%
G04 #@! TD*
G04 #@! TA.AperFunction,ComponentPad*
%ADD19C,2.400000*%
G04 #@! TD*
G04 #@! TA.AperFunction,ComponentPad*
%ADD20R,2.400000X1.600000*%
G04 #@! TD*
G04 #@! TA.AperFunction,ComponentPad*
%ADD21O,2.400000X1.600000*%
G04 #@! TD*
G04 #@! TA.AperFunction,ComponentPad*
%ADD22C,1.500000*%
G04 #@! TD*
G04 #@! TA.AperFunction,ComponentPad*
%ADD23R,1.600000X2.400000*%
G04 #@! TD*
G04 #@! TA.AperFunction,ComponentPad*
%ADD24O,1.600000X2.400000*%
G04 #@! TD*
G04 #@! TA.AperFunction,ComponentPad*
%ADD25R,2.500000X2.500000*%
G04 #@! TD*
G04 #@! TA.AperFunction,ComponentPad*
%ADD26C,2.500000*%
G04 #@! TD*
G04 #@! TA.AperFunction,ComponentPad*
%ADD27R,2.400000X2.400000*%
G04 #@! TD*
G04 #@! TA.AperFunction,ComponentPad*
%ADD28O,2.400000X2.400000*%
G04 #@! TD*
G04 #@! TA.AperFunction,ComponentPad*
%ADD29R,2.250000X2.250000*%
G04 #@! TD*
G04 #@! TA.AperFunction,ComponentPad*
%ADD30C,2.250000*%
G04 #@! TD*
G04 #@! TA.AperFunction,SMDPad,CuDef*
%ADD31R,1.000000X1.500000*%
G04 #@! TD*
G04 #@! TA.AperFunction,SMDPad,CuDef*
%ADD32FreePoly0,270.000000*%
G04 #@! TD*
G04 #@! TA.AperFunction,SMDPad,CuDef*
%ADD33FreePoly1,270.000000*%
G04 #@! TD*
G04 #@! TA.AperFunction,SMDPad,CuDef*
%ADD34R,1.500000X1.500000*%
G04 #@! TD*
G04 #@! TA.AperFunction,ViaPad*
%ADD35C,0.800000*%
G04 #@! TD*
G04 #@! TA.AperFunction,Conductor*
%ADD36C,1.000000*%
G04 #@! TD*
G04 #@! TA.AperFunction,Conductor*
%ADD37C,0.500000*%
G04 #@! TD*
G04 #@! TA.AperFunction,Conductor*
%ADD38C,2.000000*%
G04 #@! TD*
G04 #@! TA.AperFunction,Conductor*
%ADD39C,5.000000*%
G04 #@! TD*
G04 #@! TA.AperFunction,Conductor*
%ADD40C,3.000000*%
G04 #@! TD*
G04 #@! TA.AperFunction,Conductor*
%ADD41C,0.250000*%
G04 #@! TD*
G04 APERTURE END LIST*
D10*
X69769000Y-182118000D02*
G75*
G02*
X69169000Y-182118000I-300000J0D01*
G01*
X69169000Y-182118000D02*
G75*
G02*
X69769000Y-182118000I300000J0D01*
G01*
D11*
X67340815Y-48641000D02*
G75*
G02*
X66263185Y-48641000I-538815J0D01*
G01*
X66263185Y-48641000D02*
G75*
G02*
X67340815Y-48641000I538815J0D01*
G01*
D12*
G04 #@! TA.AperFunction,EtchedComponent*
G36*
X228850000Y-138730000D02*
G01*
X228350000Y-138730000D01*
X228350000Y-138130000D01*
X228850000Y-138130000D01*
X228850000Y-138730000D01*
G37*
G04 #@! TD.AperFunction*
G04 #@! TA.AperFunction,EtchedComponent*
G36*
X228850000Y-141270000D02*
G01*
X228350000Y-141270000D01*
X228350000Y-140670000D01*
X228850000Y-140670000D01*
X228850000Y-141270000D01*
G37*
G04 #@! TD.AperFunction*
G04 #@! TA.AperFunction,EtchedComponent*
G36*
X56130000Y-192070000D02*
G01*
X55630000Y-192070000D01*
X55630000Y-191470000D01*
X56130000Y-191470000D01*
X56130000Y-192070000D01*
G37*
G04 #@! TD.AperFunction*
G04 #@! TA.AperFunction,EtchedComponent*
G36*
X228850000Y-131110000D02*
G01*
X228350000Y-131110000D01*
X228350000Y-130510000D01*
X228850000Y-130510000D01*
X228850000Y-131110000D01*
G37*
G04 #@! TD.AperFunction*
G04 #@! TA.AperFunction,EtchedComponent*
G36*
X228850000Y-122220000D02*
G01*
X228350000Y-122220000D01*
X228350000Y-121620000D01*
X228850000Y-121620000D01*
X228850000Y-122220000D01*
G37*
G04 #@! TD.AperFunction*
G04 #@! TA.AperFunction,EtchedComponent*
G36*
X56130000Y-189530000D02*
G01*
X55630000Y-189530000D01*
X55630000Y-188930000D01*
X56130000Y-188930000D01*
X56130000Y-189530000D01*
G37*
G04 #@! TD.AperFunction*
G04 #@! TA.AperFunction,EtchedComponent*
G36*
X56130000Y-194610000D02*
G01*
X55630000Y-194610000D01*
X55630000Y-194010000D01*
X56130000Y-194010000D01*
X56130000Y-194610000D01*
G37*
G04 #@! TD.AperFunction*
G04 #@! TA.AperFunction,EtchedComponent*
G36*
X169210000Y-119010000D02*
G01*
X168610000Y-119010000D01*
X168610000Y-118510000D01*
X169210000Y-118510000D01*
X169210000Y-119010000D01*
G37*
G04 #@! TD.AperFunction*
G04 #@! TA.AperFunction,EtchedComponent*
G36*
X228850000Y-112060000D02*
G01*
X228350000Y-112060000D01*
X228350000Y-111460000D01*
X228850000Y-111460000D01*
X228850000Y-112060000D01*
G37*
G04 #@! TD.AperFunction*
G04 #@! TA.AperFunction,EtchedComponent*
G36*
X228850000Y-117140000D02*
G01*
X228350000Y-117140000D01*
X228350000Y-116540000D01*
X228850000Y-116540000D01*
X228850000Y-117140000D01*
G37*
G04 #@! TD.AperFunction*
G04 #@! TA.AperFunction,EtchedComponent*
G36*
X56130000Y-199690000D02*
G01*
X55630000Y-199690000D01*
X55630000Y-199090000D01*
X56130000Y-199090000D01*
X56130000Y-199690000D01*
G37*
G04 #@! TD.AperFunction*
G04 #@! TA.AperFunction,EtchedComponent*
G36*
X56130000Y-186990000D02*
G01*
X55630000Y-186990000D01*
X55630000Y-186390000D01*
X56130000Y-186390000D01*
X56130000Y-186990000D01*
G37*
G04 #@! TD.AperFunction*
G04 #@! TA.AperFunction,EtchedComponent*
G36*
X228850000Y-114600000D02*
G01*
X228350000Y-114600000D01*
X228350000Y-114000000D01*
X228850000Y-114000000D01*
X228850000Y-114600000D01*
G37*
G04 #@! TD.AperFunction*
G04 #@! TA.AperFunction,EtchedComponent*
G36*
X56130000Y-202230000D02*
G01*
X55630000Y-202230000D01*
X55630000Y-201630000D01*
X56130000Y-201630000D01*
X56130000Y-202230000D01*
G37*
G04 #@! TD.AperFunction*
G04 #@! TA.AperFunction,EtchedComponent*
G36*
X228850000Y-119680000D02*
G01*
X228350000Y-119680000D01*
X228350000Y-119080000D01*
X228850000Y-119080000D01*
X228850000Y-119680000D01*
G37*
G04 #@! TD.AperFunction*
G04 #@! TA.AperFunction,EtchedComponent*
G36*
X228850000Y-133650000D02*
G01*
X228350000Y-133650000D01*
X228350000Y-133050000D01*
X228850000Y-133050000D01*
X228850000Y-133650000D01*
G37*
G04 #@! TD.AperFunction*
G04 #@! TA.AperFunction,EtchedComponent*
G36*
X169210000Y-114438000D02*
G01*
X168610000Y-114438000D01*
X168610000Y-113938000D01*
X169210000Y-113938000D01*
X169210000Y-114438000D01*
G37*
G04 #@! TD.AperFunction*
G04 #@! TA.AperFunction,EtchedComponent*
G36*
X228850000Y-136190000D02*
G01*
X228350000Y-136190000D01*
X228350000Y-135590000D01*
X228850000Y-135590000D01*
X228850000Y-136190000D01*
G37*
G04 #@! TD.AperFunction*
G04 #@! TA.AperFunction,EtchedComponent*
G36*
X56130000Y-197150000D02*
G01*
X55630000Y-197150000D01*
X55630000Y-196550000D01*
X56130000Y-196550000D01*
X56130000Y-197150000D01*
G37*
G04 #@! TD.AperFunction*
D13*
X247730000Y-99060000D03*
X252730000Y-99060000D03*
D14*
X237490000Y-128270000D03*
D15*
X237490000Y-130810000D03*
X237490000Y-133350000D03*
X237490000Y-135890000D03*
X237490000Y-138430000D03*
X237490000Y-140970000D03*
D13*
X141050000Y-99060000D03*
X146050000Y-99060000D03*
D14*
X91440000Y-158750000D03*
D15*
X91440000Y-161290000D03*
X91440000Y-163830000D03*
X91440000Y-166370000D03*
X91440000Y-168910000D03*
X91440000Y-171450000D03*
X91440000Y-173990000D03*
X91440000Y-176530000D03*
X91440000Y-179070000D03*
X91440000Y-181610000D03*
X91440000Y-184150000D03*
X91440000Y-186690000D03*
D13*
X50800000Y-60960000D03*
X50800000Y-55960000D03*
D16*
X33020000Y-74930000D03*
D17*
X43180000Y-74930000D03*
D16*
X82550000Y-164572000D03*
X82550000Y-162072000D03*
D13*
X191810000Y-99060000D03*
X196810000Y-99060000D03*
D14*
X249174000Y-109220000D03*
D15*
X249174000Y-111760000D03*
X249174000Y-114300000D03*
D18*
X64770000Y-168910000D03*
D17*
X64770000Y-171450000D03*
X64770000Y-173990000D03*
X64770000Y-176530000D03*
X64770000Y-179070000D03*
X64770000Y-181610000D03*
X64770000Y-184150000D03*
X64770000Y-186690000D03*
X64770000Y-189230000D03*
X64770000Y-191770000D03*
X64770000Y-194310000D03*
X64770000Y-196850000D03*
X64770000Y-199390000D03*
X64770000Y-201930000D03*
X80010000Y-201930000D03*
X80010000Y-199390000D03*
X80010000Y-196850000D03*
X80010000Y-194310000D03*
X80010000Y-191770000D03*
X80010000Y-189230000D03*
X80010000Y-186690000D03*
X80010000Y-184150000D03*
X80010000Y-181610000D03*
X80010000Y-179070000D03*
X80010000Y-176530000D03*
X80010000Y-173990000D03*
X80010000Y-171450000D03*
X80010000Y-168910000D03*
D16*
X88900000Y-45720000D03*
D17*
X78740000Y-45720000D03*
D16*
X54610000Y-38100000D03*
X54610000Y-40600000D03*
D19*
X41910000Y-215900000D03*
D14*
X210820000Y-179070000D03*
D15*
X210820000Y-181610000D03*
X210820000Y-184150000D03*
X210820000Y-186690000D03*
X210820000Y-189230000D03*
X210820000Y-191770000D03*
X210820000Y-194310000D03*
X210820000Y-196850000D03*
X210820000Y-199390000D03*
X210820000Y-201930000D03*
X210820000Y-204470000D03*
X210820000Y-207010000D03*
D20*
X224790000Y-158750000D03*
D21*
X224790000Y-161290000D03*
X224790000Y-163830000D03*
X224790000Y-166370000D03*
X224790000Y-168910000D03*
X224790000Y-171450000D03*
X224790000Y-173990000D03*
X224790000Y-176530000D03*
X224790000Y-179070000D03*
X224790000Y-181610000D03*
X224790000Y-184150000D03*
X224790000Y-186690000D03*
X224790000Y-189230000D03*
X224790000Y-191770000D03*
X224790000Y-194310000D03*
X224790000Y-196850000D03*
X224790000Y-199390000D03*
X224790000Y-201930000D03*
X224790000Y-204470000D03*
X224790000Y-207010000D03*
X240030000Y-207010000D03*
X240030000Y-204470000D03*
X240030000Y-201930000D03*
X240030000Y-199390000D03*
X240030000Y-196850000D03*
X240030000Y-194310000D03*
X240030000Y-191770000D03*
X240030000Y-189230000D03*
X240030000Y-186690000D03*
X240030000Y-184150000D03*
X240030000Y-181610000D03*
X240030000Y-179070000D03*
X240030000Y-176530000D03*
X240030000Y-173990000D03*
X240030000Y-171450000D03*
X240030000Y-168910000D03*
X240030000Y-166370000D03*
X240030000Y-163830000D03*
X240030000Y-161290000D03*
X240030000Y-158750000D03*
D13*
X90170000Y-99060000D03*
X95170000Y-99060000D03*
D22*
X62312500Y-38100000D03*
X67312500Y-38100000D03*
D16*
X62230000Y-162072000D03*
X62230000Y-164572000D03*
D22*
X69850000Y-161798000D03*
X74850000Y-161798000D03*
D23*
X69850000Y-129794000D03*
D24*
X72390000Y-129794000D03*
X74930000Y-129794000D03*
X77470000Y-129794000D03*
X80010000Y-129794000D03*
X82550000Y-129794000D03*
X85090000Y-129794000D03*
X85090000Y-122174000D03*
X82550000Y-122174000D03*
X80010000Y-122174000D03*
X77470000Y-122174000D03*
X74930000Y-122174000D03*
X72390000Y-122174000D03*
X69850000Y-122174000D03*
D13*
X229950000Y-212090000D03*
X234950000Y-212090000D03*
X181690000Y-148590000D03*
X186690000Y-148590000D03*
D23*
X96520000Y-129540000D03*
D24*
X99060000Y-129540000D03*
X101600000Y-129540000D03*
X104140000Y-129540000D03*
X106680000Y-129540000D03*
X109220000Y-129540000D03*
X111760000Y-129540000D03*
X114300000Y-129540000D03*
X116840000Y-129540000D03*
X119380000Y-129540000D03*
X121920000Y-129540000D03*
X124460000Y-129540000D03*
X124460000Y-121920000D03*
X121920000Y-121920000D03*
X119380000Y-121920000D03*
X116840000Y-121920000D03*
X114300000Y-121920000D03*
X111760000Y-121920000D03*
X109220000Y-121920000D03*
X106680000Y-121920000D03*
X104140000Y-121920000D03*
X101600000Y-121920000D03*
X99060000Y-121920000D03*
X96520000Y-121920000D03*
D20*
X201930000Y-91440000D03*
D21*
X201930000Y-88900000D03*
X201930000Y-86360000D03*
X201930000Y-83820000D03*
X201930000Y-81280000D03*
X201930000Y-78740000D03*
X201930000Y-76200000D03*
X201930000Y-73660000D03*
X201930000Y-71120000D03*
X201930000Y-68580000D03*
X201930000Y-66040000D03*
X201930000Y-63500000D03*
X201930000Y-60960000D03*
X201930000Y-58420000D03*
X186690000Y-58420000D03*
X186690000Y-60960000D03*
X186690000Y-63500000D03*
X186690000Y-66040000D03*
X186690000Y-68580000D03*
X186690000Y-71120000D03*
X186690000Y-73660000D03*
X186690000Y-76200000D03*
X186690000Y-78740000D03*
X186690000Y-81280000D03*
X186690000Y-83820000D03*
X186690000Y-86360000D03*
X186690000Y-88900000D03*
X186690000Y-91440000D03*
D14*
X237490000Y-109220000D03*
D15*
X237490000Y-111760000D03*
X237490000Y-114300000D03*
X237490000Y-116840000D03*
X237490000Y-119380000D03*
X237490000Y-121920000D03*
D13*
X120476000Y-212090000D03*
X125476000Y-212090000D03*
X173926956Y-212090000D03*
X178926956Y-212090000D03*
D14*
X50800000Y-184150000D03*
D15*
X50800000Y-186690000D03*
X50800000Y-189230000D03*
X50800000Y-191770000D03*
X50800000Y-194310000D03*
X50800000Y-196850000D03*
X50800000Y-199390000D03*
X50800000Y-201930000D03*
D20*
X176530000Y-113030000D03*
D21*
X176530000Y-115570000D03*
X176530000Y-118110000D03*
X176530000Y-120650000D03*
X176530000Y-123190000D03*
X176530000Y-125730000D03*
X176530000Y-128270000D03*
X176530000Y-130810000D03*
X176530000Y-133350000D03*
X176530000Y-135890000D03*
X176530000Y-138430000D03*
X176530000Y-140970000D03*
X191770000Y-140970000D03*
X191770000Y-138430000D03*
X191770000Y-135890000D03*
X191770000Y-133350000D03*
X191770000Y-130810000D03*
X191770000Y-128270000D03*
X191770000Y-125730000D03*
X191770000Y-123190000D03*
X191770000Y-120650000D03*
X191770000Y-118110000D03*
X191770000Y-115570000D03*
X191770000Y-113030000D03*
D16*
X237490000Y-101600000D03*
D17*
X237490000Y-91440000D03*
D13*
X151210000Y-148590000D03*
X156210000Y-148590000D03*
D14*
X43180000Y-184150000D03*
D15*
X43180000Y-186690000D03*
X43180000Y-189230000D03*
D23*
X40640000Y-129540000D03*
D24*
X43180000Y-129540000D03*
X45720000Y-129540000D03*
X48260000Y-129540000D03*
X50800000Y-129540000D03*
X53340000Y-129540000D03*
X55880000Y-129540000D03*
X58420000Y-129540000D03*
X58420000Y-121920000D03*
X55880000Y-121920000D03*
X53340000Y-121920000D03*
X50800000Y-121920000D03*
X48260000Y-121920000D03*
X45720000Y-121920000D03*
X43180000Y-121920000D03*
X40640000Y-121920000D03*
D20*
X146050000Y-110490000D03*
D21*
X146050000Y-113030000D03*
X146050000Y-115570000D03*
X146050000Y-118110000D03*
X146050000Y-120650000D03*
X146050000Y-123190000D03*
X146050000Y-125730000D03*
X146050000Y-128270000D03*
X146050000Y-130810000D03*
X146050000Y-133350000D03*
X146050000Y-135890000D03*
X146050000Y-138430000D03*
X146050000Y-140970000D03*
X146050000Y-143510000D03*
X161290000Y-143510000D03*
X161290000Y-140970000D03*
X161290000Y-138430000D03*
X161290000Y-135890000D03*
X161290000Y-133350000D03*
X161290000Y-130810000D03*
X161290000Y-128270000D03*
X161290000Y-125730000D03*
X161290000Y-123190000D03*
X161290000Y-120650000D03*
X161290000Y-118110000D03*
X161290000Y-115570000D03*
X161290000Y-113030000D03*
X161290000Y-110490000D03*
D14*
X104140000Y-145034000D03*
D15*
X106680000Y-145034000D03*
X109220000Y-145034000D03*
X111760000Y-145034000D03*
X114300000Y-145034000D03*
D20*
X125730000Y-91440000D03*
D21*
X125730000Y-88900000D03*
X125730000Y-86360000D03*
X125730000Y-83820000D03*
X125730000Y-81280000D03*
X125730000Y-78740000D03*
X125730000Y-76200000D03*
X125730000Y-73660000D03*
X125730000Y-71120000D03*
X125730000Y-68580000D03*
X125730000Y-66040000D03*
X125730000Y-63500000D03*
X125730000Y-60960000D03*
X125730000Y-58420000D03*
X110490000Y-58420000D03*
X110490000Y-60960000D03*
X110490000Y-63500000D03*
X110490000Y-66040000D03*
X110490000Y-68580000D03*
X110490000Y-71120000D03*
X110490000Y-73660000D03*
X110490000Y-76200000D03*
X110490000Y-78740000D03*
X110490000Y-81280000D03*
X110490000Y-83820000D03*
X110490000Y-86360000D03*
X110490000Y-88900000D03*
X110490000Y-91440000D03*
D20*
X227330000Y-91440000D03*
D21*
X227330000Y-88900000D03*
X227330000Y-86360000D03*
X227330000Y-83820000D03*
X227330000Y-81280000D03*
X227330000Y-78740000D03*
X227330000Y-76200000D03*
X227330000Y-73660000D03*
X227330000Y-71120000D03*
X227330000Y-68580000D03*
X227330000Y-66040000D03*
X227330000Y-63500000D03*
X227330000Y-60960000D03*
X227330000Y-58420000D03*
X212090000Y-58420000D03*
X212090000Y-60960000D03*
X212090000Y-63500000D03*
X212090000Y-66040000D03*
X212090000Y-68580000D03*
X212090000Y-71120000D03*
X212090000Y-73660000D03*
X212090000Y-76200000D03*
X212090000Y-78740000D03*
X212090000Y-81280000D03*
X212090000Y-83820000D03*
X212090000Y-86360000D03*
X212090000Y-88900000D03*
X212090000Y-91440000D03*
D13*
X166450000Y-99060000D03*
X171450000Y-99060000D03*
D20*
X198120000Y-113030000D03*
D21*
X198120000Y-115570000D03*
X198120000Y-118110000D03*
X198120000Y-120650000D03*
X198120000Y-123190000D03*
X198120000Y-125730000D03*
X198120000Y-128270000D03*
X198120000Y-130810000D03*
X198120000Y-133350000D03*
X198120000Y-135890000D03*
X198120000Y-138430000D03*
X198120000Y-140970000D03*
X213360000Y-140970000D03*
X213360000Y-138430000D03*
X213360000Y-135890000D03*
X213360000Y-133350000D03*
X213360000Y-130810000D03*
X213360000Y-128270000D03*
X213360000Y-125730000D03*
X213360000Y-123190000D03*
X213360000Y-120650000D03*
X213360000Y-118110000D03*
X213360000Y-115570000D03*
X213360000Y-113030000D03*
D20*
X115505825Y-158750000D03*
D21*
X115505825Y-161290000D03*
X115505825Y-163830000D03*
X115505825Y-166370000D03*
X115505825Y-168910000D03*
X115505825Y-171450000D03*
X115505825Y-173990000D03*
X115505825Y-176530000D03*
X115505825Y-179070000D03*
X115505825Y-181610000D03*
X115505825Y-184150000D03*
X115505825Y-186690000D03*
X115505825Y-189230000D03*
X115505825Y-191770000D03*
X115505825Y-194310000D03*
X115505825Y-196850000D03*
X115505825Y-199390000D03*
X115505825Y-201930000D03*
X115505825Y-204470000D03*
X115505825Y-207010000D03*
X130745825Y-207010000D03*
X130745825Y-204470000D03*
X130745825Y-201930000D03*
X130745825Y-199390000D03*
X130745825Y-196850000D03*
X130745825Y-194310000D03*
X130745825Y-191770000D03*
X130745825Y-189230000D03*
X130745825Y-186690000D03*
X130745825Y-184150000D03*
X130745825Y-181610000D03*
X130745825Y-179070000D03*
X130745825Y-176530000D03*
X130745825Y-173990000D03*
X130745825Y-171450000D03*
X130745825Y-168910000D03*
X130745825Y-166370000D03*
X130745825Y-163830000D03*
X130745825Y-161290000D03*
X130745825Y-158750000D03*
D25*
X248920000Y-40640000D03*
D26*
X248920000Y-45720000D03*
D20*
X257810000Y-91440000D03*
D21*
X257810000Y-88900000D03*
X257810000Y-86360000D03*
X257810000Y-83820000D03*
X257810000Y-81280000D03*
X257810000Y-78740000D03*
X257810000Y-76200000D03*
X257810000Y-73660000D03*
X257810000Y-71120000D03*
X257810000Y-68580000D03*
X257810000Y-66040000D03*
X257810000Y-63500000D03*
X257810000Y-60960000D03*
X257810000Y-58420000D03*
X242570000Y-58420000D03*
X242570000Y-60960000D03*
X242570000Y-63500000D03*
X242570000Y-66040000D03*
X242570000Y-68580000D03*
X242570000Y-71120000D03*
X242570000Y-73660000D03*
X242570000Y-76200000D03*
X242570000Y-78740000D03*
X242570000Y-81280000D03*
X242570000Y-83820000D03*
X242570000Y-86360000D03*
X242570000Y-88900000D03*
X242570000Y-91440000D03*
D16*
X33020000Y-57040000D03*
D17*
X43180000Y-57040000D03*
D13*
X203200000Y-148590000D03*
X208200000Y-148590000D03*
D14*
X144526000Y-158750000D03*
D15*
X144526000Y-161290000D03*
X144526000Y-163830000D03*
X144526000Y-166370000D03*
X144526000Y-168910000D03*
X144526000Y-171450000D03*
X144526000Y-173990000D03*
X144526000Y-176530000D03*
X144526000Y-179070000D03*
X144526000Y-181610000D03*
X144526000Y-184150000D03*
X144526000Y-186690000D03*
D20*
X151130000Y-91440000D03*
D21*
X151130000Y-88900000D03*
X151130000Y-86360000D03*
X151130000Y-83820000D03*
X151130000Y-81280000D03*
X151130000Y-78740000D03*
X151130000Y-76200000D03*
X151130000Y-73660000D03*
X151130000Y-71120000D03*
X151130000Y-68580000D03*
X151130000Y-66040000D03*
X151130000Y-63500000D03*
X151130000Y-60960000D03*
X151130000Y-58420000D03*
X135890000Y-58420000D03*
X135890000Y-60960000D03*
X135890000Y-63500000D03*
X135890000Y-66040000D03*
X135890000Y-68580000D03*
X135890000Y-71120000D03*
X135890000Y-73660000D03*
X135890000Y-76200000D03*
X135890000Y-78740000D03*
X135890000Y-81280000D03*
X135890000Y-83820000D03*
X135890000Y-86360000D03*
X135890000Y-88900000D03*
X135890000Y-91440000D03*
D20*
X176530000Y-91440000D03*
D21*
X176530000Y-88900000D03*
X176530000Y-86360000D03*
X176530000Y-83820000D03*
X176530000Y-81280000D03*
X176530000Y-78740000D03*
X176530000Y-76200000D03*
X176530000Y-73660000D03*
X176530000Y-71120000D03*
X176530000Y-68580000D03*
X176530000Y-66040000D03*
X176530000Y-63500000D03*
X176530000Y-60960000D03*
X176530000Y-58420000D03*
X161290000Y-58420000D03*
X161290000Y-60960000D03*
X161290000Y-63500000D03*
X161290000Y-66040000D03*
X161290000Y-68580000D03*
X161290000Y-71120000D03*
X161290000Y-73660000D03*
X161290000Y-76200000D03*
X161290000Y-78740000D03*
X161290000Y-81280000D03*
X161290000Y-83820000D03*
X161290000Y-86360000D03*
X161290000Y-88900000D03*
X161290000Y-91440000D03*
D20*
X100330000Y-91440000D03*
D21*
X100330000Y-88900000D03*
X100330000Y-86360000D03*
X100330000Y-83820000D03*
X100330000Y-81280000D03*
X100330000Y-78740000D03*
X100330000Y-76200000D03*
X100330000Y-73660000D03*
X100330000Y-71120000D03*
X100330000Y-68580000D03*
X100330000Y-66040000D03*
X100330000Y-63500000D03*
X100330000Y-60960000D03*
X100330000Y-58420000D03*
X85090000Y-58420000D03*
X85090000Y-60960000D03*
X85090000Y-63500000D03*
X85090000Y-66040000D03*
X85090000Y-68580000D03*
X85090000Y-71120000D03*
X85090000Y-73660000D03*
X85090000Y-76200000D03*
X85090000Y-78740000D03*
X85090000Y-81280000D03*
X85090000Y-83820000D03*
X85090000Y-86360000D03*
X85090000Y-88900000D03*
X85090000Y-91440000D03*
D13*
X217250000Y-99060000D03*
X222250000Y-99060000D03*
D14*
X200660000Y-158750000D03*
D15*
X200660000Y-161290000D03*
X200660000Y-163830000D03*
X200660000Y-166370000D03*
X200660000Y-168910000D03*
X200660000Y-171450000D03*
X200660000Y-173990000D03*
X200660000Y-176530000D03*
X200660000Y-179070000D03*
X200660000Y-181610000D03*
X200660000Y-184150000D03*
X200660000Y-186690000D03*
D13*
X115650000Y-99060000D03*
X120650000Y-99060000D03*
D14*
X250698000Y-166370000D03*
D15*
X250698000Y-168910000D03*
X250698000Y-171450000D03*
X250698000Y-173990000D03*
X250698000Y-176530000D03*
X250698000Y-179070000D03*
X250698000Y-181610000D03*
X250698000Y-184150000D03*
X250698000Y-186690000D03*
X250698000Y-189230000D03*
X250698000Y-191770000D03*
X250698000Y-194310000D03*
X250698000Y-196850000D03*
X250698000Y-199390000D03*
X250698000Y-201930000D03*
X250698000Y-204470000D03*
X250698000Y-207010000D03*
D19*
X31750000Y-219710000D03*
D16*
X33020000Y-69850000D03*
D17*
X43180000Y-69850000D03*
D27*
X43180000Y-50800000D03*
D28*
X43180000Y-32800000D03*
D14*
X249174000Y-128270000D03*
D15*
X249174000Y-130810000D03*
X249174000Y-133350000D03*
D16*
X33020000Y-64660000D03*
D17*
X43180000Y-64660000D03*
D14*
X124460000Y-113792000D03*
D15*
X121920000Y-113792000D03*
X119380000Y-113792000D03*
X116840000Y-113792000D03*
X114300000Y-113792000D03*
D14*
X101600000Y-179070000D03*
D15*
X101600000Y-181610000D03*
X101600000Y-184150000D03*
X101600000Y-186690000D03*
X101600000Y-189230000D03*
X101600000Y-191770000D03*
X101600000Y-194310000D03*
X101600000Y-196850000D03*
X101600000Y-199390000D03*
X101600000Y-201930000D03*
X101600000Y-204470000D03*
X101600000Y-207010000D03*
D16*
X74930000Y-40600000D03*
X74930000Y-38100000D03*
D29*
X35565000Y-32905000D03*
D30*
X35565000Y-39405000D03*
D20*
X168766956Y-158750000D03*
D21*
X168766956Y-161290000D03*
X168766956Y-163830000D03*
X168766956Y-166370000D03*
X168766956Y-168910000D03*
X168766956Y-171450000D03*
X168766956Y-173990000D03*
X168766956Y-176530000D03*
X168766956Y-179070000D03*
X168766956Y-181610000D03*
X168766956Y-184150000D03*
X168766956Y-186690000D03*
X168766956Y-189230000D03*
X168766956Y-191770000D03*
X168766956Y-194310000D03*
X168766956Y-196850000D03*
X168766956Y-199390000D03*
X168766956Y-201930000D03*
X168766956Y-204470000D03*
X168766956Y-207010000D03*
X184006956Y-207010000D03*
X184006956Y-204470000D03*
X184006956Y-201930000D03*
X184006956Y-199390000D03*
X184006956Y-196850000D03*
X184006956Y-194310000D03*
X184006956Y-191770000D03*
X184006956Y-189230000D03*
X184006956Y-186690000D03*
X184006956Y-184150000D03*
X184006956Y-181610000D03*
X184006956Y-179070000D03*
X184006956Y-176530000D03*
X184006956Y-173990000D03*
X184006956Y-171450000D03*
X184006956Y-168910000D03*
X184006956Y-166370000D03*
X184006956Y-163830000D03*
X184006956Y-161290000D03*
X184006956Y-158750000D03*
D14*
X154940000Y-179070000D03*
D15*
X154940000Y-181610000D03*
X154940000Y-184150000D03*
X154940000Y-186690000D03*
X154940000Y-189230000D03*
X154940000Y-191770000D03*
X154940000Y-194310000D03*
X154940000Y-196850000D03*
X154940000Y-199390000D03*
X154940000Y-201930000D03*
X154940000Y-204470000D03*
X154940000Y-207010000D03*
D13*
X74890000Y-209550000D03*
X69890000Y-209550000D03*
D20*
X57155000Y-45720000D03*
D21*
X57155000Y-48260000D03*
X57155000Y-50800000D03*
X57155000Y-53340000D03*
X57155000Y-55880000D03*
X57155000Y-58420000D03*
X57155000Y-60960000D03*
X57155000Y-63500000D03*
X57155000Y-66040000D03*
X57155000Y-68580000D03*
X57155000Y-71120000D03*
X57155000Y-73660000D03*
X57155000Y-76200000D03*
X57155000Y-78740000D03*
X57155000Y-81280000D03*
X57155000Y-83820000D03*
X57155000Y-86360000D03*
X57155000Y-88900000D03*
X57155000Y-91440000D03*
X57155000Y-93980000D03*
X72395000Y-93980000D03*
X72395000Y-91440000D03*
X72395000Y-88900000D03*
X72395000Y-86360000D03*
X72395000Y-83820000D03*
X72395000Y-81280000D03*
X72395000Y-78740000D03*
X72395000Y-76200000D03*
X72395000Y-73660000D03*
X72395000Y-71120000D03*
X72395000Y-68580000D03*
X72395000Y-66040000D03*
X72395000Y-63500000D03*
X72395000Y-60960000D03*
X72395000Y-58420000D03*
X72395000Y-55880000D03*
X72395000Y-53340000D03*
X72395000Y-50800000D03*
X72395000Y-48260000D03*
X72395000Y-45720000D03*
D16*
X232410000Y-101600000D03*
D17*
X232410000Y-91440000D03*
D31*
X227950000Y-138430000D03*
X229250000Y-138430000D03*
X227950000Y-140970000D03*
X229250000Y-140970000D03*
X56530000Y-191770000D03*
X55230000Y-191770000D03*
X227950000Y-130810000D03*
X229250000Y-130810000D03*
X227950000Y-121920000D03*
X229250000Y-121920000D03*
X56530000Y-189230000D03*
X55230000Y-189230000D03*
X56530000Y-194310000D03*
X55230000Y-194310000D03*
D32*
X168910000Y-118110000D03*
D33*
X168910000Y-119410000D03*
D31*
X227950000Y-111760000D03*
X229250000Y-111760000D03*
D34*
X67310000Y-58420000D03*
X62230000Y-60960000D03*
D31*
X227950000Y-116840000D03*
X229250000Y-116840000D03*
X56530000Y-199390000D03*
X55230000Y-199390000D03*
X56530000Y-186690000D03*
X55230000Y-186690000D03*
D34*
X62230000Y-53340000D03*
D31*
X227950000Y-114300000D03*
X229250000Y-114300000D03*
X56530000Y-201930000D03*
X55230000Y-201930000D03*
X227950000Y-119380000D03*
X229250000Y-119380000D03*
X227950000Y-133350000D03*
X229250000Y-133350000D03*
D32*
X168910000Y-113538000D03*
D33*
X168910000Y-114838000D03*
D31*
X227950000Y-135890000D03*
X229250000Y-135890000D03*
X56530000Y-196850000D03*
X55230000Y-196850000D03*
D35*
X267970000Y-153670000D03*
X154940000Y-153670000D03*
X168766956Y-153670000D03*
X266700000Y-219710000D03*
X267970000Y-54610000D03*
X200660000Y-153670000D03*
X257810000Y-96520000D03*
X186690000Y-153670000D03*
X69850000Y-219710000D03*
X267970000Y-151130000D03*
X115570000Y-153670000D03*
X58420000Y-153670000D03*
X267970000Y-53340000D03*
X267970000Y-218440000D03*
X234950000Y-219710000D03*
X267970000Y-95250000D03*
X267970000Y-109220000D03*
X91440000Y-153670000D03*
X156210000Y-153670000D03*
X125476000Y-219710000D03*
X178926956Y-219710000D03*
X124460000Y-153670000D03*
X267970000Y-55880000D03*
X210820000Y-153670000D03*
X85090000Y-153670000D03*
X267970000Y-96520000D03*
X208280000Y-153670000D03*
X144526000Y-153670000D03*
X267970000Y-219710000D03*
X267970000Y-97790000D03*
X250698000Y-219710000D03*
X224790000Y-153670000D03*
X267970000Y-128270000D03*
X101600000Y-153670000D03*
X267970000Y-152400000D03*
X50800000Y-50800000D03*
X152400000Y-175260000D03*
X83820000Y-175260000D03*
X91440000Y-215900000D03*
X264160000Y-151130000D03*
X40640000Y-101600000D03*
X69850000Y-101600000D03*
X41148000Y-41402000D03*
X262890000Y-215900000D03*
X264160000Y-149860000D03*
X96520000Y-101600000D03*
X264160000Y-148590000D03*
X101600000Y-215900000D03*
X40132000Y-42418000D03*
X154940000Y-215900000D03*
X264160000Y-101600000D03*
X264160000Y-214630000D03*
X264160000Y-215900000D03*
X200660000Y-215900000D03*
X144526000Y-215900000D03*
X264160000Y-100330000D03*
X264160000Y-102870000D03*
X210820000Y-215900000D03*
X80010000Y-215900000D03*
X152400000Y-167640000D03*
X36830000Y-151384000D03*
X121920000Y-151384000D03*
X38100000Y-103124000D03*
X171958000Y-103254400D03*
X41910000Y-97790000D03*
X44522500Y-95604500D03*
X47034800Y-92584800D03*
X166281200Y-110490000D03*
X220218000Y-177709000D03*
X205063300Y-116840000D03*
X119126000Y-195580000D03*
X220218000Y-182789000D03*
X124206000Y-190500000D03*
X78745300Y-59647350D03*
X126746000Y-187960000D03*
X220218000Y-185329000D03*
X197104000Y-195500400D03*
X120396000Y-177800000D03*
X121666000Y-193040000D03*
X76200000Y-59690000D03*
X180340000Y-121840500D03*
X125476000Y-182880000D03*
X173190300Y-129459000D03*
X122936000Y-180340000D03*
X195580000Y-193040000D03*
X85090000Y-172720000D03*
X165100000Y-205669200D03*
X152654000Y-134620000D03*
X165100000Y-200660000D03*
X86360000Y-172720000D03*
X150396000Y-129618000D03*
X82042000Y-96520000D03*
X57150000Y-96774000D03*
X82042000Y-94742000D03*
X61976000Y-124968000D03*
X82042000Y-98298000D03*
X232410000Y-86360000D03*
X237490000Y-88900000D03*
X77470000Y-88900000D03*
X208280000Y-88900000D03*
X220218000Y-208335800D03*
X78820000Y-109982000D03*
X158242000Y-104025900D03*
X102870000Y-111252000D03*
X240030000Y-103886000D03*
X131064000Y-108204000D03*
X186442000Y-102822600D03*
X207010000Y-71120000D03*
X207010000Y-104140000D03*
X53340000Y-147320000D03*
X88900000Y-147320000D03*
X88900000Y-198161000D03*
X54610000Y-145034000D03*
X134620000Y-135890000D03*
X136714825Y-203200000D03*
X137160000Y-134620000D03*
X139700000Y-209804000D03*
X198120000Y-209804000D03*
X198120000Y-203200000D03*
X195326000Y-145542000D03*
X110490000Y-156718000D03*
X110490000Y-160020000D03*
X106680000Y-179070000D03*
X162560000Y-156718000D03*
X160020000Y-179070000D03*
X162560000Y-160061000D03*
X216154000Y-160020000D03*
X216154000Y-156718000D03*
X213868000Y-179070000D03*
X173736000Y-107188000D03*
X178816000Y-108204000D03*
X218186000Y-130810000D03*
X223520000Y-130810000D03*
X218186000Y-124411500D03*
X223520000Y-133350000D03*
X132080000Y-137160000D03*
D36*
X54610000Y-38100000D02*
X62312500Y-38100000D01*
X62312500Y-47580500D02*
X65532000Y-50800000D01*
X65532000Y-50800000D02*
X72395000Y-50800000D01*
X62312500Y-38100000D02*
X62312500Y-47580500D01*
D37*
X145786200Y-111083300D02*
X146050000Y-111347100D01*
X143510000Y-113792000D02*
X143510000Y-118110000D01*
D38*
X58420000Y-163322000D02*
X58420000Y-156972000D01*
X61214000Y-164592000D02*
X61234000Y-164572000D01*
D39*
X246380000Y-40640000D02*
X227330000Y-40640000D01*
D37*
X52070000Y-133096000D02*
X57150000Y-133096000D01*
D38*
X171450000Y-219710000D02*
X104140000Y-219710000D01*
D40*
X49530000Y-40640000D02*
X49530000Y-33020000D01*
D37*
X74930000Y-129540000D02*
X74930000Y-133096000D01*
X252730000Y-99060000D02*
X252730000Y-96520000D01*
X143510000Y-124714000D02*
X144526000Y-125730000D01*
D36*
X224790000Y-153670000D02*
X220980000Y-153670000D01*
D37*
X70993000Y-133096000D02*
X74930000Y-133096000D01*
X144272000Y-113030000D02*
X143510000Y-113792000D01*
D38*
X58420000Y-163322000D02*
X59690000Y-164592000D01*
X267970000Y-153670000D02*
X267970000Y-151130000D01*
X49530000Y-43180000D02*
X52070000Y-45720000D01*
D36*
X95210000Y-96520000D02*
X95170000Y-96560000D01*
D37*
X50800000Y-55960000D02*
X53340000Y-53420000D01*
D39*
X64770000Y-33020000D02*
X49530000Y-33020000D01*
D37*
X246380000Y-40640000D02*
X248920000Y-40640000D01*
X237490000Y-109220000D02*
X267970000Y-109220000D01*
D38*
X54610000Y-40600000D02*
X49570000Y-40600000D01*
D36*
X146050000Y-96520000D02*
X119380000Y-96520000D01*
X93980000Y-153670000D02*
X85090000Y-153670000D01*
D37*
X83820000Y-133096000D02*
X85090000Y-131826000D01*
D36*
X196850000Y-96520000D02*
X171450000Y-96520000D01*
X266700000Y-153670000D02*
X224790000Y-153670000D01*
X266700000Y-96520000D02*
X257810000Y-96520000D01*
D38*
X267970000Y-95250000D02*
X266700000Y-96520000D01*
D36*
X171450000Y-96520000D02*
X146050000Y-96520000D01*
D37*
X64770000Y-167112000D02*
X62230000Y-164572000D01*
X69850000Y-131953000D02*
X70993000Y-133096000D01*
D39*
X151384000Y-40640000D02*
X126238000Y-40640000D01*
D40*
X262890000Y-40640000D02*
X248920000Y-40640000D01*
D39*
X176530000Y-40640000D02*
X151384000Y-40640000D01*
D38*
X86320000Y-156972000D02*
X86320000Y-163322000D01*
X74930000Y-40600000D02*
X77470000Y-40600000D01*
X85090000Y-164552000D02*
X82550000Y-164552000D01*
D36*
X133158825Y-153670000D02*
X124268825Y-153670000D01*
D38*
X64770000Y-33020000D02*
X64770000Y-46609000D01*
D37*
X196810000Y-96560000D02*
X196850000Y-96520000D01*
D39*
X59436000Y-155956000D02*
X58420000Y-156972000D01*
D38*
X267970000Y-219710000D02*
X231140000Y-219710000D01*
D37*
X57150000Y-133096000D02*
X58420000Y-131826000D01*
D39*
X99060000Y-40513000D02*
X99060000Y-40640000D01*
D38*
X61234000Y-164572000D02*
X62230000Y-164572000D01*
D40*
X49530000Y-43180000D02*
X49530000Y-40640000D01*
D36*
X72390000Y-179197000D02*
X69469000Y-182118000D01*
D39*
X91567000Y-33020000D02*
X99060000Y-40513000D01*
D37*
X120650000Y-99060000D02*
X120650000Y-96520000D01*
X222250000Y-99060000D02*
X222250000Y-96520000D01*
X55626000Y-184150000D02*
X58420000Y-181356000D01*
D36*
X176530000Y-58420000D02*
X176530000Y-40640000D01*
D37*
X43400000Y-33020000D02*
X43180000Y-32800000D01*
X125730000Y-41148000D02*
X126238000Y-40640000D01*
D36*
X161290000Y-153670000D02*
X156210000Y-153670000D01*
X222250000Y-96520000D02*
X196850000Y-96520000D01*
X115570000Y-153670000D02*
X93980000Y-153670000D01*
D38*
X260195000Y-55880000D02*
X257810000Y-58265000D01*
D37*
X50800000Y-131826000D02*
X52070000Y-133096000D01*
X171450000Y-99060000D02*
X171450000Y-96520000D01*
D39*
X227330000Y-40640000D02*
X201930000Y-40640000D01*
D37*
X143510000Y-118110000D02*
X143510000Y-120650000D01*
X146050000Y-113030000D02*
X144272000Y-113030000D01*
D39*
X71882000Y-155956000D02*
X59436000Y-155956000D01*
D37*
X146050000Y-99060000D02*
X146050000Y-96520000D01*
X50800000Y-129540000D02*
X48260000Y-129540000D01*
D39*
X71882000Y-155956000D02*
X85304000Y-155956000D01*
D37*
X154940000Y-115570000D02*
X161290000Y-115570000D01*
D38*
X77470000Y-40600000D02*
X78700000Y-39370000D01*
D41*
X40525000Y-32905000D02*
X40640000Y-33020000D01*
D37*
X50800000Y-184150000D02*
X43180000Y-184150000D01*
X161290000Y-110490000D02*
X146050000Y-110490000D01*
X53340000Y-53420000D02*
X53340000Y-45720000D01*
D36*
X252730000Y-96520000D02*
X222250000Y-96520000D01*
D37*
X151130000Y-40894000D02*
X151384000Y-40640000D01*
D36*
X210820000Y-153670000D02*
X199390000Y-153670000D01*
X199390000Y-153670000D02*
X186690000Y-153670000D01*
X257810000Y-96520000D02*
X252730000Y-96520000D01*
X201930000Y-58420000D02*
X201930000Y-40640000D01*
D38*
X267970000Y-97790000D02*
X267970000Y-95250000D01*
D36*
X119380000Y-96520000D02*
X95210000Y-96520000D01*
D38*
X52070000Y-45720000D02*
X53340000Y-45720000D01*
X72390000Y-179197000D02*
X72390000Y-156464000D01*
D37*
X146050000Y-120650000D02*
X143510000Y-120650000D01*
D36*
X223520000Y-153670000D02*
X210820000Y-153670000D01*
X125730000Y-58420000D02*
X125730000Y-41148000D01*
D38*
X35565000Y-32905000D02*
X40525000Y-32905000D01*
D36*
X85090000Y-153670000D02*
X58420000Y-153670000D01*
X267970000Y-96520000D02*
X266700000Y-96520000D01*
D40*
X267970000Y-45720000D02*
X262890000Y-40640000D01*
X267970000Y-55880000D02*
X267970000Y-54610000D01*
D37*
X146050000Y-111347100D02*
X146050000Y-113030000D01*
X146050000Y-118110000D02*
X143510000Y-118110000D01*
X80010000Y-133096000D02*
X83820000Y-133096000D01*
D38*
X267970000Y-97790000D02*
X266700000Y-96520000D01*
D37*
X74930000Y-133096000D02*
X80010000Y-133096000D01*
D36*
X267970000Y-153670000D02*
X266700000Y-153670000D01*
D39*
X85304000Y-155956000D02*
X86320000Y-156972000D01*
D36*
X227330000Y-58420000D02*
X227330000Y-40640000D01*
D37*
X64770000Y-168910000D02*
X64770000Y-167112000D01*
X196810000Y-99060000D02*
X196810000Y-96560000D01*
D36*
X144780000Y-153670000D02*
X133350000Y-153670000D01*
D38*
X86320000Y-163322000D02*
X85090000Y-164552000D01*
D36*
X151130000Y-58420000D02*
X151130000Y-40894000D01*
D38*
X267970000Y-218440000D02*
X267970000Y-219710000D01*
D37*
X49570000Y-40600000D02*
X49530000Y-40640000D01*
X95170000Y-99060000D02*
X95170000Y-96560000D01*
X80010000Y-129540000D02*
X80010000Y-133096000D01*
X69850000Y-129540000D02*
X69850000Y-131953000D01*
D36*
X100330000Y-58420000D02*
X100330000Y-41910000D01*
D39*
X40640000Y-33020000D02*
X49530000Y-33020000D01*
D38*
X53340000Y-45720000D02*
X57155000Y-45720000D01*
D39*
X201930000Y-40640000D02*
X176530000Y-40640000D01*
X126238000Y-40640000D02*
X99060000Y-40640000D01*
D37*
X50800000Y-129540000D02*
X50800000Y-131826000D01*
D38*
X72390000Y-156464000D02*
X71882000Y-155956000D01*
D37*
X146050000Y-118110000D02*
X152400000Y-118110000D01*
D36*
X156210000Y-153670000D02*
X144780000Y-153670000D01*
D38*
X267970000Y-151130000D02*
X266700000Y-152400000D01*
X64770000Y-46609000D02*
X66802000Y-48641000D01*
D37*
X152400000Y-118110000D02*
X154940000Y-115570000D01*
D38*
X104140000Y-219710000D02*
X31750000Y-219710000D01*
D37*
X100330000Y-41910000D02*
X99060000Y-40640000D01*
D38*
X78700000Y-39370000D02*
X78700000Y-33020000D01*
D37*
X58420000Y-131826000D02*
X58420000Y-129540000D01*
X50800000Y-184150000D02*
X55626000Y-184150000D01*
D36*
X124460000Y-153670000D02*
X115570000Y-153670000D01*
D38*
X266700000Y-152400000D02*
X266700000Y-153670000D01*
X59690000Y-164592000D02*
X61214000Y-164592000D01*
D37*
X144526000Y-125730000D02*
X146050000Y-125730000D01*
X85090000Y-131826000D02*
X85090000Y-129540000D01*
X143510000Y-120650000D02*
X143510000Y-124714000D01*
D38*
X231140000Y-219710000D02*
X171450000Y-219710000D01*
D37*
X267970000Y-128270000D02*
X237490000Y-128270000D01*
D38*
X267970000Y-55880000D02*
X260195000Y-55880000D01*
D37*
X58420000Y-181356000D02*
X58420000Y-163322000D01*
D40*
X267970000Y-54610000D02*
X267970000Y-45720000D01*
D39*
X64770000Y-33020000D02*
X91567000Y-33020000D01*
D36*
X186690000Y-153670000D02*
X161290000Y-153670000D01*
X69850000Y-48260000D02*
X72395000Y-48260000D01*
X67312500Y-45722500D02*
X69850000Y-48260000D01*
X67312500Y-38100000D02*
X67312500Y-45722500D01*
X74930000Y-38100000D02*
X67312500Y-38100000D01*
D41*
X152359000Y-175219000D02*
X136419825Y-175219000D01*
X83820000Y-175260000D02*
X125665825Y-175260000D01*
X152400000Y-175260000D02*
X152359000Y-175219000D01*
D37*
X43180000Y-50800000D02*
X43180000Y-57040000D01*
D41*
X135190825Y-173990000D02*
X130745825Y-173990000D01*
X180196956Y-173990000D02*
X184006956Y-173990000D01*
X236220000Y-173990000D02*
X234950000Y-175260000D01*
X126935825Y-173990000D02*
X130745825Y-173990000D01*
X234950000Y-175260000D02*
X189087294Y-175260000D01*
X136419825Y-175219000D02*
X135190825Y-173990000D01*
X125665825Y-175260000D02*
X126935825Y-173990000D01*
X240030000Y-173990000D02*
X250698000Y-173990000D01*
X152400000Y-175260000D02*
X178926956Y-175260000D01*
X187817294Y-173990000D02*
X184006956Y-173990000D01*
X43180000Y-50800000D02*
X50800000Y-50800000D01*
X240030000Y-173990000D02*
X236220000Y-173990000D01*
X178926956Y-175260000D02*
X180196956Y-173990000D01*
X189087294Y-175260000D02*
X187817294Y-173990000D01*
D37*
X203280000Y-148590000D02*
X203280000Y-151050000D01*
X33020000Y-74930000D02*
X33020000Y-69850000D01*
D36*
X129540000Y-101600000D02*
X114300000Y-101600000D01*
D37*
X203280000Y-149820000D02*
X203200000Y-149740000D01*
D36*
X264160000Y-101600000D02*
X262890000Y-101600000D01*
D38*
X264160000Y-214630000D02*
X264160000Y-215900000D01*
D37*
X33020000Y-64660000D02*
X33020000Y-69850000D01*
D38*
X264160000Y-100330000D02*
X262890000Y-101600000D01*
D37*
X191810000Y-101560000D02*
X191810000Y-101600000D01*
X203200000Y-149740000D02*
X203200000Y-148590000D01*
D36*
X264160000Y-151130000D02*
X262890000Y-151130000D01*
D37*
X90170000Y-94020000D02*
X87590000Y-91440000D01*
D36*
X166450000Y-101520000D02*
X166450000Y-99060000D01*
X217170000Y-101600000D02*
X207010000Y-101600000D01*
D37*
X166450000Y-101520000D02*
X166450000Y-101600000D01*
D36*
X96520000Y-101600000D02*
X88900000Y-101600000D01*
D37*
X247730000Y-101520000D02*
X247730000Y-101600000D01*
D36*
X203200000Y-151130000D02*
X181610000Y-151130000D01*
D37*
X141050000Y-101520000D02*
X141050000Y-101600000D01*
D36*
X141050000Y-101520000D02*
X141050000Y-99060000D01*
X166370000Y-101600000D02*
X156210000Y-101600000D01*
X57155000Y-60960000D02*
X50800000Y-60960000D01*
X232410000Y-101600000D02*
X217170000Y-101600000D01*
D37*
X217250000Y-101520000D02*
X217250000Y-101600000D01*
X87590000Y-91440000D02*
X85050000Y-91440000D01*
D36*
X33020000Y-49530000D02*
X41148000Y-41402000D01*
X50800000Y-60960000D02*
X33020000Y-60960000D01*
X237490000Y-101600000D02*
X247650000Y-101600000D01*
X78740000Y-101600000D02*
X69850000Y-101600000D01*
D37*
X181690000Y-148590000D02*
X181690000Y-151050000D01*
D38*
X264160000Y-148590000D02*
X262890000Y-149860000D01*
D36*
X156210000Y-101600000D02*
X140970000Y-101600000D01*
D38*
X101600000Y-215900000D02*
X41910000Y-215900000D01*
X226060000Y-215900000D02*
X214630000Y-215900000D01*
X264160000Y-101600000D02*
X264160000Y-100330000D01*
X264160000Y-102870000D02*
X262890000Y-101600000D01*
D36*
X217250000Y-99060000D02*
X217250000Y-101520000D01*
D38*
X262890000Y-149860000D02*
X262890000Y-151130000D01*
D37*
X229950000Y-215820000D02*
X229870000Y-215900000D01*
D36*
X247730000Y-99060000D02*
X247730000Y-101520000D01*
X229950000Y-212090000D02*
X229950000Y-215820000D01*
X120476000Y-212090000D02*
X120476000Y-215820000D01*
X115570000Y-101600000D02*
X115570000Y-99140000D01*
X262890000Y-151130000D02*
X203200000Y-151130000D01*
X181610000Y-151130000D02*
X151130000Y-151130000D01*
D37*
X33020000Y-64660000D02*
X33020000Y-60960000D01*
D36*
X104140000Y-101600000D02*
X96520000Y-101600000D01*
D38*
X264160000Y-102870000D02*
X264160000Y-101600000D01*
D36*
X69850000Y-101600000D02*
X40640000Y-101600000D01*
D38*
X101600000Y-215900000D02*
X214630000Y-215900000D01*
D36*
X90130000Y-101600000D02*
X90130000Y-99100000D01*
X181610000Y-101600000D02*
X166370000Y-101600000D01*
D38*
X264160000Y-151130000D02*
X264160000Y-148590000D01*
D37*
X90170000Y-99060000D02*
X90170000Y-94020000D01*
D36*
X207010000Y-101600000D02*
X191770000Y-101600000D01*
X33020000Y-60960000D02*
X33020000Y-57040000D01*
D37*
X151210000Y-151050000D02*
X151130000Y-151130000D01*
X203280000Y-151050000D02*
X203200000Y-151130000D01*
D36*
X140970000Y-101600000D02*
X129540000Y-101600000D01*
X114300000Y-101600000D02*
X104140000Y-101600000D01*
D37*
X151210000Y-148590000D02*
X151210000Y-151050000D01*
D36*
X173926956Y-212090000D02*
X173926956Y-215820000D01*
X237490000Y-101600000D02*
X232410000Y-101600000D01*
X33020000Y-57040000D02*
X33020000Y-49530000D01*
X88900000Y-101600000D02*
X78740000Y-101600000D01*
D37*
X181690000Y-151050000D02*
X181610000Y-151130000D01*
D36*
X262890000Y-101600000D02*
X243840000Y-101600000D01*
X191770000Y-101600000D02*
X181610000Y-101600000D01*
D38*
X264160000Y-215900000D02*
X226060000Y-215900000D01*
D36*
X191810000Y-99060000D02*
X191810000Y-101560000D01*
D41*
X74930000Y-55880000D02*
X76200000Y-54610000D01*
X72395000Y-55880000D02*
X74930000Y-55880000D01*
X78745000Y-45720000D02*
X76200000Y-45720000D01*
X76200000Y-54610000D02*
X76200000Y-45720000D01*
X76200000Y-45720000D02*
X72395000Y-45720000D01*
X152400000Y-167640000D02*
X134555825Y-167640000D01*
X36830000Y-151384000D02*
X121920000Y-151384000D01*
X189119044Y-167640000D02*
X234950000Y-167640000D01*
X234950000Y-167640000D02*
X236220000Y-166370000D01*
X133285825Y-166370000D02*
X130745825Y-166370000D01*
X134555825Y-167640000D02*
X133285825Y-166370000D01*
X236220000Y-166370000D02*
X240030000Y-166370000D01*
X152400000Y-167640000D02*
X178926956Y-167640000D01*
X184006956Y-166370000D02*
X187849044Y-166370000D01*
X180196956Y-166370000D02*
X184006956Y-166370000D01*
X187849044Y-166370000D02*
X189119044Y-167640000D01*
X178926956Y-167640000D02*
X180196956Y-166370000D01*
X38100000Y-103124000D02*
X171827600Y-103124000D01*
X176530000Y-128270000D02*
X179325350Y-128270000D01*
X180595350Y-127000000D02*
X194310000Y-127000000D01*
X194310000Y-127000000D02*
X195580000Y-128270000D01*
X195580000Y-128270000D02*
X198120000Y-128270000D01*
X171827600Y-103124000D02*
X171958000Y-103254400D01*
X179325350Y-128270000D02*
X180595350Y-127000000D01*
X41910000Y-97790000D02*
X61976000Y-97790000D01*
X61976000Y-97790000D02*
X65786000Y-93980000D01*
X65786000Y-93980000D02*
X72395000Y-93980000D01*
X64262000Y-91440000D02*
X60097500Y-95604500D01*
X60097500Y-95604500D02*
X44522500Y-95604500D01*
X72395000Y-91440000D02*
X64262000Y-91440000D01*
X47160000Y-92710000D02*
X58820900Y-92710000D01*
X58820900Y-92710000D02*
X62630900Y-88900000D01*
X62630900Y-88900000D02*
X72395000Y-88900000D01*
X47034800Y-92584800D02*
X47160000Y-92710000D01*
X229870000Y-66040000D02*
X227330000Y-66040000D01*
X135133000Y-176530000D02*
X130745825Y-176530000D01*
X179070000Y-66040000D02*
X176530000Y-66040000D01*
X204470000Y-66040000D02*
X201930000Y-66040000D01*
X231140000Y-67310000D02*
X229870000Y-66040000D01*
X151130000Y-66040000D02*
X144780000Y-66040000D01*
X104140000Y-67310000D02*
X102870000Y-66040000D01*
X146055000Y-177795000D02*
X136398000Y-177795000D01*
X119380000Y-66040000D02*
X118110000Y-67310000D01*
X166281200Y-110490000D02*
X170434000Y-110490000D01*
X195580000Y-66040000D02*
X194310000Y-67310000D01*
X194310000Y-118110000D02*
X191770000Y-118110000D01*
X257810000Y-66040000D02*
X251460000Y-66040000D01*
X80010000Y-194310000D02*
X87630000Y-194310000D01*
X220980000Y-66040000D02*
X219710000Y-67310000D01*
X176530000Y-66040000D02*
X170180000Y-66040000D01*
X143510000Y-67310000D02*
X129540000Y-67310000D01*
X201930000Y-66040000D02*
X195580000Y-66040000D01*
X220218000Y-177709000D02*
X220168000Y-177759000D01*
X118110000Y-67310000D02*
X104140000Y-67310000D01*
X87630000Y-194310000D02*
X88900000Y-195580000D01*
X236220000Y-176530000D02*
X240030000Y-176530000D01*
X189045956Y-177759000D02*
X187816956Y-176530000D01*
X220168000Y-177759000D02*
X189045956Y-177759000D01*
X180340000Y-67310000D02*
X179070000Y-66040000D01*
X250190000Y-67310000D02*
X231140000Y-67310000D01*
X172720000Y-115316000D02*
X174244000Y-116840000D01*
X194310000Y-67310000D02*
X180340000Y-67310000D01*
X128270000Y-66040000D02*
X125730000Y-66040000D01*
X144780000Y-66040000D02*
X143510000Y-67310000D01*
X125730000Y-66040000D02*
X119380000Y-66040000D01*
X92710000Y-67310000D02*
X93980000Y-66040000D01*
X170434000Y-110490000D02*
X172720000Y-112776000D01*
X153670000Y-66040000D02*
X151130000Y-66040000D01*
X187960000Y-116840000D02*
X189230000Y-118110000D01*
X172720000Y-112776000D02*
X172720000Y-115316000D01*
X78740000Y-67310000D02*
X92710000Y-67310000D01*
X209592650Y-116840000D02*
X210862650Y-118110000D01*
X129540000Y-67310000D02*
X128270000Y-66040000D01*
X88900000Y-195580000D02*
X119126000Y-195580000D01*
X178926956Y-177800000D02*
X146060000Y-177800000D01*
X72395000Y-68580000D02*
X77470000Y-68580000D01*
X154940000Y-67310000D02*
X153670000Y-66040000D01*
X220218000Y-177709000D02*
X235041000Y-177709000D01*
X251460000Y-66040000D02*
X250190000Y-67310000D01*
X184006956Y-176530000D02*
X180196956Y-176530000D01*
X219710000Y-67310000D02*
X205740000Y-67310000D01*
X93980000Y-66040000D02*
X100330000Y-66040000D01*
X102870000Y-66040000D02*
X100330000Y-66040000D01*
X235041000Y-177709000D02*
X236220000Y-176530000D01*
X77470000Y-68580000D02*
X78740000Y-67310000D01*
X170180000Y-66040000D02*
X168910000Y-67310000D01*
X180196956Y-176530000D02*
X178926956Y-177800000D01*
X136398000Y-177795000D02*
X135133000Y-176530000D01*
X146060000Y-177800000D02*
X146055000Y-177795000D01*
X227330000Y-66040000D02*
X220980000Y-66040000D01*
X195580000Y-116840000D02*
X194310000Y-118110000D01*
X210862650Y-118110000D02*
X213360000Y-118110000D01*
X174244000Y-116840000D02*
X187960000Y-116840000D01*
X189230000Y-118110000D02*
X191770000Y-118110000D01*
X168910000Y-67310000D02*
X154940000Y-67310000D01*
X205063300Y-116840000D02*
X195580000Y-116840000D01*
X205063300Y-116840000D02*
X209592650Y-116840000D01*
X187816956Y-176530000D02*
X184006956Y-176530000D01*
X205740000Y-67310000D02*
X204470000Y-66040000D01*
X240030000Y-176530000D02*
X250698000Y-176530000D01*
X81280000Y-62230000D02*
X78745300Y-59695300D01*
X161290000Y-123190000D02*
X164085350Y-123190000D01*
X227330000Y-60960000D02*
X220980000Y-60960000D01*
X118110000Y-62230000D02*
X104140000Y-62230000D01*
X201930000Y-60960000D02*
X195580000Y-60960000D01*
X129540000Y-62230000D02*
X128270000Y-60960000D01*
X151130000Y-60960000D02*
X144780000Y-60960000D01*
X220980000Y-60960000D02*
X219710000Y-62230000D01*
X100330000Y-60960000D02*
X93980000Y-60960000D01*
X187706000Y-124460000D02*
X188976000Y-123190000D01*
X128270000Y-60960000D02*
X125730000Y-60960000D01*
X220168000Y-182839000D02*
X188728456Y-182839000D01*
X188976000Y-123190000D02*
X191770000Y-123190000D01*
X104140000Y-62230000D02*
X102870000Y-60960000D01*
X251460000Y-60960000D02*
X250190000Y-62230000D01*
X153670000Y-60960000D02*
X151130000Y-60960000D01*
X102870000Y-60960000D02*
X100330000Y-60960000D01*
X119380000Y-60960000D02*
X118110000Y-62230000D01*
X165355350Y-124460000D02*
X187706000Y-124460000D01*
X194310000Y-123190000D02*
X195580000Y-121920000D01*
X92710000Y-62230000D02*
X81280000Y-62230000D01*
X257810000Y-60960000D02*
X251460000Y-60960000D01*
X178926956Y-182880000D02*
X135825825Y-182880000D01*
X93980000Y-60960000D02*
X92710000Y-62230000D01*
X191770000Y-123190000D02*
X194310000Y-123190000D01*
X220218000Y-182789000D02*
X235041000Y-182789000D01*
X195580000Y-60960000D02*
X194310000Y-62230000D01*
X176530000Y-60960000D02*
X170180000Y-60960000D01*
X231140000Y-62230000D02*
X229870000Y-60960000D01*
X143510000Y-62230000D02*
X129540000Y-62230000D01*
X195580000Y-121920000D02*
X209550000Y-121920000D01*
X170180000Y-60960000D02*
X168910000Y-62230000D01*
X257810000Y-60940000D02*
X257800000Y-60950000D01*
X80010000Y-189230000D02*
X87630000Y-189230000D01*
X205740000Y-62230000D02*
X204470000Y-60960000D01*
X179070000Y-60960000D02*
X176530000Y-60960000D01*
X187753456Y-181864000D02*
X184260956Y-181864000D01*
X144780000Y-60960000D02*
X143510000Y-62230000D01*
X204470000Y-60960000D02*
X201930000Y-60960000D01*
X184260956Y-181864000D02*
X184006956Y-181610000D01*
X229870000Y-60960000D02*
X227330000Y-60960000D01*
X210820000Y-123190000D02*
X213360000Y-123190000D01*
X184006956Y-181610000D02*
X180196956Y-181610000D01*
X236220000Y-181610000D02*
X240030000Y-181610000D01*
X88900000Y-190500000D02*
X124206000Y-190500000D01*
X194310000Y-62230000D02*
X180340000Y-62230000D01*
X154940000Y-62230000D02*
X153670000Y-60960000D01*
X188728456Y-182839000D02*
X187753456Y-181864000D01*
X135825825Y-182880000D02*
X134555825Y-181610000D01*
X168910000Y-62230000D02*
X154940000Y-62230000D01*
X220218000Y-182789000D02*
X220168000Y-182839000D01*
X125730000Y-60960000D02*
X119380000Y-60960000D01*
X240030000Y-181610000D02*
X250698000Y-181610000D01*
X134555825Y-181610000D02*
X130745825Y-181610000D01*
X180196956Y-181610000D02*
X178926956Y-182880000D01*
X209550000Y-121920000D02*
X210820000Y-123190000D01*
X180340000Y-62230000D02*
X179070000Y-60960000D01*
X219710000Y-62230000D02*
X205740000Y-62230000D01*
X235041000Y-182789000D02*
X236220000Y-181610000D01*
X87630000Y-189230000D02*
X88900000Y-190500000D01*
X250190000Y-62230000D02*
X231140000Y-62230000D01*
X78745300Y-59695300D02*
X78745300Y-59647350D01*
X164085350Y-123190000D02*
X165355350Y-124460000D01*
X179324000Y-127000000D02*
X180594000Y-125730000D01*
X240030000Y-184150000D02*
X250698000Y-184150000D01*
X164084000Y-125730000D02*
X165354000Y-127000000D01*
X161290000Y-125730000D02*
X164084000Y-125730000D01*
X88900000Y-187960000D02*
X126746000Y-187960000D01*
X187816956Y-184150000D02*
X184006956Y-184150000D01*
X180594000Y-125730000D02*
X191770000Y-125730000D01*
X236220000Y-184150000D02*
X240030000Y-184150000D01*
X209640900Y-124550900D02*
X210820000Y-125730000D01*
X220218000Y-185329000D02*
X235041000Y-185329000D01*
X189045956Y-185379000D02*
X187816956Y-184150000D01*
X195489100Y-124550900D02*
X209640900Y-124550900D01*
X210820000Y-125730000D02*
X213360000Y-125730000D01*
X194310000Y-125730000D02*
X195489100Y-124550900D01*
X134378562Y-184150000D02*
X130745825Y-184150000D01*
X235041000Y-185329000D02*
X236220000Y-184150000D01*
X87630000Y-186690000D02*
X88900000Y-187960000D01*
X178926956Y-185420000D02*
X135648562Y-185420000D01*
X191770000Y-125730000D02*
X194310000Y-125730000D01*
X220218000Y-185329000D02*
X220168000Y-185379000D01*
X165354000Y-127000000D02*
X179324000Y-127000000D01*
X220168000Y-185379000D02*
X189045956Y-185379000D01*
X80010000Y-186690000D02*
X87630000Y-186690000D01*
X135648562Y-185420000D02*
X134378562Y-184150000D01*
X180196956Y-184150000D02*
X178926956Y-185420000D01*
X184006956Y-184150000D02*
X180196956Y-184150000D01*
X110490000Y-68580000D02*
X104140000Y-68580000D01*
X168910000Y-68580000D02*
X161290000Y-68580000D01*
X234950000Y-195580000D02*
X236220000Y-194310000D01*
X194310000Y-68580000D02*
X186690000Y-68580000D01*
X129540000Y-68580000D02*
X128270000Y-67310000D01*
X135890000Y-68580000D02*
X129540000Y-68580000D01*
X143510000Y-68580000D02*
X135890000Y-68580000D01*
X128270000Y-67310000D02*
X119380000Y-67310000D01*
X135825825Y-195580000D02*
X178950706Y-195580000D01*
X153670000Y-67310000D02*
X144780000Y-67310000D01*
X104140000Y-68580000D02*
X102870000Y-67310000D01*
X165354000Y-137160000D02*
X164084000Y-135890000D01*
X197104000Y-195500400D02*
X197183600Y-195580000D01*
X80010000Y-176530000D02*
X87630000Y-176530000D01*
X188722000Y-135890000D02*
X187452000Y-137160000D01*
X144780000Y-67310000D02*
X143510000Y-68580000D01*
X180340000Y-68580000D02*
X179070000Y-67310000D01*
X242570000Y-68580000D02*
X231140000Y-68580000D01*
X194310000Y-135890000D02*
X195489000Y-137069000D01*
X186690000Y-68580000D02*
X180340000Y-68580000D01*
X209641000Y-137069000D02*
X210820000Y-135890000D01*
X88900000Y-177800000D02*
X120396000Y-177800000D01*
X161290000Y-68580000D02*
X154940000Y-68580000D01*
X102870000Y-67310000D02*
X93980000Y-67310000D01*
X205740000Y-68580000D02*
X204470000Y-67310000D01*
X130666325Y-194230500D02*
X134476325Y-194230500D01*
X180300206Y-194230500D02*
X183927456Y-194230500D01*
X154940000Y-68580000D02*
X153670000Y-67310000D01*
X236220000Y-194310000D02*
X240030000Y-194310000D01*
X164084000Y-135890000D02*
X161290000Y-135890000D01*
X240030000Y-194310000D02*
X250698000Y-194310000D01*
X170180000Y-67310000D02*
X168910000Y-68580000D01*
X195580000Y-67310000D02*
X194310000Y-68580000D01*
X134476325Y-194230500D02*
X135825825Y-195580000D01*
X212090000Y-68580000D02*
X205740000Y-68580000D01*
X191770000Y-135890000D02*
X194310000Y-135890000D01*
X187816956Y-194310000D02*
X184006956Y-194310000D01*
X92710000Y-68580000D02*
X85090000Y-68580000D01*
X219710000Y-68580000D02*
X212090000Y-68580000D01*
X119380000Y-67310000D02*
X118110000Y-68580000D01*
X187452000Y-137160000D02*
X165354000Y-137160000D01*
X220980000Y-67310000D02*
X219710000Y-68580000D01*
X93980000Y-67310000D02*
X92710000Y-68580000D01*
X191770000Y-135890000D02*
X188722000Y-135890000D01*
X229870000Y-67310000D02*
X220980000Y-67310000D01*
X118110000Y-68580000D02*
X110490000Y-68580000D01*
X204470000Y-67310000D02*
X195580000Y-67310000D01*
X231140000Y-68580000D02*
X229870000Y-67310000D01*
X210820000Y-135890000D02*
X213360000Y-135890000D01*
X189007356Y-195500400D02*
X187816956Y-194310000D01*
X197104000Y-195500400D02*
X189007356Y-195500400D01*
X179070000Y-67310000D02*
X170180000Y-67310000D01*
X197183600Y-195580000D02*
X234950000Y-195580000D01*
X195489000Y-137069000D02*
X209641000Y-137069000D01*
X178950706Y-195580000D02*
X180300206Y-194230500D01*
X87630000Y-176530000D02*
X88900000Y-177800000D01*
X184006956Y-179070000D02*
X180196956Y-179070000D01*
X180340000Y-121840500D02*
X165274500Y-121840500D01*
X146060000Y-180340000D02*
X146055000Y-180345000D01*
X134555825Y-179070000D02*
X130745825Y-179070000D01*
X227330000Y-63500000D02*
X220980000Y-63500000D01*
X80010000Y-191770000D02*
X87630000Y-191770000D01*
X180340000Y-121840500D02*
X187785500Y-121840500D01*
X205740000Y-64770000D02*
X204470000Y-63500000D01*
X87630000Y-191770000D02*
X88900000Y-193040000D01*
X102870000Y-63500000D02*
X100330000Y-63500000D01*
X180196956Y-179070000D02*
X178926956Y-180340000D01*
X164084000Y-120650000D02*
X161290000Y-120650000D01*
X118110000Y-64770000D02*
X104140000Y-64770000D01*
X229870000Y-63500000D02*
X227330000Y-63500000D01*
X168910000Y-64770000D02*
X154940000Y-64770000D01*
X210820000Y-120650000D02*
X213360000Y-120650000D01*
X184006956Y-179070000D02*
X187817294Y-179070000D01*
X146055000Y-180345000D02*
X135830825Y-180345000D01*
X135830825Y-180345000D02*
X134555825Y-179070000D01*
X234945000Y-180345000D02*
X236220000Y-179070000D01*
X151130000Y-63500000D02*
X144780000Y-63500000D01*
X93980000Y-63500000D02*
X92710000Y-64770000D01*
X236220000Y-179070000D02*
X240030000Y-179070000D01*
X195580000Y-63500000D02*
X194310000Y-64770000D01*
X194310000Y-64770000D02*
X180340000Y-64770000D01*
X251460000Y-63500000D02*
X250190000Y-64770000D01*
X250190000Y-64770000D02*
X231140000Y-64770000D01*
X154940000Y-64770000D02*
X153670000Y-63500000D01*
X119380000Y-63500000D02*
X118110000Y-64770000D01*
X104140000Y-64770000D02*
X102870000Y-63500000D01*
X100330000Y-63500000D02*
X93980000Y-63500000D01*
X129540000Y-64770000D02*
X128270000Y-63500000D01*
X219710000Y-64770000D02*
X205740000Y-64770000D01*
X187785500Y-121840500D02*
X188976000Y-120650000D01*
X178926956Y-180340000D02*
X146060000Y-180340000D01*
X88900000Y-193040000D02*
X121666000Y-193040000D01*
X209632500Y-119462500D02*
X210820000Y-120650000D01*
X176530000Y-63500000D02*
X170180000Y-63500000D01*
X220980000Y-63500000D02*
X219710000Y-64770000D01*
X240030000Y-179070000D02*
X250698000Y-179070000D01*
X143510000Y-64770000D02*
X129540000Y-64770000D01*
X189087294Y-180340000D02*
X207000000Y-180340000D01*
X191770000Y-120650000D02*
X194310000Y-120650000D01*
X207005000Y-180345000D02*
X234945000Y-180345000D01*
X125730000Y-63500000D02*
X119380000Y-63500000D01*
X153670000Y-63500000D02*
X151130000Y-63500000D01*
X187817294Y-179070000D02*
X189087294Y-180340000D01*
X170180000Y-63500000D02*
X168910000Y-64770000D01*
X188976000Y-120650000D02*
X191770000Y-120650000D01*
X231140000Y-64770000D02*
X229870000Y-63500000D01*
X204470000Y-63500000D02*
X201930000Y-63500000D01*
X165274500Y-121840500D02*
X164084000Y-120650000D01*
X92710000Y-64770000D02*
X81280000Y-64770000D01*
X179070000Y-63500000D02*
X176530000Y-63500000D01*
X180340000Y-64770000D02*
X179070000Y-63500000D01*
X195497500Y-119462500D02*
X209632500Y-119462500D01*
X128270000Y-63500000D02*
X125730000Y-63500000D01*
X144780000Y-63500000D02*
X143510000Y-64770000D01*
X194310000Y-120650000D02*
X195497500Y-119462500D01*
X257810000Y-63500000D02*
X251460000Y-63500000D01*
X81280000Y-64770000D02*
X76200000Y-59690000D01*
X201930000Y-63500000D02*
X195580000Y-63500000D01*
X220980000Y-62230000D02*
X219710000Y-63500000D01*
X88900000Y-182880000D02*
X125476000Y-182880000D01*
X234950000Y-190500000D02*
X236220000Y-189230000D01*
X144780000Y-62230000D02*
X143510000Y-63500000D01*
X119380000Y-62230000D02*
X118110000Y-63500000D01*
X180340000Y-63500000D02*
X179070000Y-62230000D01*
X102870000Y-62230000D02*
X93980000Y-62230000D01*
X188976000Y-130810000D02*
X187787100Y-131998900D01*
X130745825Y-189230000D02*
X134555825Y-189230000D01*
X104140000Y-63500000D02*
X102870000Y-62230000D01*
X195580000Y-62230000D02*
X194310000Y-63500000D01*
X87630000Y-181610000D02*
X88900000Y-182880000D01*
X187689956Y-189230000D02*
X188959956Y-190500000D01*
X209423000Y-132080000D02*
X210693000Y-130810000D01*
X194183675Y-130810000D02*
X195453675Y-132080000D01*
X153670000Y-62230000D02*
X144780000Y-62230000D01*
X191770000Y-130810000D02*
X194183675Y-130810000D01*
X128270000Y-62230000D02*
X119380000Y-62230000D01*
X170180000Y-62230000D02*
X168910000Y-63500000D01*
X210693000Y-130810000D02*
X213360000Y-130810000D01*
X240030000Y-189230000D02*
X250698000Y-189230000D01*
X135890000Y-63500000D02*
X129540000Y-63500000D01*
X129540000Y-63500000D02*
X128270000Y-62230000D01*
X212090000Y-63500000D02*
X205740000Y-63500000D01*
X161290000Y-63500000D02*
X154940000Y-63500000D01*
X188959956Y-190500000D02*
X234950000Y-190500000D01*
X229870000Y-62230000D02*
X220980000Y-62230000D01*
X231140000Y-63500000D02*
X229870000Y-62230000D01*
X154940000Y-63500000D02*
X153670000Y-62230000D01*
X187787100Y-131998900D02*
X165272900Y-131998900D01*
X236220000Y-189230000D02*
X240030000Y-189230000D01*
X194310000Y-63500000D02*
X186690000Y-63500000D01*
X205740000Y-63500000D02*
X204470000Y-62230000D01*
X180196956Y-189230000D02*
X184006956Y-189230000D01*
X184006956Y-189230000D02*
X187689956Y-189230000D01*
X143510000Y-63500000D02*
X135890000Y-63500000D01*
X178926956Y-190500000D02*
X180196956Y-189230000D01*
X118110000Y-63500000D02*
X110490000Y-63500000D01*
X191770000Y-130810000D02*
X188976000Y-130810000D01*
X195453675Y-132080000D02*
X209423000Y-132080000D01*
X165272900Y-131998900D02*
X164084000Y-130810000D01*
X186690000Y-63500000D02*
X180340000Y-63500000D01*
X204470000Y-62230000D02*
X195580000Y-62230000D01*
X80010000Y-181610000D02*
X87630000Y-181610000D01*
X135825825Y-190500000D02*
X178926956Y-190500000D01*
X219710000Y-63500000D02*
X212090000Y-63500000D01*
X168910000Y-63500000D02*
X161290000Y-63500000D01*
X110490000Y-63500000D02*
X104140000Y-63500000D01*
X93980000Y-62230000D02*
X92710000Y-63500000D01*
X242570000Y-63500000D02*
X231140000Y-63500000D01*
X179070000Y-62230000D02*
X170180000Y-62230000D01*
X134555825Y-189230000D02*
X135825825Y-190500000D01*
X92710000Y-63500000D02*
X85090000Y-63500000D01*
X164084000Y-130810000D02*
X161290000Y-130810000D01*
X180340000Y-60960000D02*
X179070000Y-59690000D01*
X135890000Y-60960000D02*
X129540000Y-60960000D01*
X161290000Y-128270000D02*
X162816700Y-128270000D01*
X231140000Y-60960000D02*
X229870000Y-59690000D01*
X143510000Y-60960000D02*
X135890000Y-60960000D01*
X187720300Y-129459000D02*
X173190300Y-129459000D01*
X161290000Y-60960000D02*
X154940000Y-60960000D01*
X162816700Y-128270000D02*
X172001300Y-128270000D01*
X93980000Y-59690000D02*
X92710000Y-60960000D01*
X242570000Y-60960000D02*
X231140000Y-60960000D01*
X118110000Y-60960000D02*
X110490000Y-60960000D01*
X126746000Y-185420000D02*
X128016000Y-186690000D01*
X205740000Y-60960000D02*
X204470000Y-59690000D01*
X135830825Y-187965000D02*
X134555825Y-186690000D01*
X168910000Y-60960000D02*
X161290000Y-60960000D01*
X128016000Y-186690000D02*
X130745825Y-186690000D01*
X220980000Y-59690000D02*
X219710000Y-60960000D01*
X102870000Y-59690000D02*
X93980000Y-59690000D01*
X80010000Y-184150000D02*
X87630000Y-184150000D01*
X87630000Y-184150000D02*
X88900000Y-185420000D01*
X209550000Y-129540000D02*
X210820000Y-128270000D01*
X187816956Y-186690000D02*
X184006956Y-186690000D01*
X186690000Y-60960000D02*
X180340000Y-60960000D01*
X240030000Y-186690000D02*
X250698000Y-186690000D01*
X88900000Y-185420000D02*
X126746000Y-185420000D01*
X134555825Y-186690000D02*
X130745825Y-186690000D01*
X154940000Y-60960000D02*
X153670000Y-59690000D01*
X240030000Y-186690000D02*
X236220000Y-186690000D01*
X210820000Y-128270000D02*
X213360000Y-128270000D01*
X144780000Y-59690000D02*
X143510000Y-60960000D01*
X191770000Y-128270000D02*
X188909300Y-128270000D01*
X204470000Y-59690000D02*
X195580000Y-59690000D01*
X189091956Y-187965000D02*
X187816956Y-186690000D01*
X119380000Y-59690000D02*
X118110000Y-60960000D01*
X178921956Y-187965000D02*
X135830825Y-187965000D01*
X179070000Y-59690000D02*
X170180000Y-59690000D01*
X92710000Y-60960000D02*
X85090000Y-60960000D01*
X104140000Y-60960000D02*
X102870000Y-59690000D01*
X236220000Y-186690000D02*
X234945000Y-187965000D01*
X219710000Y-60960000D02*
X212090000Y-60960000D01*
X129540000Y-60960000D02*
X128270000Y-59690000D01*
X191770000Y-128270000D02*
X194310000Y-128270000D01*
X172001300Y-128270000D02*
X173190300Y-129459000D01*
X110490000Y-60960000D02*
X104140000Y-60960000D01*
X184006956Y-186690000D02*
X180196956Y-186690000D01*
X229870000Y-59690000D02*
X220980000Y-59690000D01*
X194310000Y-60960000D02*
X186690000Y-60960000D01*
X180196956Y-186690000D02*
X178921956Y-187965000D01*
X195580000Y-129540000D02*
X209550000Y-129540000D01*
X128270000Y-59690000D02*
X119380000Y-59690000D01*
X194310000Y-128270000D02*
X195580000Y-129540000D01*
X170180000Y-59690000D02*
X168910000Y-60960000D01*
X188909300Y-128270000D02*
X187720300Y-129459000D01*
X153670000Y-59690000D02*
X144780000Y-59690000D01*
X195580000Y-59690000D02*
X194310000Y-60960000D01*
X234945000Y-187965000D02*
X189091956Y-187965000D01*
X212090000Y-60960000D02*
X205740000Y-60960000D01*
X187706000Y-134620000D02*
X165354000Y-134620000D01*
X209550000Y-134620000D02*
X210820000Y-133350000D01*
X87630000Y-179070000D02*
X88900000Y-180340000D01*
X92710000Y-66040000D02*
X85090000Y-66040000D01*
X164084000Y-133350000D02*
X161290000Y-133350000D01*
X178926956Y-193040000D02*
X180196956Y-191770000D01*
X194310000Y-133350000D02*
X195580000Y-134620000D01*
X179070000Y-64770000D02*
X170180000Y-64770000D01*
X219710000Y-66040000D02*
X212090000Y-66040000D01*
X165354000Y-134620000D02*
X164084000Y-133350000D01*
X195580000Y-134620000D02*
X209550000Y-134620000D01*
X195580000Y-193040000D02*
X234950000Y-193040000D01*
X134301825Y-191770000D02*
X135571825Y-193040000D01*
X168910000Y-66040000D02*
X161290000Y-66040000D01*
X242570000Y-66040000D02*
X231140000Y-66040000D01*
X229870000Y-64770000D02*
X220980000Y-64770000D01*
X195580000Y-193040000D02*
X189086956Y-193040000D01*
X189086956Y-193040000D02*
X187816956Y-191770000D01*
X240030000Y-191770000D02*
X250698000Y-191770000D01*
X180340000Y-66040000D02*
X179070000Y-64770000D01*
X186690000Y-66040000D02*
X180340000Y-66040000D01*
X143510000Y-66040000D02*
X135890000Y-66040000D01*
X102870000Y-64770000D02*
X93980000Y-64770000D01*
X212090000Y-66040000D02*
X205740000Y-66040000D01*
X128270000Y-64770000D02*
X119380000Y-64770000D01*
X205740000Y-66040000D02*
X204470000Y-64770000D01*
X187816956Y-191770000D02*
X184006956Y-191770000D01*
X220980000Y-64770000D02*
X219710000Y-66040000D01*
X153670000Y-64770000D02*
X144780000Y-64770000D01*
X194310000Y-66040000D02*
X186690000Y-66040000D01*
X204470000Y-64770000D02*
X195580000Y-64770000D01*
X135571825Y-193040000D02*
X178926956Y-193040000D01*
X195580000Y-64770000D02*
X194310000Y-66040000D01*
X93980000Y-64770000D02*
X92710000Y-66040000D01*
X191770000Y-133350000D02*
X188976000Y-133350000D01*
X188976000Y-133350000D02*
X187706000Y-134620000D01*
X130491825Y-191770000D02*
X134301825Y-191770000D01*
X180196956Y-191770000D02*
X183752956Y-191770000D01*
X104140000Y-66040000D02*
X102870000Y-64770000D01*
X161290000Y-66040000D02*
X154940000Y-66040000D01*
X231140000Y-66040000D02*
X229870000Y-64770000D01*
X80010000Y-179070000D02*
X87630000Y-179070000D01*
X210820000Y-133350000D02*
X213360000Y-133350000D01*
X234950000Y-193040000D02*
X236220000Y-191770000D01*
X170180000Y-64770000D02*
X168910000Y-66040000D01*
X118110000Y-66040000D02*
X110490000Y-66040000D01*
X191770000Y-133350000D02*
X194310000Y-133350000D01*
X129540000Y-66040000D02*
X128270000Y-64770000D01*
X154940000Y-66040000D02*
X153670000Y-64770000D01*
X119380000Y-64770000D02*
X118110000Y-66040000D01*
X144780000Y-64770000D02*
X143510000Y-66040000D01*
X110490000Y-66040000D02*
X104140000Y-66040000D01*
X88900000Y-180340000D02*
X122936000Y-180340000D01*
X236220000Y-191770000D02*
X240030000Y-191770000D01*
X135890000Y-66040000D02*
X129540000Y-66040000D01*
X195580000Y-68580000D02*
X194310000Y-69850000D01*
X257810000Y-68580000D02*
X251460000Y-68580000D01*
X104140000Y-69850000D02*
X102870000Y-68580000D01*
X194310000Y-69850000D02*
X180340000Y-69850000D01*
X57155000Y-63500000D02*
X59185850Y-63500000D01*
X85090000Y-171450000D02*
X86360000Y-170180000D01*
X151130000Y-68580000D02*
X144780000Y-68580000D01*
X92710000Y-69850000D02*
X65535850Y-69850000D01*
X205740000Y-69850000D02*
X204470000Y-68580000D01*
X100330000Y-68580000D02*
X93980000Y-68580000D01*
X125730000Y-170180000D02*
X127000000Y-168910000D01*
X189086956Y-170180000D02*
X234950000Y-170180000D01*
X102870000Y-68580000D02*
X100330000Y-68580000D01*
X240030000Y-168910000D02*
X250698000Y-168910000D01*
X93980000Y-68580000D02*
X92710000Y-69850000D01*
X195578650Y-138430000D02*
X194308650Y-137160000D01*
X146050000Y-133350000D02*
X148844000Y-133350000D01*
X135825825Y-170180000D02*
X178926956Y-170180000D01*
X119380000Y-68580000D02*
X118110000Y-69850000D01*
X236220000Y-168910000D02*
X240030000Y-168910000D01*
X129540000Y-69850000D02*
X128270000Y-68580000D01*
X198120000Y-138430000D02*
X195578650Y-138430000D01*
X187816956Y-168910000D02*
X189086956Y-170180000D01*
X143510000Y-69850000D02*
X129540000Y-69850000D01*
X251460000Y-68580000D02*
X250190000Y-69850000D01*
X164175000Y-137251000D02*
X165354000Y-138430000D01*
X128270000Y-68580000D02*
X125730000Y-68580000D01*
X178926956Y-170180000D02*
X180196956Y-168910000D01*
X180196956Y-168910000D02*
X184006956Y-168910000D01*
X125730000Y-68580000D02*
X119380000Y-68580000D01*
X231140000Y-69850000D02*
X229870000Y-68580000D01*
X201930000Y-68580000D02*
X195580000Y-68580000D01*
X179070000Y-68580000D02*
X176530000Y-68580000D01*
X86360000Y-170180000D02*
X125730000Y-170180000D01*
X152745000Y-137251000D02*
X164175000Y-137251000D01*
X85090000Y-172720000D02*
X85090000Y-171450000D01*
X153670000Y-68580000D02*
X151130000Y-68580000D01*
X148844000Y-133350000D02*
X152745000Y-137251000D01*
X229870000Y-68580000D02*
X227330000Y-68580000D01*
X250190000Y-69850000D02*
X231140000Y-69850000D01*
X118110000Y-69850000D02*
X104140000Y-69850000D01*
X165354000Y-138430000D02*
X176530000Y-138430000D01*
X168910000Y-69850000D02*
X154940000Y-69850000D01*
X170180000Y-68580000D02*
X168910000Y-69850000D01*
X154940000Y-69850000D02*
X153670000Y-68580000D01*
X134555825Y-168910000D02*
X135825825Y-170180000D01*
X176530000Y-68580000D02*
X170180000Y-68580000D01*
X144780000Y-68580000D02*
X143510000Y-69850000D01*
X194308650Y-137160000D02*
X188976000Y-137160000D01*
X234950000Y-170180000D02*
X236220000Y-168910000D01*
X127000000Y-168910000D02*
X130745825Y-168910000D01*
X188976000Y-137160000D02*
X187706000Y-138430000D01*
X130745825Y-168910000D02*
X134555825Y-168910000D01*
X220980000Y-68580000D02*
X219710000Y-69850000D01*
X219710000Y-69850000D02*
X205740000Y-69850000D01*
X59185850Y-63500000D02*
X65535850Y-69850000D01*
X180340000Y-69850000D02*
X179070000Y-68580000D01*
X187706000Y-138430000D02*
X176530000Y-138430000D01*
X227330000Y-68580000D02*
X220980000Y-68580000D01*
X184006956Y-168910000D02*
X187816956Y-168910000D01*
X204470000Y-68580000D02*
X201930000Y-68580000D01*
X92710000Y-74930000D02*
X65535850Y-74930000D01*
X187706000Y-135890000D02*
X188976000Y-134620000D01*
X67818000Y-179070000D02*
X66548000Y-180340000D01*
X107985000Y-205775000D02*
X108035000Y-205825000D01*
X152654000Y-134620000D02*
X164338000Y-134620000D01*
X102870000Y-73660000D02*
X100330000Y-73660000D01*
X211353123Y-205740000D02*
X211348123Y-205735000D01*
X125730000Y-73660000D02*
X119380000Y-73660000D01*
X250190000Y-74930000D02*
X231140000Y-74930000D01*
X248158000Y-199390000D02*
X243078000Y-204470000D01*
X236220000Y-204470000D02*
X234950000Y-205740000D01*
X180196956Y-204470000D02*
X184006956Y-204470000D01*
X104140000Y-74930000D02*
X102870000Y-73660000D01*
X243078000Y-204470000D02*
X240030000Y-204470000D01*
X176530000Y-73660000D02*
X170180000Y-73660000D01*
X219710000Y-74930000D02*
X205740000Y-74930000D01*
X99060000Y-73660000D02*
X99392400Y-73660000D01*
X195580000Y-73660000D02*
X194310000Y-74930000D01*
X250698000Y-199390000D02*
X248158000Y-199390000D01*
X134423706Y-204470000D02*
X130745825Y-204470000D01*
X257810000Y-73660000D02*
X251460000Y-73660000D01*
X144780000Y-73660000D02*
X143510000Y-74930000D01*
X165100000Y-205669200D02*
X165070200Y-205699000D01*
X62230000Y-184404000D02*
X63246000Y-185420000D01*
X67818000Y-172974000D02*
X67818000Y-179070000D01*
X168910000Y-74930000D02*
X154940000Y-74930000D01*
X189081956Y-205735000D02*
X187816956Y-204470000D01*
X99493600Y-73660000D02*
X99392400Y-73660000D01*
X62230000Y-181356000D02*
X62230000Y-184404000D01*
X118110000Y-74930000D02*
X104140000Y-74930000D01*
X93980000Y-73660000D02*
X92710000Y-74930000D01*
X64770000Y-171450000D02*
X66294000Y-171450000D01*
X251460000Y-73660000D02*
X250190000Y-74930000D01*
X201930000Y-73660000D02*
X195580000Y-73660000D01*
X189086956Y-205740000D02*
X189081956Y-205735000D01*
X210291877Y-205735000D02*
X210286877Y-205740000D01*
X153670000Y-73660000D02*
X151130000Y-73660000D01*
X92491000Y-205775000D02*
X107985000Y-205775000D01*
X66294000Y-171450000D02*
X67818000Y-172974000D01*
X194310000Y-74930000D02*
X180340000Y-74930000D01*
X128270000Y-73660000D02*
X125730000Y-73660000D01*
X125645000Y-205825000D02*
X127000000Y-204470000D01*
X154940000Y-74930000D02*
X153670000Y-73660000D01*
X164338000Y-134620000D02*
X165608000Y-135890000D01*
X176530000Y-135890000D02*
X187706000Y-135890000D01*
X211348123Y-205735000D02*
X210291877Y-205735000D01*
X210286877Y-205740000D02*
X189086956Y-205740000D01*
X57155000Y-68580000D02*
X59185850Y-68580000D01*
X227330000Y-73660000D02*
X220980000Y-73660000D01*
X100330000Y-73660000D02*
X93980000Y-73660000D01*
X229870000Y-73660000D02*
X227330000Y-73660000D01*
X108035000Y-205825000D02*
X125645000Y-205825000D01*
X119380000Y-73660000D02*
X118110000Y-74930000D01*
X231140000Y-74930000D02*
X229870000Y-73660000D01*
X180340000Y-74930000D02*
X179070000Y-73660000D01*
X67310000Y-185420000D02*
X77470000Y-195580000D01*
X234950000Y-205740000D02*
X211353123Y-205740000D01*
X127000000Y-204470000D02*
X130745825Y-204470000D01*
X151130000Y-73660000D02*
X144780000Y-73660000D01*
X188976000Y-134620000D02*
X194310000Y-134620000D01*
X170180000Y-73660000D02*
X168910000Y-74930000D01*
X77470000Y-195580000D02*
X82296000Y-195580000D01*
X143510000Y-74930000D02*
X129540000Y-74930000D01*
X63246000Y-180340000D02*
X62230000Y-181356000D01*
X187816956Y-204470000D02*
X184006956Y-204470000D01*
X240030000Y-204470000D02*
X236220000Y-204470000D01*
X165070200Y-205699000D02*
X135652706Y-205699000D01*
X59185850Y-68580000D02*
X65535850Y-74930000D01*
X63246000Y-185420000D02*
X67310000Y-185420000D01*
X204470000Y-73660000D02*
X201930000Y-73660000D01*
X66548000Y-180340000D02*
X63246000Y-180340000D01*
X195580000Y-135890000D02*
X198120000Y-135890000D01*
X194310000Y-134620000D02*
X195580000Y-135890000D01*
X165608000Y-135890000D02*
X176530000Y-135890000D01*
X129540000Y-74930000D02*
X128270000Y-73660000D01*
X82296000Y-195580000D02*
X92491000Y-205775000D01*
X205740000Y-74930000D02*
X204470000Y-73660000D01*
X220980000Y-73660000D02*
X219710000Y-74930000D01*
X165100000Y-205669200D02*
X178997756Y-205669200D01*
X179070000Y-73660000D02*
X176530000Y-73660000D01*
X135652706Y-205699000D02*
X134423706Y-204470000D01*
X178997756Y-205669200D02*
X180196956Y-204470000D01*
X144780000Y-76200000D02*
X143510000Y-77470000D01*
X189055206Y-200660000D02*
X187785206Y-199390000D01*
X168910000Y-77470000D02*
X154940000Y-77470000D01*
X236220000Y-199390000D02*
X234950000Y-200660000D01*
X251460000Y-76200000D02*
X250190000Y-77470000D01*
X253619000Y-201295000D02*
X252984000Y-201930000D01*
X102870000Y-76200000D02*
X100330000Y-76200000D01*
X57155000Y-71120000D02*
X59185850Y-71120000D01*
X195580000Y-76200000D02*
X194310000Y-77470000D01*
X125730000Y-76200000D02*
X119380000Y-76200000D01*
X143510000Y-77470000D02*
X129540000Y-77470000D01*
X252984000Y-198120000D02*
X253619000Y-198755000D01*
X187785206Y-199390000D02*
X184006956Y-199390000D01*
X180340000Y-77470000D02*
X179070000Y-76200000D01*
X92710000Y-77470000D02*
X65535850Y-77470000D01*
X118110000Y-77470000D02*
X104140000Y-77470000D01*
X128270000Y-76200000D02*
X125730000Y-76200000D01*
X234950000Y-200660000D02*
X189055206Y-200660000D01*
X176530000Y-76200000D02*
X170180000Y-76200000D01*
X257810000Y-76200000D02*
X251460000Y-76200000D01*
X252984000Y-201930000D02*
X250698000Y-201930000D01*
X151130000Y-76200000D02*
X144780000Y-76200000D01*
X204470000Y-76200000D02*
X201930000Y-76200000D01*
X165100000Y-200660000D02*
X135698825Y-200660000D01*
X178926956Y-200660000D02*
X180196956Y-199390000D01*
X240030000Y-199390000D02*
X244348000Y-199390000D01*
X104140000Y-77470000D02*
X102870000Y-76200000D01*
X170180000Y-76200000D02*
X168910000Y-77470000D01*
X227330000Y-76200000D02*
X220980000Y-76200000D01*
X220980000Y-76200000D02*
X219710000Y-77470000D01*
X231140000Y-77470000D02*
X229870000Y-76200000D01*
X240030000Y-199390000D02*
X236220000Y-199390000D01*
X229870000Y-76200000D02*
X227330000Y-76200000D01*
X134428825Y-199390000D02*
X130745825Y-199390000D01*
X201930000Y-76200000D02*
X195580000Y-76200000D01*
X165100000Y-200660000D02*
X178926956Y-200660000D01*
X194310000Y-77470000D02*
X180340000Y-77470000D01*
X253619000Y-198755000D02*
X253619000Y-201295000D01*
X59185850Y-71120000D02*
X65535850Y-77470000D01*
X100330000Y-76200000D02*
X93980000Y-76200000D01*
X129540000Y-77470000D02*
X128270000Y-76200000D01*
X245618000Y-198120000D02*
X252984000Y-198120000D01*
X179070000Y-76200000D02*
X176530000Y-76200000D01*
X119380000Y-76200000D02*
X118110000Y-77470000D01*
X93980000Y-76200000D02*
X92710000Y-77470000D01*
X180196956Y-199390000D02*
X184006956Y-199390000D01*
X244348000Y-199390000D02*
X245618000Y-198120000D01*
X250190000Y-77470000D02*
X231140000Y-77470000D01*
X219710000Y-77470000D02*
X205740000Y-77470000D01*
X205740000Y-77470000D02*
X204470000Y-76200000D01*
X154940000Y-77470000D02*
X153670000Y-76200000D01*
X135698825Y-200660000D02*
X134428825Y-199390000D01*
X153670000Y-76200000D02*
X151130000Y-76200000D01*
X165354000Y-130810000D02*
X164162000Y-129618000D01*
X164162000Y-129618000D02*
X150396000Y-129618000D01*
X127000000Y-171450000D02*
X125730000Y-172720000D01*
X257810000Y-71120000D02*
X251460000Y-71120000D01*
X195580000Y-130810000D02*
X194389600Y-129619600D01*
X187816956Y-171450000D02*
X184006956Y-171450000D01*
X194310000Y-72390000D02*
X180340000Y-72390000D01*
X125730000Y-172720000D02*
X86360000Y-172720000D01*
X229870000Y-71120000D02*
X227330000Y-71120000D01*
X57155000Y-66040000D02*
X59185850Y-66040000D01*
X102870000Y-71120000D02*
X100330000Y-71120000D01*
X234948650Y-172720000D02*
X189086956Y-172720000D01*
X227330000Y-71120000D02*
X220980000Y-71120000D01*
X195580000Y-71120000D02*
X194310000Y-72390000D01*
X93980000Y-71120000D02*
X92710000Y-72390000D01*
X205740000Y-72390000D02*
X204470000Y-71120000D01*
X240030000Y-171450000D02*
X250698000Y-171450000D01*
X100330000Y-71120000D02*
X93980000Y-71120000D01*
X219710000Y-72390000D02*
X205740000Y-72390000D01*
X231140000Y-72390000D02*
X229870000Y-71120000D01*
X153670000Y-71120000D02*
X151130000Y-71120000D01*
X240030000Y-171450000D02*
X236218650Y-171450000D01*
X178926956Y-172720000D02*
X180196956Y-171450000D01*
X180196956Y-171450000D02*
X184006956Y-171450000D01*
X187706000Y-130810000D02*
X176530000Y-130810000D01*
X135825825Y-172720000D02*
X178926956Y-172720000D01*
X220980000Y-71120000D02*
X219710000Y-72390000D01*
X251460000Y-71120000D02*
X250190000Y-72390000D01*
X59185850Y-66040000D02*
X65535850Y-72390000D01*
X143510000Y-72390000D02*
X129540000Y-72390000D01*
X119380000Y-71120000D02*
X118110000Y-72390000D01*
X236218650Y-171450000D02*
X234948650Y-172720000D01*
X198120000Y-130810000D02*
X195580000Y-130810000D01*
X128270000Y-71120000D02*
X125730000Y-71120000D01*
X104140000Y-72390000D02*
X102870000Y-71120000D01*
X144780000Y-71120000D02*
X143510000Y-72390000D01*
X188896400Y-129619600D02*
X187706000Y-130810000D01*
X154940000Y-72390000D02*
X153670000Y-71120000D01*
X129540000Y-72390000D02*
X128270000Y-71120000D01*
X176530000Y-130810000D02*
X165354000Y-130810000D01*
X201930000Y-71120000D02*
X195580000Y-71120000D01*
X125730000Y-71120000D02*
X119380000Y-71120000D01*
X130745825Y-171450000D02*
X134555825Y-171450000D01*
X189086956Y-172720000D02*
X187816956Y-171450000D01*
X204470000Y-71120000D02*
X201930000Y-71120000D01*
X92710000Y-72390000D02*
X65535850Y-72390000D01*
X134555825Y-171450000D02*
X135825825Y-172720000D01*
X170180000Y-71120000D02*
X168910000Y-72390000D01*
X180340000Y-72390000D02*
X179070000Y-71120000D01*
X194389600Y-129619600D02*
X188896400Y-129619600D01*
X151130000Y-71120000D02*
X144780000Y-71120000D01*
X130745825Y-171450000D02*
X127000000Y-171450000D01*
X250190000Y-72390000D02*
X231140000Y-72390000D01*
X168910000Y-72390000D02*
X154940000Y-72390000D01*
X179070000Y-71120000D02*
X176530000Y-71120000D01*
X176530000Y-71120000D02*
X170180000Y-71120000D01*
X118110000Y-72390000D02*
X104140000Y-72390000D01*
X143510000Y-80010000D02*
X129540000Y-80010000D01*
X195580000Y-78740000D02*
X194310000Y-80010000D01*
X118110000Y-80010000D02*
X104140000Y-80010000D01*
X257810000Y-78740000D02*
X251460000Y-78740000D01*
X129540000Y-80010000D02*
X128270000Y-78740000D01*
X153670000Y-78740000D02*
X151130000Y-78740000D01*
X100330000Y-78740000D02*
X93980000Y-78740000D01*
X180340000Y-80010000D02*
X179070000Y-78740000D01*
X128270000Y-78740000D02*
X125730000Y-78740000D01*
X144780000Y-78740000D02*
X143510000Y-80010000D01*
X204470000Y-78740000D02*
X201930000Y-78740000D01*
X93980000Y-78740000D02*
X92710000Y-80010000D01*
X151130000Y-78740000D02*
X144780000Y-78740000D01*
X92710000Y-80010000D02*
X65535850Y-80010000D01*
X251460000Y-78740000D02*
X250190000Y-80010000D01*
X250190000Y-80010000D02*
X231140000Y-80010000D01*
X179070000Y-78740000D02*
X176530000Y-78740000D01*
X104140000Y-80010000D02*
X102870000Y-78740000D01*
X102870000Y-78740000D02*
X100330000Y-78740000D01*
X57155000Y-73660000D02*
X59185850Y-73660000D01*
X231140000Y-80010000D02*
X229870000Y-78740000D01*
X125730000Y-78740000D02*
X119380000Y-78740000D01*
X201930000Y-78740000D02*
X195580000Y-78740000D01*
X194310000Y-80010000D02*
X180340000Y-80010000D01*
X119380000Y-78740000D02*
X118110000Y-80010000D01*
X229870000Y-78740000D02*
X227330000Y-78740000D01*
X154940000Y-80010000D02*
X153670000Y-78740000D01*
X205740000Y-80010000D02*
X204470000Y-78740000D01*
X219710000Y-80010000D02*
X205740000Y-80010000D01*
X59185850Y-73660000D02*
X65535850Y-80010000D01*
X170180000Y-78740000D02*
X168910000Y-80010000D01*
X220980000Y-78740000D02*
X219710000Y-80010000D01*
X168910000Y-80010000D02*
X154940000Y-80010000D01*
X176530000Y-78740000D02*
X170180000Y-78740000D01*
X227330000Y-78740000D02*
X220980000Y-78740000D01*
X229870000Y-81280000D02*
X227330000Y-81280000D01*
X129540000Y-82550000D02*
X128270000Y-81280000D01*
X104140000Y-82550000D02*
X102870000Y-81280000D01*
X153670000Y-81280000D02*
X151130000Y-81280000D01*
X170180000Y-81280000D02*
X168910000Y-82550000D01*
X201930000Y-81280000D02*
X195580000Y-81280000D01*
X93980000Y-81280000D02*
X92710000Y-82550000D01*
X227330000Y-81280000D02*
X220980000Y-81280000D01*
X195580000Y-81280000D02*
X194310000Y-82550000D01*
X179070000Y-81280000D02*
X176530000Y-81280000D01*
X144780000Y-81280000D02*
X143510000Y-82550000D01*
X57155000Y-76200000D02*
X59185850Y-76200000D01*
X257810000Y-81280000D02*
X251460000Y-81280000D01*
X102870000Y-81280000D02*
X100330000Y-81280000D01*
X59185850Y-76200000D02*
X65535850Y-82550000D01*
X231140000Y-82550000D02*
X229870000Y-81280000D01*
X125730000Y-81280000D02*
X119380000Y-81280000D01*
X168910000Y-82550000D02*
X154940000Y-82550000D01*
X220980000Y-81280000D02*
X219710000Y-82550000D01*
X250190000Y-82550000D02*
X231140000Y-82550000D01*
X118110000Y-82550000D02*
X104140000Y-82550000D01*
X176530000Y-81280000D02*
X170180000Y-81280000D01*
X154940000Y-82550000D02*
X153670000Y-81280000D01*
X128270000Y-81280000D02*
X125730000Y-81280000D01*
X251460000Y-81280000D02*
X250190000Y-82550000D01*
X100330000Y-81280000D02*
X93980000Y-81280000D01*
X194310000Y-82550000D02*
X180340000Y-82550000D01*
X119380000Y-81280000D02*
X118110000Y-82550000D01*
X151130000Y-81280000D02*
X144780000Y-81280000D01*
X143510000Y-82550000D02*
X129540000Y-82550000D01*
X92710000Y-82550000D02*
X65535850Y-82550000D01*
X219710000Y-82550000D02*
X205740000Y-82550000D01*
X204470000Y-81280000D02*
X201930000Y-81280000D01*
X205740000Y-82550000D02*
X204470000Y-81280000D01*
X180340000Y-82550000D02*
X179070000Y-81280000D01*
X180340000Y-87630000D02*
X179070000Y-86360000D01*
X129540000Y-87630000D02*
X128270000Y-86360000D01*
X151130000Y-86360000D02*
X144780000Y-86360000D01*
X201930000Y-86360000D02*
X195580000Y-86360000D01*
X251460000Y-86360000D02*
X250190000Y-87630000D01*
X100330000Y-86360000D02*
X93980000Y-86360000D01*
X154940000Y-87630000D02*
X153670000Y-86360000D01*
X59185850Y-81280000D02*
X65535850Y-87630000D01*
X153670000Y-86360000D02*
X151130000Y-86360000D01*
X57155000Y-81280000D02*
X59185850Y-81280000D01*
X168910000Y-87630000D02*
X154940000Y-87630000D01*
X128270000Y-86360000D02*
X125730000Y-86360000D01*
X144780000Y-86360000D02*
X143510000Y-87630000D01*
X220980000Y-86360000D02*
X219710000Y-87630000D01*
X194310000Y-87630000D02*
X180340000Y-87630000D01*
X92710000Y-87630000D02*
X65535850Y-87630000D01*
X250190000Y-87630000D02*
X231140000Y-87630000D01*
X229870000Y-86360000D02*
X227330000Y-86360000D01*
X195580000Y-86360000D02*
X194310000Y-87630000D01*
X231140000Y-87630000D02*
X229870000Y-86360000D01*
X93980000Y-86360000D02*
X92710000Y-87630000D01*
X118110000Y-87630000D02*
X104140000Y-87630000D01*
X170180000Y-86360000D02*
X168910000Y-87630000D01*
X125730000Y-86360000D02*
X119380000Y-86360000D01*
X176530000Y-86360000D02*
X170180000Y-86360000D01*
X219710000Y-87630000D02*
X205740000Y-87630000D01*
X227330000Y-86360000D02*
X220980000Y-86360000D01*
X204470000Y-86360000D02*
X201930000Y-86360000D01*
X119380000Y-86360000D02*
X118110000Y-87630000D01*
X205740000Y-87630000D02*
X204470000Y-86360000D01*
X102870000Y-86360000D02*
X100330000Y-86360000D01*
X179070000Y-86360000D02*
X176530000Y-86360000D01*
X143510000Y-87630000D02*
X129540000Y-87630000D01*
X104140000Y-87630000D02*
X102870000Y-86360000D01*
X257810000Y-86360000D02*
X251460000Y-86360000D01*
X62992000Y-99060000D02*
X40894000Y-99060000D01*
X194310000Y-78740000D02*
X186690000Y-78740000D01*
X65532000Y-96520000D02*
X62992000Y-99060000D01*
X186690000Y-78740000D02*
X180340000Y-78740000D01*
X118110000Y-78740000D02*
X110490000Y-78740000D01*
X229870000Y-77470000D02*
X220980000Y-77470000D01*
X40386000Y-98552000D02*
X40386000Y-92202000D01*
X40386000Y-92202000D02*
X41148000Y-91440000D01*
X204470000Y-77470000D02*
X195580000Y-77470000D01*
X220980000Y-77470000D02*
X219710000Y-78740000D01*
X41148000Y-91440000D02*
X57155000Y-91440000D01*
X231140000Y-78740000D02*
X229870000Y-77470000D01*
X143510000Y-78740000D02*
X135890000Y-78740000D01*
X179070000Y-77470000D02*
X170180000Y-77470000D01*
X212090000Y-78740000D02*
X205740000Y-78740000D01*
X144780000Y-77470000D02*
X143510000Y-78740000D01*
X170180000Y-77470000D02*
X168910000Y-78740000D01*
X93980000Y-77470000D02*
X92710000Y-78740000D01*
X104140000Y-78740000D02*
X102870000Y-77470000D01*
X129540000Y-78740000D02*
X128270000Y-77470000D01*
X135890000Y-78740000D02*
X129540000Y-78740000D01*
X92710000Y-78740000D02*
X85090000Y-78740000D01*
X219710000Y-78740000D02*
X212090000Y-78740000D01*
X153670000Y-77470000D02*
X144780000Y-77470000D01*
X110490000Y-78740000D02*
X104140000Y-78740000D01*
X154940000Y-78740000D02*
X153670000Y-77470000D01*
X242570000Y-78740000D02*
X231140000Y-78740000D01*
X195580000Y-77470000D02*
X194310000Y-78740000D01*
X128270000Y-77470000D02*
X119380000Y-77470000D01*
X161290000Y-78740000D02*
X154940000Y-78740000D01*
X119380000Y-77470000D02*
X118110000Y-78740000D01*
X40894000Y-99060000D02*
X40386000Y-98552000D01*
X82042000Y-96520000D02*
X65532000Y-96520000D01*
X180340000Y-78740000D02*
X179070000Y-77470000D01*
X205740000Y-78740000D02*
X204470000Y-77470000D01*
X168910000Y-78740000D02*
X161290000Y-78740000D01*
X102870000Y-77470000D02*
X93980000Y-77470000D01*
X144780000Y-82550000D02*
X143510000Y-83820000D01*
X161290000Y-83820000D02*
X154940000Y-83820000D01*
X61214000Y-96774000D02*
X65278000Y-92710000D01*
X119380000Y-82550000D02*
X118110000Y-83820000D01*
X104140000Y-83820000D02*
X102870000Y-82550000D01*
X194310000Y-83820000D02*
X186690000Y-83820000D01*
X168910000Y-83820000D02*
X161290000Y-83820000D01*
X231140000Y-83820000D02*
X229870000Y-82550000D01*
X154940000Y-83820000D02*
X153670000Y-82550000D01*
X129540000Y-83820000D02*
X128270000Y-82550000D01*
X65278000Y-92710000D02*
X80010000Y-92710000D01*
X57150000Y-96774000D02*
X61214000Y-96774000D01*
X212090000Y-83820000D02*
X205740000Y-83820000D01*
X135890000Y-83820000D02*
X129540000Y-83820000D01*
X179070000Y-82550000D02*
X170180000Y-82550000D01*
X204470000Y-82550000D02*
X195580000Y-82550000D01*
X170180000Y-82550000D02*
X168910000Y-83820000D01*
X180340000Y-83820000D02*
X179070000Y-82550000D01*
X93980000Y-82550000D02*
X92710000Y-83820000D01*
X195580000Y-82550000D02*
X194310000Y-83820000D01*
X242570000Y-83820000D02*
X231140000Y-83820000D01*
X92710000Y-83820000D02*
X85090000Y-83820000D01*
X118110000Y-83820000D02*
X110490000Y-83820000D01*
X219710000Y-83820000D02*
X212090000Y-83820000D01*
X143510000Y-83820000D02*
X135890000Y-83820000D01*
X229870000Y-82550000D02*
X220980000Y-82550000D01*
X80010000Y-92710000D02*
X82042000Y-94742000D01*
X186690000Y-83820000D02*
X180340000Y-83820000D01*
X110490000Y-83820000D02*
X104140000Y-83820000D01*
X205740000Y-83820000D02*
X204470000Y-82550000D01*
X128270000Y-82550000D02*
X119380000Y-82550000D01*
X153670000Y-82550000D02*
X144780000Y-82550000D01*
X102870000Y-82550000D02*
X93980000Y-82550000D01*
X220980000Y-82550000D02*
X219710000Y-83820000D01*
X220980000Y-88900000D02*
X219710000Y-90170000D01*
X231140000Y-90170000D02*
X229870000Y-88900000D01*
X128270000Y-88900000D02*
X125730000Y-88900000D01*
X144780000Y-88900000D02*
X143510000Y-90170000D01*
X250190000Y-90170000D02*
X231140000Y-90170000D01*
X194310000Y-90170000D02*
X180340000Y-90170000D01*
X176530000Y-88900000D02*
X170180000Y-88900000D01*
X102870000Y-88900000D02*
X100330000Y-88900000D01*
X154940000Y-90170000D02*
X153670000Y-88900000D01*
X151130000Y-88900000D02*
X144780000Y-88900000D01*
X104140000Y-90170000D02*
X102870000Y-88900000D01*
X118110000Y-90170000D02*
X104140000Y-90170000D01*
X179070000Y-88900000D02*
X176530000Y-88900000D01*
X119380000Y-88900000D02*
X118110000Y-90170000D01*
X170180000Y-88900000D02*
X168910000Y-90170000D01*
X205740000Y-90170000D02*
X204470000Y-88900000D01*
X125730000Y-88900000D02*
X119380000Y-88900000D01*
X195580000Y-88900000D02*
X194310000Y-90170000D01*
X251460000Y-88900000D02*
X250190000Y-90170000D01*
X201930000Y-88900000D02*
X195580000Y-88900000D01*
X63246000Y-90170000D02*
X59436000Y-93980000D01*
X204470000Y-88900000D02*
X201930000Y-88900000D01*
X129540000Y-90170000D02*
X128270000Y-88900000D01*
X59436000Y-93980000D02*
X57155000Y-93980000D01*
X219710000Y-90170000D02*
X205740000Y-90170000D01*
X180340000Y-90170000D02*
X179070000Y-88900000D01*
X93980000Y-88900000D02*
X92710000Y-90170000D01*
X92710000Y-90170000D02*
X63246000Y-90170000D01*
X168910000Y-90170000D02*
X154940000Y-90170000D01*
X229870000Y-88900000D02*
X227330000Y-88900000D01*
X227330000Y-88900000D02*
X220980000Y-88900000D01*
X257810000Y-88900000D02*
X251460000Y-88900000D01*
X143510000Y-90170000D02*
X129540000Y-90170000D01*
X100330000Y-88900000D02*
X93980000Y-88900000D01*
X153670000Y-88900000D02*
X151130000Y-88900000D01*
X104140000Y-85090000D02*
X102870000Y-83820000D01*
X154940000Y-85090000D02*
X153670000Y-83820000D01*
X92710000Y-85090000D02*
X65535850Y-85090000D01*
X118110000Y-85090000D02*
X104140000Y-85090000D01*
X125730000Y-83820000D02*
X119380000Y-83820000D01*
X179070000Y-83820000D02*
X176530000Y-83820000D01*
X153670000Y-83820000D02*
X151130000Y-83820000D01*
X170180000Y-83820000D02*
X168910000Y-85090000D01*
X220980000Y-83820000D02*
X219710000Y-85090000D01*
X59185850Y-78740000D02*
X65535850Y-85090000D01*
X257810000Y-83820000D02*
X251460000Y-83820000D01*
X151130000Y-83820000D02*
X144780000Y-83820000D01*
X251460000Y-83820000D02*
X250190000Y-85090000D01*
X205740000Y-85090000D02*
X204470000Y-83820000D01*
X176530000Y-83820000D02*
X170180000Y-83820000D01*
X129540000Y-85090000D02*
X128270000Y-83820000D01*
X194310000Y-85090000D02*
X180340000Y-85090000D01*
X102870000Y-83820000D02*
X100330000Y-83820000D01*
X195580000Y-83820000D02*
X194310000Y-85090000D01*
X93980000Y-83820000D02*
X92710000Y-85090000D01*
X57155000Y-78740000D02*
X59185850Y-78740000D01*
X168910000Y-85090000D02*
X154940000Y-85090000D01*
X128270000Y-83820000D02*
X125730000Y-83820000D01*
X119380000Y-83820000D02*
X118110000Y-85090000D01*
X143510000Y-85090000D02*
X129540000Y-85090000D01*
X180340000Y-85090000D02*
X179070000Y-83820000D01*
X201930000Y-83820000D02*
X195580000Y-83820000D01*
X204470000Y-83820000D02*
X201930000Y-83820000D01*
X219710000Y-85090000D02*
X205740000Y-85090000D01*
X231140000Y-85090000D02*
X229870000Y-83820000D01*
X250190000Y-85090000D02*
X231140000Y-85090000D01*
X100330000Y-83820000D02*
X93980000Y-83820000D01*
X229870000Y-83820000D02*
X227330000Y-83820000D01*
X144780000Y-83820000D02*
X143510000Y-85090000D01*
X227330000Y-83820000D02*
X220980000Y-83820000D01*
X205740000Y-81280000D02*
X204470000Y-80010000D01*
X153670000Y-80010000D02*
X144780000Y-80010000D01*
X194310000Y-81280000D02*
X186690000Y-81280000D01*
X93980000Y-80010000D02*
X92710000Y-81280000D01*
X118110000Y-81280000D02*
X110490000Y-81280000D01*
X219710000Y-81280000D02*
X212090000Y-81280000D01*
X129540000Y-81280000D02*
X128270000Y-80010000D01*
X179070000Y-80010000D02*
X170180000Y-80010000D01*
X102870000Y-80010000D02*
X93980000Y-80010000D01*
X242570000Y-81280000D02*
X231140000Y-81280000D01*
X61976000Y-124968000D02*
X97538700Y-124968000D01*
X97538700Y-124968000D02*
X99060000Y-123446700D01*
X154940000Y-81280000D02*
X153670000Y-80010000D01*
X99060000Y-123446700D02*
X99060000Y-121920000D01*
X180340000Y-81280000D02*
X179070000Y-80010000D01*
X128270000Y-80010000D02*
X119380000Y-80010000D01*
X104140000Y-81280000D02*
X102870000Y-80010000D01*
X144780000Y-80010000D02*
X143510000Y-81280000D01*
X220980000Y-80010000D02*
X219710000Y-81280000D01*
X92710000Y-81280000D02*
X85090000Y-81280000D01*
X168910000Y-81280000D02*
X161290000Y-81280000D01*
X170180000Y-80010000D02*
X168910000Y-81280000D01*
X229870000Y-80010000D02*
X220980000Y-80010000D01*
X161290000Y-81280000D02*
X154940000Y-81280000D01*
X186690000Y-81280000D02*
X180340000Y-81280000D01*
X195580000Y-80010000D02*
X194310000Y-81280000D01*
X135890000Y-81280000D02*
X129540000Y-81280000D01*
X110490000Y-81280000D02*
X104140000Y-81280000D01*
X143510000Y-81280000D02*
X135890000Y-81280000D01*
X204470000Y-80010000D02*
X195580000Y-80010000D01*
X212090000Y-81280000D02*
X205740000Y-81280000D01*
X119380000Y-80010000D02*
X118110000Y-81280000D01*
X231140000Y-81280000D02*
X229870000Y-80010000D01*
X65786000Y-98298000D02*
X64008000Y-100076000D01*
X153670000Y-72390000D02*
X144780000Y-72390000D01*
X39370000Y-99060000D02*
X39370000Y-90678000D01*
X102870000Y-72390000D02*
X93980000Y-72390000D01*
X128270000Y-72390000D02*
X119380000Y-72390000D01*
X194310000Y-73660000D02*
X186690000Y-73660000D01*
X93980000Y-72390000D02*
X92710000Y-73660000D01*
X119380000Y-72390000D02*
X118110000Y-73660000D01*
X186690000Y-73660000D02*
X180340000Y-73660000D01*
X144780000Y-72390000D02*
X143510000Y-73660000D01*
X82042000Y-98298000D02*
X65786000Y-98298000D01*
X179070000Y-72390000D02*
X170180000Y-72390000D01*
X104140000Y-73660000D02*
X102870000Y-72390000D01*
X242570000Y-73660000D02*
X231140000Y-73660000D01*
X180340000Y-73660000D02*
X179070000Y-72390000D01*
X154940000Y-73660000D02*
X153670000Y-72390000D01*
X219710000Y-73660000D02*
X212090000Y-73660000D01*
X118110000Y-73660000D02*
X110490000Y-73660000D01*
X204470000Y-72390000D02*
X195580000Y-72390000D01*
X64008000Y-100076000D02*
X40386000Y-100076000D01*
X92710000Y-73660000D02*
X85090000Y-73660000D01*
X135890000Y-73660000D02*
X129540000Y-73660000D01*
X39370000Y-90678000D02*
X41148000Y-88900000D01*
X168910000Y-73660000D02*
X161290000Y-73660000D01*
X195580000Y-72390000D02*
X194310000Y-73660000D01*
X41148000Y-88900000D02*
X57155000Y-88900000D01*
X143510000Y-73660000D02*
X135890000Y-73660000D01*
X110490000Y-73660000D02*
X104140000Y-73660000D01*
X231140000Y-73660000D02*
X229870000Y-72390000D01*
X170180000Y-72390000D02*
X168910000Y-73660000D01*
X40386000Y-100076000D02*
X39370000Y-99060000D01*
X220980000Y-72390000D02*
X219710000Y-73660000D01*
X129540000Y-73660000D02*
X128270000Y-72390000D01*
X229870000Y-72390000D02*
X220980000Y-72390000D01*
X212090000Y-73660000D02*
X205740000Y-73660000D01*
X161290000Y-73660000D02*
X154940000Y-73660000D01*
X205740000Y-73660000D02*
X204470000Y-72390000D01*
X92710000Y-86360000D02*
X85090000Y-86360000D01*
X194310000Y-86360000D02*
X186690000Y-86360000D01*
X143510000Y-86360000D02*
X135890000Y-86360000D01*
X119380000Y-85090000D02*
X118110000Y-86360000D01*
X153670000Y-85090000D02*
X144780000Y-85090000D01*
X110490000Y-86360000D02*
X104140000Y-86360000D01*
X144780000Y-85090000D02*
X143510000Y-86360000D01*
X186690000Y-86360000D02*
X180340000Y-86360000D01*
X204470000Y-85090000D02*
X195580000Y-85090000D01*
X104140000Y-86360000D02*
X102870000Y-85090000D01*
X179070000Y-85090000D02*
X170180000Y-85090000D01*
X232410000Y-86360000D02*
X231140000Y-86360000D01*
X220980000Y-85090000D02*
X219710000Y-86360000D01*
X180340000Y-86360000D02*
X179070000Y-85090000D01*
X170180000Y-85090000D02*
X168910000Y-86360000D01*
X118110000Y-86360000D02*
X110490000Y-86360000D01*
X212090000Y-86360000D02*
X205740000Y-86360000D01*
X168910000Y-86360000D02*
X161290000Y-86360000D01*
X219710000Y-86360000D02*
X212090000Y-86360000D01*
X195580000Y-85090000D02*
X194310000Y-86360000D01*
X135890000Y-86360000D02*
X129540000Y-86360000D01*
X128270000Y-85090000D02*
X119380000Y-85090000D01*
X229870000Y-85090000D02*
X220980000Y-85090000D01*
X154940000Y-86360000D02*
X153670000Y-85090000D01*
X231140000Y-86360000D02*
X229870000Y-85090000D01*
X93980000Y-85090000D02*
X92710000Y-86360000D01*
X242570000Y-86360000D02*
X232410000Y-86360000D01*
X161290000Y-86360000D02*
X154940000Y-86360000D01*
X102870000Y-85090000D02*
X93980000Y-85090000D01*
X129540000Y-86360000D02*
X128270000Y-85090000D01*
X205740000Y-86360000D02*
X204470000Y-85090000D01*
X242570000Y-88900000D02*
X237490000Y-88900000D01*
X57155000Y-58420000D02*
X59690000Y-58420000D01*
X59690000Y-58420000D02*
X62230000Y-60960000D01*
X57155000Y-55880000D02*
X59690000Y-55880000D01*
X59690000Y-55880000D02*
X62230000Y-53340000D01*
X185166000Y-145034000D02*
X151640700Y-145034000D01*
X135890000Y-88900000D02*
X129540000Y-88900000D01*
X220218000Y-208335800D02*
X234957025Y-208335800D01*
X189230000Y-140970000D02*
X185166000Y-145034000D01*
X194310000Y-88900000D02*
X186690000Y-88900000D01*
X195580000Y-87630000D02*
X194310000Y-88900000D01*
X144780000Y-87630000D02*
X143510000Y-88900000D01*
X134366000Y-207010000D02*
X135694300Y-208338300D01*
X186690000Y-88900000D02*
X180340000Y-88900000D01*
X244856000Y-207010000D02*
X240030000Y-207010000D01*
X143510000Y-88900000D02*
X135890000Y-88900000D01*
X179070000Y-87630000D02*
X170180000Y-87630000D01*
X178932156Y-208338300D02*
X180260456Y-207010000D01*
X250698000Y-204470000D02*
X247396000Y-204470000D01*
X147576700Y-140970000D02*
X146050000Y-140970000D01*
X104140000Y-88900000D02*
X102870000Y-87630000D01*
X247396000Y-204470000D02*
X244856000Y-207010000D01*
X193675675Y-140970000D02*
X195453675Y-142748000D01*
X85090000Y-88900000D02*
X77470000Y-88900000D01*
X129540000Y-88900000D02*
X128270000Y-87630000D01*
X154940000Y-88900000D02*
X153670000Y-87630000D01*
X110490000Y-88900000D02*
X104140000Y-88900000D01*
X118110000Y-88900000D02*
X110490000Y-88900000D01*
X153670000Y-87630000D02*
X144780000Y-87630000D01*
X208280000Y-88900000D02*
X205740000Y-88900000D01*
X187816956Y-207010000D02*
X184006956Y-207010000D01*
X204470000Y-87630000D02*
X195580000Y-87630000D01*
X210820000Y-140970000D02*
X213360000Y-140970000D01*
X92710000Y-88900000D02*
X85090000Y-88900000D01*
X170180000Y-87630000D02*
X168910000Y-88900000D01*
X93980000Y-87630000D02*
X92710000Y-88900000D01*
X119380000Y-87630000D02*
X118110000Y-88900000D01*
X161290000Y-88900000D02*
X154940000Y-88900000D01*
X102870000Y-87630000D02*
X93980000Y-87630000D01*
X209042000Y-142748000D02*
X210820000Y-140970000D01*
X189142756Y-208335800D02*
X187816956Y-207010000D01*
X195453675Y-142748000D02*
X209042000Y-142748000D01*
X191770000Y-140970000D02*
X189230000Y-140970000D01*
X135694300Y-208338300D02*
X178932156Y-208338300D01*
X220218000Y-208335800D02*
X189142756Y-208335800D01*
X151640700Y-145034000D02*
X147576700Y-140970000D01*
X234957025Y-208335800D02*
X236282825Y-207010000D01*
X168910000Y-88900000D02*
X161290000Y-88900000D01*
X180340000Y-88900000D02*
X179070000Y-87630000D01*
X180260456Y-207010000D02*
X184006956Y-207010000D01*
X236282825Y-207010000D02*
X240030000Y-207010000D01*
X205740000Y-88900000D02*
X204470000Y-87630000D01*
X212090000Y-88900000D02*
X208280000Y-88900000D01*
X130745825Y-207010000D02*
X134366000Y-207010000D01*
X128270000Y-87630000D02*
X119380000Y-87630000D01*
X191770000Y-140970000D02*
X193675675Y-140970000D01*
X43180000Y-118364000D02*
X43180000Y-121920000D01*
X51562000Y-109982000D02*
X43180000Y-118364000D01*
X78820000Y-109982000D02*
X51562000Y-109982000D01*
X50800000Y-118618000D02*
X50800000Y-121920000D01*
X56642000Y-112776000D02*
X50800000Y-118618000D01*
X105410000Y-112776000D02*
X56642000Y-112776000D01*
X158242000Y-104025900D02*
X114160100Y-104025900D01*
X114160100Y-104025900D02*
X105410000Y-112776000D01*
X45720000Y-118618000D02*
X45720000Y-121920000D01*
X102870000Y-111252000D02*
X53086000Y-111252000D01*
X53086000Y-111252000D02*
X45720000Y-118618000D01*
X55880000Y-128013300D02*
X55880000Y-129540000D01*
X57909300Y-125984000D02*
X55880000Y-128013300D01*
X211836000Y-106172000D02*
X146050000Y-106172000D01*
X214122000Y-103886000D02*
X211836000Y-106172000D01*
X126238000Y-125984000D02*
X57909300Y-125984000D01*
X146050000Y-106172000D02*
X126238000Y-125984000D01*
X240030000Y-103886000D02*
X214122000Y-103886000D01*
X54610000Y-119380000D02*
X54610000Y-123330750D01*
X48260000Y-123571000D02*
X48260000Y-121920000D01*
X114554000Y-108204000D02*
X106934000Y-115824000D01*
X131064000Y-108204000D02*
X114554000Y-108204000D01*
X58166000Y-115824000D02*
X54610000Y-119380000D01*
X54610000Y-123330750D02*
X53480750Y-124460000D01*
X106934000Y-115824000D02*
X58166000Y-115824000D01*
X53480750Y-124460000D02*
X49149000Y-124460000D01*
X49149000Y-124460000D02*
X48260000Y-123571000D01*
X57912000Y-114300000D02*
X53340000Y-118872000D01*
X106172000Y-114300000D02*
X57912000Y-114300000D01*
X53340000Y-118872000D02*
X53340000Y-121920000D01*
X184342700Y-104921900D02*
X115550100Y-104921900D01*
X186442000Y-102822600D02*
X184342700Y-104921900D01*
X115550100Y-104921900D02*
X106172000Y-114300000D01*
X141986000Y-105664000D02*
X205486000Y-105664000D01*
X55880000Y-121920000D02*
X55880000Y-119888000D01*
X58674000Y-117094000D02*
X130556000Y-117094000D01*
X210820000Y-71120000D02*
X207010000Y-71120000D01*
X205486000Y-105664000D02*
X207010000Y-104140000D01*
X55880000Y-119888000D02*
X58674000Y-117094000D01*
X130556000Y-117094000D02*
X141986000Y-105664000D01*
X58420000Y-121920000D02*
X58420000Y-119634000D01*
X110490000Y-118364000D02*
X111760000Y-119634000D01*
X58420000Y-119634000D02*
X59690000Y-118364000D01*
X111760000Y-119634000D02*
X111760000Y-121920000D01*
X59690000Y-118364000D02*
X110490000Y-118364000D01*
X72395000Y-58420000D02*
X67310000Y-58420000D01*
X213360000Y-138430000D02*
X210820000Y-138430000D01*
X57401300Y-123952000D02*
X53340000Y-128013300D01*
X53340000Y-128013300D02*
X53340000Y-129540000D01*
X53340000Y-147320000D02*
X88900000Y-147320000D01*
X210820000Y-138430000D02*
X209620800Y-139629200D01*
X195509200Y-139629200D02*
X194310000Y-138430000D01*
X234950000Y-198120000D02*
X236220000Y-196850000D01*
X130745825Y-196850000D02*
X134555825Y-196850000D01*
X236220000Y-196850000D02*
X240030000Y-196850000D01*
X187833000Y-139700000D02*
X165481000Y-139700000D01*
X187816956Y-196850000D02*
X189086956Y-198120000D01*
X240030000Y-196850000D02*
X250698000Y-196850000D01*
X165481000Y-139700000D02*
X164211000Y-138430000D01*
X194310000Y-138430000D02*
X191770000Y-138430000D01*
X189086956Y-198120000D02*
X234950000Y-198120000D01*
X72390000Y-121920000D02*
X72390000Y-123446700D01*
X178926956Y-198120000D02*
X180196956Y-196850000D01*
X57401300Y-123952000D02*
X71884700Y-123952000D01*
X88900000Y-198161000D02*
X125689000Y-198161000D01*
X164211000Y-138430000D02*
X161290000Y-138430000D01*
X191770000Y-138430000D02*
X189103000Y-138430000D01*
X209620800Y-139629200D02*
X195509200Y-139629200D01*
X180196956Y-196850000D02*
X184006956Y-196850000D01*
X189103000Y-138430000D02*
X187833000Y-139700000D01*
X134555825Y-196850000D02*
X135825825Y-198120000D01*
X127000000Y-196850000D02*
X130745825Y-196850000D01*
X72390000Y-123446700D02*
X71884700Y-123952000D01*
X125689000Y-198161000D02*
X127000000Y-196850000D01*
X184006956Y-196850000D02*
X187816956Y-196850000D01*
X135825825Y-198120000D02*
X178926956Y-198120000D01*
X109220000Y-121920000D02*
X109220000Y-120393300D01*
X74930000Y-120393300D02*
X74930000Y-121920000D01*
X108206700Y-119380000D02*
X75943300Y-119380000D01*
X75943300Y-119380000D02*
X74930000Y-120393300D01*
X109220000Y-120393300D02*
X108206700Y-119380000D01*
X104140000Y-145034000D02*
X54610000Y-145034000D01*
X102870000Y-74930000D02*
X93980000Y-74930000D01*
X92710000Y-76200000D02*
X85090000Y-76200000D01*
X220980000Y-74930000D02*
X219710000Y-76200000D01*
X93980000Y-74930000D02*
X92710000Y-76200000D01*
X170180000Y-74930000D02*
X168910000Y-76200000D01*
X229870000Y-74930000D02*
X220980000Y-74930000D01*
X154940000Y-76200000D02*
X153670000Y-74930000D01*
X135890000Y-76200000D02*
X129540000Y-76200000D01*
X219710000Y-76200000D02*
X212090000Y-76200000D01*
X168910000Y-76200000D02*
X161290000Y-76200000D01*
X143510000Y-76200000D02*
X135890000Y-76200000D01*
X242570000Y-76200000D02*
X231140000Y-76200000D01*
X186690000Y-76200000D02*
X180340000Y-76200000D01*
X231140000Y-76200000D02*
X229870000Y-74930000D01*
X118110000Y-76200000D02*
X110490000Y-76200000D01*
X180340000Y-76200000D02*
X179070000Y-74930000D01*
X161290000Y-76200000D02*
X154940000Y-76200000D01*
X179070000Y-74930000D02*
X170180000Y-74930000D01*
X110490000Y-76200000D02*
X104140000Y-76200000D01*
X194310000Y-76200000D02*
X186690000Y-76200000D01*
X212090000Y-76200000D02*
X205740000Y-76200000D01*
X119380000Y-74930000D02*
X118110000Y-76200000D01*
X204470000Y-74930000D02*
X195580000Y-74930000D01*
X153670000Y-74930000D02*
X144780000Y-74930000D01*
X205740000Y-76200000D02*
X204470000Y-74930000D01*
X104140000Y-76200000D02*
X102870000Y-74930000D01*
X128270000Y-74930000D02*
X119380000Y-74930000D01*
X144780000Y-74930000D02*
X143510000Y-76200000D01*
X195580000Y-74930000D02*
X194310000Y-76200000D01*
X129540000Y-76200000D02*
X128270000Y-74930000D01*
X137160000Y-203200000D02*
X178926956Y-203200000D01*
X119380000Y-133350000D02*
X121920000Y-135890000D01*
X121920000Y-135890000D02*
X134620000Y-135890000D01*
X119380000Y-129540000D02*
X119380000Y-133350000D01*
X178926956Y-203200000D02*
X180196956Y-201930000D01*
X180196956Y-201930000D02*
X184006956Y-201930000D01*
X165277000Y-133350000D02*
X176530000Y-133350000D01*
X133604000Y-132080000D02*
X164007000Y-132080000D01*
X96520000Y-127762000D02*
X97282000Y-127000000D01*
X96520000Y-129540000D02*
X96520000Y-127762000D01*
X97282000Y-127000000D02*
X128524000Y-127000000D01*
X128524000Y-127000000D02*
X133604000Y-132080000D01*
X164007000Y-132080000D02*
X165277000Y-133350000D01*
X124460000Y-134620000D02*
X137160000Y-134620000D01*
X121920000Y-129540000D02*
X121920000Y-132080000D01*
X121920000Y-132080000D02*
X124460000Y-134620000D01*
X236220000Y-201930000D02*
X234950000Y-203200000D01*
X139700000Y-209804000D02*
X198120000Y-209804000D01*
X234950000Y-203200000D02*
X198120000Y-203200000D01*
X240030000Y-201930000D02*
X236220000Y-201930000D01*
X104902000Y-141986000D02*
X99060000Y-136144000D01*
X195326000Y-145542000D02*
X125222000Y-145542000D01*
X99060000Y-136144000D02*
X99060000Y-129540000D01*
X125222000Y-145542000D02*
X121666000Y-141986000D01*
X121666000Y-141986000D02*
X104902000Y-141986000D01*
X153670000Y-139700000D02*
X157480000Y-143510000D01*
X101600000Y-129540000D02*
X101600000Y-135382000D01*
X105918000Y-139700000D02*
X153670000Y-139700000D01*
X101600000Y-135382000D02*
X105918000Y-139700000D01*
X157480000Y-143510000D02*
X161290000Y-143510000D01*
X115570000Y-168910000D02*
X91440000Y-168910000D01*
X124903825Y-156718000D02*
X126935825Y-158750000D01*
X126935825Y-158750000D02*
X130745825Y-158750000D01*
X110490000Y-156718000D02*
X124903825Y-156718000D01*
X115570000Y-171450000D02*
X91440000Y-171450000D01*
X115570000Y-173990000D02*
X91440000Y-173990000D01*
X115570000Y-163830000D02*
X91440000Y-163830000D01*
X115570000Y-166370000D02*
X91440000Y-166370000D01*
X91440000Y-161290000D02*
X115570000Y-161290000D01*
X126935825Y-161290000D02*
X130745825Y-161290000D01*
X125665825Y-160020000D02*
X126935825Y-161290000D01*
X110490000Y-160020000D02*
X125665825Y-160020000D01*
X115570000Y-176530000D02*
X91440000Y-176530000D01*
X115505825Y-179070000D02*
X113979125Y-179070000D01*
X114043300Y-179070000D02*
X106680000Y-179070000D01*
X115570000Y-191770000D02*
X101600000Y-191770000D01*
X115570000Y-199390000D02*
X101600000Y-199390000D01*
X115570000Y-201930000D02*
X101600000Y-201930000D01*
X115570000Y-184150000D02*
X101600000Y-184150000D01*
X115570000Y-194310000D02*
X101600000Y-194310000D01*
X115570000Y-186690000D02*
X101600000Y-186690000D01*
X115570000Y-189230000D02*
X101600000Y-189230000D01*
X115505825Y-181610000D02*
X101600000Y-181610000D01*
X115570000Y-204470000D02*
X101600000Y-204470000D01*
X115570000Y-196850000D02*
X101600000Y-196850000D01*
X168766956Y-176530000D02*
X144526000Y-176530000D01*
X168766956Y-171450000D02*
X144526000Y-171450000D01*
X168766956Y-168910000D02*
X144526000Y-168910000D01*
X178164956Y-156718000D02*
X180196956Y-158750000D01*
X180196956Y-158750000D02*
X184006956Y-158750000D01*
X162560000Y-156718000D02*
X178164956Y-156718000D01*
X168766956Y-179070000D02*
X160020000Y-179070000D01*
X144526000Y-161290000D02*
X168766956Y-161290000D01*
X168766956Y-166370000D02*
X144526000Y-166370000D01*
X180155956Y-161290000D02*
X184006956Y-161290000D01*
X178926956Y-160061000D02*
X180155956Y-161290000D01*
X162560000Y-160061000D02*
X178926956Y-160061000D01*
X168766956Y-163830000D02*
X144526000Y-163830000D01*
X168766956Y-173990000D02*
X144526000Y-173990000D01*
X168766956Y-181610000D02*
X154940000Y-181610000D01*
X168766956Y-189230000D02*
X154940000Y-189230000D01*
X168766956Y-194310000D02*
X154940000Y-194310000D01*
X168766956Y-196850000D02*
X154940000Y-196850000D01*
X168766956Y-204470000D02*
X154940000Y-204470000D01*
X168766956Y-201930000D02*
X154940000Y-201930000D01*
X168766956Y-191770000D02*
X154940000Y-191770000D01*
X168766956Y-186690000D02*
X154940000Y-186690000D01*
X168766956Y-199390000D02*
X154940000Y-199390000D01*
X168766956Y-184150000D02*
X154940000Y-184150000D01*
X216154000Y-160020000D02*
X234950000Y-160020000D01*
X236220000Y-161290000D02*
X240030000Y-161290000D01*
X234950000Y-160020000D02*
X236220000Y-161290000D01*
X224790000Y-171450000D02*
X200660000Y-171450000D01*
X224790000Y-163830000D02*
X200660000Y-163830000D01*
X234188000Y-156718000D02*
X236220000Y-158750000D01*
X216154000Y-156718000D02*
X234188000Y-156718000D01*
X236220000Y-158750000D02*
X240030000Y-158750000D01*
X224790000Y-173990000D02*
X200660000Y-173990000D01*
X224790000Y-179070000D02*
X213868000Y-179070000D01*
X224790000Y-168910000D02*
X200660000Y-168910000D01*
X224790000Y-161290000D02*
X200660000Y-161290000D01*
X224790000Y-166370000D02*
X200660000Y-166370000D01*
X200660000Y-176530000D02*
X224790000Y-176530000D01*
X224790000Y-204470000D02*
X210820000Y-204470000D01*
X224790000Y-181610000D02*
X210820000Y-181610000D01*
X224790000Y-189230000D02*
X210820000Y-189230000D01*
X224790000Y-186690000D02*
X210820000Y-186690000D01*
X224790000Y-199390000D02*
X210820000Y-199390000D01*
X224790000Y-196850000D02*
X210820000Y-196850000D01*
X224790000Y-194310000D02*
X210820000Y-194310000D01*
X224790000Y-201930000D02*
X210820000Y-201930000D01*
X224790000Y-184150000D02*
X210820000Y-184150000D01*
X224790000Y-191770000D02*
X210820000Y-191770000D01*
X176530000Y-118110000D02*
X172212000Y-118110000D01*
X172212000Y-118110000D02*
X171704000Y-117602000D01*
X170942000Y-115570000D02*
X169642000Y-115570000D01*
X171704000Y-117602000D02*
X171704000Y-116332000D01*
X171704000Y-116332000D02*
X170942000Y-115570000D01*
X169642000Y-115570000D02*
X168910000Y-114838000D01*
X168320000Y-119410000D02*
X168290000Y-119380000D01*
X195580000Y-118110000D02*
X194310000Y-119380000D01*
X198120000Y-118110000D02*
X195580000Y-118110000D01*
X168940000Y-119380000D02*
X168910000Y-119410000D01*
X194310000Y-119380000D02*
X168940000Y-119380000D01*
X168402000Y-113030000D02*
X168910000Y-113538000D01*
X161290000Y-113030000D02*
X168402000Y-113030000D01*
X148809200Y-114337500D02*
X147576700Y-115570000D01*
X167812700Y-118110000D02*
X164040200Y-114337500D01*
X164040200Y-114337500D02*
X148809200Y-114337500D01*
X147576700Y-115570000D02*
X146050000Y-115570000D01*
X168910000Y-118110000D02*
X167812700Y-118110000D01*
X229250000Y-121920000D02*
X237490000Y-121920000D01*
X229250000Y-116840000D02*
X237490000Y-116840000D01*
X229250000Y-114300000D02*
X237490000Y-114300000D01*
X229250000Y-140970000D02*
X237490000Y-140970000D01*
X229250000Y-133350000D02*
X237490000Y-133350000D01*
X229250000Y-135890000D02*
X237490000Y-135890000D01*
X194564000Y-113284000D02*
X193635400Y-114212600D01*
X196088000Y-110236000D02*
X194564000Y-111760000D01*
X226060000Y-119380000D02*
X216916000Y-110236000D01*
X216916000Y-110236000D02*
X196088000Y-110236000D01*
X189317400Y-114212600D02*
X187960000Y-115570000D01*
X193635400Y-114212600D02*
X189317400Y-114212600D01*
X187960000Y-115570000D02*
X176530000Y-115570000D01*
X194564000Y-111760000D02*
X194564000Y-113284000D01*
X227950000Y-119380000D02*
X226060000Y-119380000D01*
X223520000Y-111760000D02*
X227950000Y-111760000D01*
X173736000Y-107188000D02*
X218948000Y-107188000D01*
X218948000Y-107188000D02*
X223520000Y-111760000D01*
X217424000Y-109220000D02*
X225044000Y-116840000D01*
X225044000Y-116840000D02*
X227950000Y-116840000D01*
X191770000Y-112014000D02*
X194564000Y-109220000D01*
X194564000Y-109220000D02*
X217424000Y-109220000D01*
X191770000Y-113030000D02*
X191770000Y-112014000D01*
X224282000Y-114300000D02*
X227838000Y-114300000D01*
X218186000Y-108204000D02*
X224282000Y-114300000D01*
X178816000Y-108204000D02*
X218186000Y-108204000D01*
X191770000Y-115570000D02*
X194056000Y-115570000D01*
X195580000Y-112268000D02*
X196596000Y-111252000D01*
X195580000Y-114046000D02*
X195580000Y-112268000D01*
X196596000Y-111252000D02*
X216154000Y-111252000D01*
X216154000Y-111252000D02*
X226822000Y-121920000D01*
X194056000Y-115570000D02*
X195580000Y-114046000D01*
X226822000Y-121920000D02*
X227950000Y-121920000D01*
X229250000Y-111760000D02*
X237490000Y-111760000D01*
X237490000Y-111760000D02*
X249174000Y-111760000D01*
X237490000Y-119380000D02*
X240284000Y-119380000D01*
X245364000Y-114300000D02*
X249174000Y-114300000D01*
X240284000Y-119380000D02*
X245364000Y-114300000D01*
X229138000Y-119380000D02*
X237490000Y-119380000D01*
X240284000Y-138430000D02*
X245364000Y-133350000D01*
X237490000Y-138430000D02*
X240284000Y-138430000D01*
X229250000Y-138430000D02*
X237490000Y-138430000D01*
X245364000Y-133350000D02*
X249174000Y-133350000D01*
X237490000Y-130810000D02*
X249174000Y-130810000D01*
X237490000Y-130810000D02*
X229250000Y-130810000D01*
X198120000Y-115570000D02*
X209550000Y-115570000D01*
X210820000Y-114300000D02*
X216154000Y-114300000D01*
X223774000Y-138430000D02*
X227950000Y-138430000D01*
X209550000Y-115570000D02*
X210820000Y-114300000D01*
X216154000Y-114300000D02*
X220726000Y-118872000D01*
X220726000Y-135382000D02*
X223774000Y-138430000D01*
X220726000Y-118872000D02*
X220726000Y-135382000D01*
X218186000Y-130810000D02*
X218186000Y-129540000D01*
X227950000Y-130810000D02*
X223520000Y-130810000D01*
X218186000Y-129540000D02*
X215646000Y-127000000D01*
X202566350Y-127000000D02*
X201296350Y-125730000D01*
X201296350Y-125730000D02*
X198120000Y-125730000D01*
X215646000Y-127000000D02*
X202566350Y-127000000D01*
X219710000Y-119126000D02*
X219710000Y-136144000D01*
X224536000Y-140970000D02*
X227950000Y-140970000D01*
X216154000Y-115570000D02*
X219710000Y-119126000D01*
X213360000Y-115570000D02*
X216154000Y-115570000D01*
X219710000Y-136144000D02*
X224536000Y-140970000D01*
X227950000Y-133350000D02*
X223520000Y-133350000D01*
X210810000Y-124411500D02*
X209588500Y-123190000D01*
X209588500Y-123190000D02*
X198120000Y-123190000D01*
X218186000Y-124411500D02*
X210810000Y-124411500D01*
X213360000Y-113030000D02*
X216408000Y-113030000D01*
X221742000Y-134620000D02*
X223012000Y-135890000D01*
X223012000Y-135890000D02*
X227950000Y-135890000D01*
X216408000Y-113030000D02*
X221742000Y-118364000D01*
X221742000Y-118364000D02*
X221742000Y-134620000D01*
X116840000Y-129540000D02*
X116840000Y-134620000D01*
X116840000Y-134620000D02*
X119380000Y-137160000D01*
X119380000Y-137160000D02*
X132080000Y-137160000D01*
D36*
X82550000Y-162052000D02*
X74932500Y-162052000D01*
X74932500Y-179829500D02*
X70612000Y-184150000D01*
X74932500Y-162052000D02*
X74932500Y-179829500D01*
X70612000Y-184150000D02*
X64770000Y-184150000D01*
X62230000Y-162052000D02*
X69932500Y-162052000D01*
X69932500Y-162052000D02*
X69932500Y-178987500D01*
X69932500Y-178987500D02*
X67310000Y-181610000D01*
X67310000Y-181610000D02*
X64770000Y-181610000D01*
D41*
X44196000Y-186690000D02*
X43180000Y-186690000D01*
X50800000Y-191770000D02*
X49276000Y-191770000D01*
X49276000Y-191770000D02*
X44196000Y-186690000D01*
X55230000Y-191770000D02*
X50800000Y-191770000D01*
X55230000Y-189230000D02*
X50800000Y-189230000D01*
X50800000Y-199390000D02*
X47498000Y-199390000D01*
X55230000Y-199390000D02*
X50800000Y-199390000D01*
X43180000Y-195072000D02*
X43180000Y-189230000D01*
X47498000Y-199390000D02*
X43180000Y-195072000D01*
X55230000Y-196850000D02*
X50800000Y-196850000D01*
X55230000Y-201930000D02*
X50800000Y-201930000D01*
X55230000Y-194310000D02*
X50800000Y-194310000D01*
X55230000Y-186690000D02*
X50800000Y-186690000D01*
X64770000Y-196850000D02*
X62103000Y-196850000D01*
X62103000Y-196850000D02*
X59563000Y-199390000D01*
X59563000Y-199390000D02*
X56530000Y-199390000D01*
X64770000Y-191770000D02*
X56530000Y-191770000D01*
X64770000Y-186690000D02*
X56530000Y-186690000D01*
X64770000Y-194310000D02*
X56530000Y-194310000D01*
X57150000Y-189230000D02*
X56530000Y-189230000D01*
X64770000Y-189230000D02*
X56530000Y-189230000D01*
X69850000Y-196850000D02*
X68580000Y-195580000D01*
X60960000Y-195580000D02*
X59690000Y-196850000D01*
X80010000Y-196850000D02*
X69850000Y-196850000D01*
X59690000Y-196850000D02*
X56530000Y-196850000D01*
X68580000Y-195580000D02*
X60960000Y-195580000D01*
X69850000Y-199390000D02*
X68580000Y-200660000D01*
X59690000Y-201930000D02*
X56530000Y-201930000D01*
X80010000Y-199390000D02*
X69850000Y-199390000D01*
X60960000Y-200660000D02*
X59690000Y-201930000D01*
X68580000Y-200660000D02*
X60960000Y-200660000D01*
M02*
